<?xml version="1.0" encoding="utf-8"?>
<!-- Generator: Adobe Illustrator 16.0.0, SVG Export Plug-In . SVG Version: 6.00 Build 0)  -->
<!DOCTYPE svg PUBLIC "-//W3C//DTD SVG 1.1//EN" "http://www.w3.org/Graphics/SVG/1.1/DTD/svg11.dtd">
<svg version="1.1" id="Layer_1" xmlns="http://www.w3.org/2000/svg" xmlns:xlink="http://www.w3.org/1999/xlink" x="0px" y="0px"
	 width="157.489px" height="170.215px" viewBox="0 0 157.489 170.215" enable-background="new 0 0 157.489 170.215"
	 xml:space="preserve">
<g>
	<path fill="#E30613" d="M114.369,4.475c37.263,11.744,42.49,55.136,42.49,55.136c1.027,5.625,0.919,23.602-1.237,32.504
		c-1.474,6.127-2.832,22.371-29.38,43.174c-5.144,4.034-11.159,8.63-17.339,9.242c-0.768,0.075-1.541,0.138-1.918-0.435
		c-0.377-0.574,0.773-2.049,1.088-2.233c16.099-9.567,38.477-25.776,39.426-64.057c0,0,2.234-35.997-20.02-52.983
		c-7.153-5.455-17.505-11.661-25.579-13.883c-1.182-0.328-12.393-2.826-12.691-0.935c-0.428,2.694,4.143,2.875,6.41,2.939
		c5.377,0.15,11.946,3.457,13.432,4.187c19.236,9.458,24.33,20.535,26.021,23.234c7.466,11.867,7.17,34.623,7.205,37.901
		c0.255,20.552-10.561,34.616-15.392,41.299c-8.25,11.383-26.861,25.918-57.147,28.473c-7.08,0.598-22.655,0.405-38.063-7.998
		c-4.919-2.684-14.824-10.685-19.761-19.916c-1.439-2.685-4.214-9.665-0.944-10.338c1.981-0.399,4.846,5.635,10.201,11.419
		c4.86,5.262,9.833,10.146,17.063,13.691c9.619,4.725,21.253,7.394,26.071,6.627c1.063-0.162,1.187-1.457,0.136-1.7
		c-2.979-0.703-8.842-1.222-13.672-2.935c-7.577-2.687-21.508-11.457-29.566-21.762c-3.008-3.836-7.507-12.747-8.379-19.336
		c-1.511-11.443-1.005-27.709-0.475-30.874c3.095-18.391,12.994-29.038,20.528-35.677c7.435-6.52,21.113-11.155,24.637-12.834
		c0.613-0.293,0.268-1.018-0.125-1.084c-0.648-0.104-1.443,0.022-2.133,0.188c-0.488,0.135-1.044,0.244-1.616,0.35
		c-1.55,0.318-45.48,10.243-45.957,63.619c-0.035,4.799-4.197,2.063-4.712-0.882c-1.414-8.107-1.206-15.569,0.635-23.327
		c3.399-14.299,12.287-25.662,21.093-33.178C37.59,11.09,55.538,4.731,70.49,2.12C83.213-0.108,93.57-2.086,114.369,4.475
		 M6.489,104.498c2.324,0.423,2.904-1.479,2.726-2.34c-0.375-1.768-0.481-3.556-0.613-5.98c-0.126-2.241-0.359-4.903-1.819-6.732
		c-0.739-0.935-1.784-1.461-2.998-1.487c-5.439-0.119-3.657,8.638-2.843,11.561c0.366,1.275,0.92,2.534,1.965,3.408
		C3.889,103.757,5.188,104.265,6.489,104.498"/>
	<path fill="#FFFFFF" d="M115.375,46.175c-0.724-0.32-1.381-0.606-1.907-0.85c-1.927-0.883-6.664-2.379-10.468-3.58
		c-2.115-0.667-4.296-1.355-4.705-1.544c-0.414-0.642-1.334-4.666-1.775-6.622c-0.232-1.012-0.414-1.808-0.513-2.153
		c-0.346-1.235-0.776-1.933-1.96-1.871c-0.007,0-0.089,0.006-0.095,0.006c-0.415,0.035-6.06,1.176-15.303,3.045
		c-6.214,1.26-12.637,2.56-13.046,2.609c-0.514,0.045-0.817,0.31-4.852,6.425C59.54,43.474,58.033,45.76,57.791,46
		c-0.146,0.084-1,0.437-1.902,0.81c-2.569,1.055-7.35,3.022-11.446,5.157c-4.52,2.359-13.226,7.43-13.878,8.629
		c-0.241,0.444-0.251,0.916-0.021,1.297c0.31,0.508,0.994,0.783,1.838,0.741c0.182-0.013,0.371-0.037,0.56-0.076
		c0.869-0.177,28.398-4.236,44.196-6.021c3.944-0.443,8.925-0.827,14.805-1.138c14.465-0.765,29.033-0.83,29.881-0.695
		c0.853,0.139,1.718-0.162,2.312-0.802c0.482-0.521,0.739-1.201,0.72-1.921C124.809,50.562,121.762,48.978,115.375,46.175"/>
	<path fill="#FFFFFF" d="M65.196,74.199c-0.108-1.397-0.331-2.082-0.771-2.365c-0.226-0.14-0.524-0.196-0.786-0.147
		c-0.018,0-0.041,0.008-0.053,0.01c-0.672,0.158-0.934,0.81-1.103,1.248c-0.045,0.115-0.104,0.229-0.463,0.713
		c-5.062,6.796-5.705,9.117-5.982,11.252c-0.221,1.707,0.362,3.675,1.357,4.571c0.461,0.414,1.061,0.595,1.646,0.488
		c0.45-0.082,0.816-0.324,1.006-0.661c0.163-0.296,0.183-0.629,0.053-0.975c0.203-1.073,0.992-2.634,1.907-4.437
		C63.527,80.9,65.418,77.174,65.196,74.199"/>
	<path fill="#FFFFFF" d="M64.586,69.811c0.031-0.007,0.063-0.01,0.094-0.017c1.333-0.236,2.443-1.748,3.04-2.564
		c1.204-1.646,2.649-3.837,3.327-4.909c0.145-0.23,0.472-0.837,0.535-1.027c0.137-0.396,0.118-0.697-0.053-0.9
		c-0.214-0.247-0.614-0.303-1.252-0.156c-1.565,0.354-4.762,1.9-6.682,4.558c-0.866,1.195-1.298,2.56-1.127,3.56
		C62.645,69.373,63.495,69.957,64.586,69.811"/>
	<path fill="#FFFFFF" d="M93.386,83.542c-0.325,0.032-0.594,0.16-0.603,0.167c-1.189,0.529-3.265,0.857-4.303,0.975
		c-1.676,0.176-3.338-0.044-5.261-0.294c-2.413-0.323-5.149-0.685-8.602-0.315c-0.591,0.063-1.189,0.147-1.786,0.249
		c1.057-1.085,4.012-4.13,5.7-5.919c1.155-1.224,3.179-3.504,3.739-5.014c0.211-0.578,0.489-1.65-0.035-2.331
		c-0.352-0.449-0.973-0.632-1.86-0.537c-0.135,0.019-10.249,1.054-10.249,1.054c-0.299,0.031-0.751-0.005-0.972-0.022
		c-0.063-0.006-0.104-0.009-0.131-0.012c-1.075-0.052-1.83,0.381-2.015,1.138c-0.172,0.692,0.186,1.474,0.867,1.902
		c0.688,0.431,1.811,0.626,3.43,0.582c0.57-0.013,1.15-0.051,1.731-0.113c1.366-0.145,2.454-0.391,3.116-0.566
		c-1.441,1.373-5.46,5.193-7.946,7.554c-0.173,0.163-0.353,0.329-0.535,0.502c-1.334,1.246-2.842,2.661-3.542,4.116
		c-0.606,1.265-0.545,2.347,0.155,2.953c0.427,0.376,0.859,0.506,1.449,0.441c0.433-0.043,0.931-0.188,1.622-0.389
		c1.313-0.38,3.303-0.953,6.566-1.304c2.647-0.285,5.728-0.371,9.155-0.26c1.237,0.042,2.443-0.002,3.581-0.125
		c2.813-0.3,5.187-1.096,6.687-2.239l0.06-0.047c0.442-0.334,1.27-0.955,0.9-1.707C94.143,83.646,93.817,83.493,93.386,83.542"/>
	<path fill="#FFFFFF" d="M56.502,77.333c0.022-0.056,2.506-5.403-2.171-9.197c-2.32-1.886-5.571-2.574-9.153-1.932
		c-1.906,0.346-3.796,1.047-5.063,1.887c-1.39,0.922-1.763,1.874-1.833,2.509c-0.084,0.769,0.238,1.359,0.412,1.521
		c0.195,0.197,0.545,0.406,1.488,0.241c0.456-0.084,1.017-0.245,1.681-0.487c-1.246,1.623-5.05,7.058-8.001,16.438
		c-2.145,6.834-2.743,10.841-1.825,12.258c0.218,0.331,0.518,0.519,0.896,0.562c0.113,0.013,0.226,0.008,0.342-0.016
		c1.89-0.337,3.787-5.252,6.412-12.052c0.378-0.977,0.769-1.993,1.178-3.032c4.359-11.138,4.62-13.842,4.359-14.609
		c1.316-0.012,6.054,0.189,6.624,3.795c0.469,2.989-2.729,5.728-5.885,7.295c-0.828,0.413-1.65,0.688-2.31,0.908
		c-0.624,0.215-1.115,0.378-1.446,0.59c-0.405,0.256-0.348,0.549-0.299,0.663c0.19,0.533,1.398,0.905,3.332,0.585l0.146-0.026
		C46.733,84.989,53.604,83.472,56.502,77.333"/>
	<path fill="#FFFFFF" d="M92.218,96.165c0.064-0.842-0.064-1.451-0.377-1.805c-0.182-0.198-0.417-0.312-0.685-0.321
		c-0.109-0.005-0.217,0.001-0.318,0.02c-0.822,0.147-1.361,1.008-2.108,2.189c-0.724,1.153-1.716,2.727-3.402,4.343
		c-1.9,1.814-3.978,3.264-4.692,3.571c0.547-1.702,0.73-3.762,0.616-4.879c-0.108-1.111-0.487-1.918-1.124-2.401
		c-0.75-0.563-1.68-0.544-2.325-0.426c-0.847,0.15-1.596,0.533-1.871,0.821c-0.177,0.184-0.251,0.373-0.213,0.561
		c0.05,0.248,0.284,0.46,0.723,0.647c0.794,0.344,0.666,0.72,0.481,1.287c-0.033,0.111-0.073,0.225-0.102,0.331
		c-0.144,0.494-0.32,0.998-0.503,1.527c-0.688,1.989-1.398,4.042-0.742,5.777c0.534,1.421,1.868,2.05,3.651,1.731
		c0.341-0.063,0.7-0.158,1.062-0.285c1.987-0.696,4.154-2.582,6.448-5.606c0.117,2.676,1.777,3.992,2.516,4.576
		c0.528,0.421,1.133,0.619,1.615,0.535c0.301-0.057,0.533-0.22,0.662-0.461c0.111-0.232,0.189-0.648-0.135-1.296
		c-0.504-1.007,0.106-5.217,0.508-8.002C92.051,97.558,92.18,96.661,92.218,96.165"/>
	<path fill="#FFFFFF" d="M115.393,88.997c-0.429-0.4-1.282-0.222-4.438,0.47c-0.886,0.193-1.954,0.427-3.236,0.694
		c-0.368,0.08-0.994,0.23-1.788,0.424c-0.44,0.107-0.929,0.226-1.45,0.35l0.152-0.315c0.548-1.152,1.12-2.345,1.316-3.104
		c0.219-0.825,0.105-1.554-0.303-1.993c-0.299-0.325-0.73-0.463-1.184-0.383c-0.42,0.073-0.822,0.326-1.16,0.724
		c-0.489,0.575-2.216,2.71-4.078,6.185c-0.665,0.11-2.529,0.385-3.833,0.25c-0.274-0.028-0.688-0.061-1.076,0.007l-0.039,0.009
		c-0.605,0.116-1.044,0.464-1.305,1.039c-0.164,0.352-0.172,0.756-0.034,1.128c0.182,0.478,0.584,0.873,1.133,1.11
		c0.813,0.354,1.959,0.531,3.261,0.504c-1.976,4.893-2.715,9.49-2.186,13.667c0.097,0.785,0.301,1.295,0.604,1.521
		c0.139,0.1,0.301,0.138,0.467,0.108c0.449-0.079,0.894-0.671,1.157-1.543c0.217-0.712,3.168-9.459,5.312-14.834
		c4.403-1.529,7.9-2.896,10.696-4.176l0.16-0.07c0.795-0.354,1.556-0.719,1.762-0.919c0.16-0.156,0.242-0.333,0.242-0.5
		C115.543,89.214,115.489,89.089,115.393,88.997"/>
	<path fill="#FFFFFF" d="M75.391,100.353c-0.034-0.11-0.145-0.302-0.434-0.339c-0.209-0.071-0.43-0.042-0.93,0.133
		c-0.136,0.052-0.298,0.11-0.491,0.185c-0.366,0.134-0.852,0.317-1.499,0.539c0.445-2.06,0.859-3.738,1.198-5.093
		c0.696-2.809,1.048-4.221,0.598-4.859c-0.156-0.219-0.397-0.341-0.744-0.374c-0.079-0.007-0.164-0.007-0.251,0.013
		c-1.856,0.332-4.693,6.261-6.551,11.979c-0.141,0.037-0.281,0.071-0.428,0.108c-2.005,0.502-4.216,0.991-6.574,1.458
		c0.523-1.612,1.069-3.223,1.713-5.054l0.021-0.064c0.629-1.784,1.796-5.103,1.61-6.599c-0.127-1.014-0.646-1.149-0.944-1.138
		c-0.05,0-0.095,0.007-0.142,0.019c-2.053,0.365-5.973,7.473-8.631,14.009l-0.301,0.055l-0.672,0.121
		c-1.455,0.26-2.83,0.522-3.664,0.844c-1.311,0.508-2.051,1.218-2.087,1.99c-0.034,0.691,0.519,1.359,1.521,1.829
		c0.847,0.394,1.926,0.604,3.212,0.626c-1.013,3.177-2.407,8.549-1.132,10.661c0.298,0.489,0.725,0.782,1.271,0.873
		c0.349,0.057,0.688,0.057,1.005-0.001c2.256-0.405,3.256-3.634,3.809-6.031c0.487-2.095,1.062-4.292,1.7-6.527
		c2.311-0.639,4.878-1.559,7.447-2.67c-0.719,3.108-1.472,7.988,0.71,8.474c0.402,0.132,0.805,0.157,1.194,0.087
		c0.898-0.163,1.717-0.85,2.3-1.936c0.786-1.471,1.164-3.605,1.459-5.494c0.238-1.515,0.489-2.967,0.748-4.327
		c1.612-0.938,2.841-1.787,3.469-2.41C75.305,101.042,75.483,100.646,75.391,100.353"/>
	<path fill="#FFFFFF" d="M116.799,73.865c-0.457-0.037-0.827-0.213-1.09-0.52c-0.562-0.672-0.297-1.448,0.23-2.992
		c0.212-0.617,0.448-1.316,0.692-2.171c0.284-1.004,0.069-1.605-0.153-1.935c-0.271-0.394-0.668-0.563-0.947-0.586
		c-0.463-0.038-1.025,0.29-1.215,0.412c-0.782-0.152-1.625-0.19-2.506-0.118c-4.343,0.367-9.475,3.555-11.691,7.267
		c-1.084,1.819-1.318,3.529-0.685,4.939c0.043,0.108,0.1,0.212,0.162,0.315c-0.074,0.021-0.139,0.045-0.176,0.063
		c-0.668,0.352-1.463,0.563-2.432,0.644c-1.51,0.126-3.199-0.092-4.692-0.287c-0.754-0.092-1.475-0.188-2.13-0.233
		c1.231-1.133,5.049-4.957,6.56-6.545c0.672-0.708,1.774-1.949,1.986-2.295c0.691-1.108,0.762-2.128,0.194-2.877
		c-0.434-0.568-1.45-1.208-3.846-1.01c-0.377,0.032-0.778,0.083-1.198,0.154c-3.808,0.637-6.382,1.038-7.437,1.164
		c-0.484,0.06-0.679,0.025-1.009-0.055c-0.207-0.046-0.382-0.089-0.6-0.079l-0.076,0.003c-0.497,0.041-0.917,0.288-1.179,0.696
		c-0.326,0.505-0.376,1.214-0.133,1.885c0.395,1.076,1.72,1.526,2.743,1.577c0.523,0.029,1.234,0.007,2.102-0.067
		c1.625-0.138,3.463-0.419,4.379-0.563c-0.932,0.842-2.09,1.772-3.309,2.75c-2.008,1.618-4.088,3.288-5.577,4.881
		c-1.651,1.764-2.438,3.549-1.955,4.443c0.244,0.445,0.805,0.636,1.408,0.478c0.812-0.21,1.692-0.351,2.695-0.434
		c1.319-0.113,2.688-0.107,4.012-0.096c1.319,0.006,2.681,0.014,3.989-0.096c1.635-0.137,2.963-0.436,4.158-0.934
		c1.498-0.632,2.453-1.411,2.647-2.143c0.243,0.119,0.513,0.21,0.803,0.265c0.598,0.121,1.226,0.163,1.866,0.105
		c2.837-0.235,5.397-2.11,6.931-3.226c0.333-0.245,0.612-0.444,0.819-0.58c0.525,0.918,2.169,1.433,4.121,1.272l0.05-0.008
		c1.024-0.09,3.236-0.621,3.968-1.488c0.18-0.209,0.262-0.428,0.242-0.647C119.485,74.696,118.981,74.054,116.799,73.865
		 M111.476,69.606c-0.909,1.947-1.063,2.403-1.143,3.079c-0.851,0.561-3.844,2.109-5.088,2.215
		c-0.301,0.026-0.379-0.039-0.396-0.063c-0.04-0.048-0.018-0.154-0.01-0.2C106.178,71.08,110.267,69.882,111.476,69.606"/>
	<path fill="#E30613" d="M137.781,133.011h1.074l0.992,2.831h0.029l0.988-2.831h1.076v3.691h-0.703v-3.081h-0.024l-1.07,3.081
		h-0.559l-1.078-3.081h-0.023v3.081h-0.702V133.011z M134.331,133.011h2.911v0.594h-1.107v3.097h-0.695v-3.097h-1.108V133.011z"/>
</g>
<g>
	<path fill="#FFFFFF" d="M48.292,156.905h6.144v1.21h-4.854v2.836h4.517v1.21h-4.517v3.051h5.095v1.21h-6.385V156.905z"/>
	<path fill="#FFFFFF" d="M56.415,156.905h1.923l3.024,7.206h0.054l2.998-7.206h1.922v9.518h-1.29v-7.824h-0.027l-3.213,7.824h-0.86
		l-3.213-7.824h-0.026v7.824h-1.291V156.905z"/>
	<path fill="#FFFFFF" d="M68.696,156.905h3.347c2.434,0,3.052,1.465,3.052,2.662s-0.618,2.662-3.052,2.662h-2.057v4.194h-1.29
		V156.905z M69.986,161.099h1.694c1.021,0,2.043-0.242,2.043-1.533s-1.021-1.532-2.043-1.532h-1.694V161.099z"/>
	<path fill="#FFFFFF" d="M76.672,156.905h1.29v8.308h4.369v1.21h-5.659V156.905z"/>
	<path fill="#FFFFFF" d="M83.652,156.905h6.144v1.21h-4.854v2.836h4.517v1.21h-4.517v3.051h5.095v1.21h-6.385V156.905z"/>
	<path fill="#FFFFFF" d="M91.279,161.664c0-2.823,2.057-5.001,4.961-5.001c2.903,0,4.96,2.178,4.96,5.001
		c0,2.823-2.057,5.001-4.96,5.001C93.336,166.665,91.279,164.486,91.279,161.664z M99.829,161.664c0-2.083-1.411-3.791-3.589-3.791
		c-2.179,0-3.59,1.708-3.59,3.791s1.411,3.791,3.59,3.791C98.418,165.455,99.829,163.747,99.829,161.664z"/>
	<path fill="#FFFFFF" d="M103.344,164.433c0.457,0.699,1.25,1.022,2.017,1.022c0.847,0,1.896-0.538,1.896-1.586
		c0-2.191-4.692-0.833-4.692-4.544c0-1.116,0.941-2.662,3.227-2.662c1.035,0,2.03,0.215,2.742,1.089l-1.048,0.955
		c-0.323-0.498-0.955-0.833-1.694-0.833c-1.425,0-1.855,0.86-1.855,1.452c0,2.407,4.692,0.968,4.692,4.396
		c0,1.842-1.479,2.944-3.308,2.944c-1.223,0-2.393-0.417-3.038-1.318L103.344,164.433z"/>
</g>
<g>
</g>
<g>
</g>
<g>
</g>
<g>
</g>
<g>
</g>
<g>
</g>
</svg>
