<?xml version="1.0" encoding="utf-8"?>
<!-- Generator: Adobe Illustrator 16.0.0, SVG Export Plug-In . SVG Version: 6.00 Build 0)  -->
<!DOCTYPE svg PUBLIC "-//W3C//DTD SVG 1.1//EN" "http://www.w3.org/Graphics/SVG/1.1/DTD/svg11.dtd">
<svg version="1.1" id="Layer_1" xmlns="http://www.w3.org/2000/svg" xmlns:xlink="http://www.w3.org/1999/xlink" x="0px" y="0px"
	 width="56.845px" height="31.372px" viewBox="0 0 56.845 31.372" enable-background="new 0 0 56.845 31.372" xml:space="preserve">
<g>
	<defs>
		<path id="XMLID_1989_" d="M56.226,19.007c-0.303-0.246-0.654-0.363-1.063-0.301c-0.048-0.097,0.016-0.117-0.042-0.199
			c-0.213,0.049-0.334-0.031-0.417-0.162c-0.011,0.102-0.063-0.025-0.112,0.012c0.043,0.051,0.112,0.121,0.161,0.254
			c-0.305,0.005-0.386,0.225-0.656,0.131c0.05-0.293,0.285-0.402,0.265-0.766c-0.036-0.1-0.157-0.078-0.16-0.221
			c-0.049,0.002-0.088,0.016-0.112,0.045c-0.1-0.229-0.303-0.216-0.529-0.117c-0.037-0.113-0.016-0.16-0.098-0.16
			c-0.043-0.105,0.091-0.033,0.048-0.139c-0.022-0.007-0.035-0.025-0.034-0.064c-0.05,0.002-0.088,0.016-0.11,0.044
			c-0.123-0.265-0.786-0.255-0.482-0.66c0.091-0.003,0.21-0.044,0.262,0.008c0.031-0.204,0.244-0.032,0.337-0.167
			c-0.205,0.014-0.273-0.074-0.401,0.072c0.021-0.211-0.139-0.246,0.005-0.338c-0.146-0.02-0.2-0.049-0.268-0.107
			c0.083-0.037-0.043-0.082-0.012-0.168c0.147,0.021,0.173-0.08,0.221-0.156c0.063,0.131,0.208,0.153,0.358,0.168
			c0.002-0.041-0.012-0.096,0.021-0.104c0.067,0.068,0.149,0.113,0.294,0.073c-0.029-0.168,0.042-0.251-0.026-0.369
			c0.223-0.092,0.023-0.336,0.12-0.49c-0.122,0.065-0.276-0.057-0.349,0.109c-0.063-0.097-0.121-0.2-0.22-0.25
			c0.002,0.271-0.335,0.133-0.377-0.031c-0.091,0.046-0.166,0.107-0.251,0.159c-0.001-0.034-0.026-0.037-0.032-0.064
			c0.028-0.134,0.11-0.171,0.188-0.187c-0.051,0.01-0.069-0.026-0.064-0.095c-0.062,0.024-0.181,0.099-0.202-0.014
			c0.068-0.052,0.214-0.008,0.167-0.083c-0.15,0.08,0.021-0.118-0.101-0.193c0.064-0.086,0.169-0.018,0.259-0.025
			c0.031-0.087-0.021-0.103,0.019-0.137c0.295,0.012,0.476-0.075,0.661-0.064c-0.113-0.02-0.004-0.164,0.075-0.175
			c0.036,0.134,0.141-0.049,0.206,0.047c-0.062,0.087-0.089,0.06-0.199,0.053c-0.034,0.104,0.031,0.112-0.014,0.204
			c0.115,0.042-0.001-0.145,0.076-0.143c0.044,0.002,0.104-0.021,0.116,0.023c0.002,0.052-0.071,0.033-0.052,0.105
			c0.144-0.012,0.149,0.055,0.132,0.19c0.083,0.004,0.069,0.024,0.151,0.087c0.001-0.065-0.038-0.071-0.039-0.131
			c0.034-0.038,0.104-0.044,0.139-0.082c-0.068,0.059,0.104,0.195,0.15,0.088c-0.032-0.031-0.062-0.062-0.092-0.093
			c0.156-0.018,0.201,0.143,0.291,0.04c-0.041-0.006-0.038-0.07-0.064-0.095c0.067,0.061,0.179-0.005,0.197-0.087
			c-0.067,0.017-0.12,0.083-0.146-0.02c0.129-0.083-0.08-0.404-0.132-0.223c0.231-0.035,0.02,0.3,0.063,0.061
			c-0.094-0.02-0.03,0.114-0.108,0.112c-0.1-0.36,0.163-0.189,0.231-0.427c-0.066,0.067-0.153,0.109-0.231,0.023
			c-0.056-0.327-0.302-0.501-0.526-0.49c0.134,0.018,0.11-0.119,0.131-0.213c-0.127,0.021-0.117-0.064-0.16-0.221
			c-0.078,0.069-0.109,0.085-0.202,0.02c-0.036,0.047-0.001,0.165-0.074,0.177c-0.078-0.016-0.229-0.042-0.156-0.154
			c-0.11,0.051-0.274-0.019-0.307,0.164c0.035,0.013,0.068,0.029,0.092,0.058l-0.087,0.009c0.194,0.243-0.205,0.518-0.328,0.269
			c0.039,0,0.209-0.016,0.112-0.045c-0.072,0.027-0.104-0.003-0.093-0.092c0.048,0.049,0.132-0.029,0.137-0.114
			c-0.114,0.046-0.132-0.041-0.18-0.084c-0.128,0.161-0.401,0.106-0.59,0.259c-0.009-0.046-0.051-0.053-0.064-0.095
			c0.046-0.007,0.101-0.005,0.082-0.075c-0.163-0.017-0.178,0.115-0.309,0.131c-0.027-0.1-0.125-0.136-0.058,0.004
			c-0.122,0.033-0.203,0.009-0.186-0.15c-0.05,0.067-0.072,0.01-0.144,0.013c0.009-0.042,0.032-0.071,0.082-0.075
			c0.003-0.028-0.014-0.03-0.031-0.03c-0.007-0.028,0.01-0.033,0.025-0.037l0.058-0.006c-0.042,0.071,0.006,0.043,0.01,0.135
			c0.162-0.07,0.082-0.066,0.193-0.12c-0.076-0.017-0.105-0.1-0.181-0.117c-0.003-0.056,0.078-0.026,0.082-0.076
			c-0.131-0.113-0.114,0.118-0.192,0.154l-0.144,0.014c-0.009-0.05,0.001-0.125-0.038-0.131c-0.005,0.127-0.008,0.179-0.042,0.24
			c-0.064,0.016-0.038-0.095-0.093-0.092c-0.001,0.038-0.042,0.041-0.083,0.04c-0.017,0.08-0.094,0.22,0.042,0.2
			c0.034-0.082-0.083-0.12-0.01-0.134c0.09-0.025,0.088,0.076,0.125,0.122c-0.06,0.092-0.276-0.007-0.345,0.034
			c0.04,0,0.036,0.083-0.025,0.07c-0.027-0.101,0.044-0.104,0.016-0.204c-0.134-0.018-0.158,0.072-0.254,0.092
			c-0.005-0.042-0.04-0.043-0.036-0.098c0.09-0.06-0.297,0.144-0.391,0.206c-0.001-0.032-0.026-0.036-0.033-0.063
			c0.06-0.045,0.058-0.152,0.101-0.212c0.073-0.035,0.165,0.085,0.201-0.02c-0.115,0.015-0.182-0.044-0.239-0.111
			c0.134,0.002,0.053-0.164,0.155-0.251c0.066,0.024,0.244,0.229,0.215,0.147c-0.024-0.005-0.037-0.025-0.034-0.064
			c0.16-0.027,0.29,0.12,0.371-0.068c-0.098,0.022-0.215,0.049-0.317-0.003c0.02-0.073,0.076-0.111,0.165-0.118l0.179,0.085
			c0.064-0.106-0.068-0.288,0.031-0.375c-0.075-0.008-0.236-0.088-0.289-0.005c0.072-0.002,0.104,0.053,0.15,0.088
			c-0.262,0.226-0.352-0.226-0.345-0.373c-0.075-0.019-0.138-0.054-0.183-0.117c-0.009-0.144,0.213-0.059,0.187-0.219
			c-0.073-0.038-0.081,0.142-0.112,0.043c0.12-0.059-0.053-0.217,0.099-0.245l0.01,0.134c0.157,0.011,0.013-0.277,0.122-0.314
			c0.029,0.017,0.148,0.058,0.142-0.048c0.002-0.089-0.158,0.048-0.123-0.089c-0.003-0.056,0.08-0.026,0.082-0.075
			c-0.086-0.02,0.032-0.088-0.011-0.167c-0.075-0.007-0.177,0.027-0.212-0.114c0.02,0.183-0.072,0.113,0.017,0.234
			c-0.052-0.037-0.153-0.083-0.097-0.16c-0.274,0.042-0.499-0.032-0.723,0.037c-0.042-0.102-0.134-0.133-0.162-0.254
			c-0.02-0.091,0.104-0.041,0.107-0.111c-0.035-0.003-0.02-0.036-0.006-0.066c-0.106-0.025-0.167-0.112-0.243-0.178
			c0.179,0.08,0.102-0.134,0.249-0.161c-0.009,0.125,0.217,0.117,0.265,0.042c-0.109-0.098-0.241,0.002-0.271-0.143
			c0.083,0.008,0.214,0.001,0.224-0.122c-0.152,0.013-0.211-0.104-0.305-0.173c0.062-0.028,0.446,0.157,0.496,0.021
			c-0.201-0.056-0.299-0.187-0.346-0.372c-0.086-0.039-0.14,0.105-0.173,0.017c0.141,0.011-0.105-0.167-0.119-0.056
			c0.082-0.01,0.064,0.167-0.018,0.17c0.053-0.072-0.02-0.159-0.045-0.231c-0.196,0.015-0.371,0.049-0.481,0.149
			c0.089-0.026,0.116,0.061,0.173-0.018c0.094,0.136,0.055,0.236,0.195,0.318c-0.126,0.035-0.118,0.007-0.195,0.087
			c-0.024-0.072,0.071-0.115-0.037-0.098c-0.07,0.16-0.254,0.094-0.348,0.001c-0.146,0.072-0.636,0.34-0.661,0.064
			c-0.041,0.003-0.063,0.021-0.084,0.043c-0.095,0.044,0.08,0.002,0.035,0.096c-0.027,0.003-0.032,0.032-0.056,0.04
			c-0.033-0.042-0.122-0.195-0.152-0.12c-0.052,0.157-0.51,0.182-0.672,0.334c-0.024-0.078-0.207-0.127-0.237-0.077
			c0.023,0.001,0.097,0.101,0.036,0.097c-0.067,0.052-0.125-0.086-0.144,0.014c0.017-0.001,0.036,0.025,0.002,0.034
			c-0.11-0.019-0.131-0.162-0.192-0.25c-0.021-0.098,0.133-0.18,0.042-0.241c-0.062,0.112-0.342-0.087-0.42-0.195
			c0.115-0.031,0.196-0.227,0.338-0.133c0.037-0.147,0.077-0.169,0.189-0.188c-0.049,0.065,0.015,0.104,0.067,0.129
			c-0.042-0.151-0.006-0.195,0.021-0.104c-0.009-0.156,0.123-0.026,0.107-0.145C46.634,9.081,46.62,9.249,46.5,9.17
			c0.134-0.155,0.361-0.073,0.41-0.343c0.169-0.02,0.224,0,0.321,0.036c-0.089-0.103,0.144-0.084,0.164-0.116
			c0.02-0.137-0.092-0.092-0.073-0.229c-0.063,0.02-0.15,0.091-0.177-0.018c0.156-0.071,0.278,0.013,0.401-0.073
			c-0.062-0.043,0.099-0.128,0.132-0.181c-0.035-0.004-0.02-0.035-0.004-0.066c-0.066-0.009-0.098-0.063-0.151-0.087
			c0.118-0.057-0.034-0.075-0.041-0.164c0.017-0.056,0.143-0.006,0.108-0.113c-0.059-0.026-0.226-0.091-0.23,0.023
			c0.148,0,0.036,0.228-0.036,0.307c-0.093-0.162-0.329,0.016-0.395-0.23c-0.023,0.048-0.04,0.105-0.076,0.142
			c-0.141-0.046-0.239-0.085-0.163-0.254c-0.07,0.012-0.093-0.042-0.122-0.088c0.035-0.038,0.22-0.059,0.234,0.044
			c0.072-0.01,0.085-0.071,0.146-0.014c0.039-0.063,0.068-0.138,0.1-0.212c0.15,0.054,0.14-0.065,0.26-0.026L47.29,7.273
			c-0.073-0.036-0.111,0.11-0.145,0.013c0.088-0.05,0.143-0.194,0.068-0.276c0.039-0.042,0.069-0.045,0.116-0.01
			c-0.061-0.079-0.099-0.186-0.021-0.268c-0.075,0.016-0.125,0-0.122-0.09c-0.056-0.002-0.061,0.043-0.113,0.044
			c-0.002-0.059-0.013-0.104-0.037-0.131c0.093-0.032,0.095-0.17,0.149-0.318c-0.022-0.005-0.034-0.024-0.033-0.064
			c-0.105,0.103-0.141-0.097-0.199,0.053c-0.064-0.135-0.034-0.17-0.019-0.267C46.977,6,47.045,5.994,47.047,5.916
			c-0.109,0.021-0.21,0.033-0.276,0.161c-0.037-0.026-0.188-0.079-0.1-0.157c-0.056-0.084-0.139-0.085-0.204-0.015
			c0.017-0.134-0.184-0.073-0.101-0.192c-0.106-0.021-0.013,0.152-0.104,0.146c-0.163-0.152-0.576-0.071-0.862,0.117
			c0.016-0.01,0.063,0.009,0.061,0.028c-0.257,0.023-0.587-0.255-0.749,0.073c-0.073-0.037,0.045-0.107-0.039-0.13
			c0.003,0.033-0.046,0.047-0.059,0.005c0.023-0.009,0.033-0.032,0.025-0.071c0.074,0.011,0.115,0.047,0.11-0.078
			c-0.393-0.005-0.878,0.017-1.217,0.019c-0.077,0-0.149,0.11-0.203-0.013c-0.005,0.066,0.043,0.061,0.063,0.095
			c-0.048,0.034-0.077,0.089-0.136,0.113c-0.054-0.129-0.273-0.052-0.404,0.041c-0.352-0.098-0.598,0.162-0.839,0.015
			c-0.21,0.129-0.743-0.095-0.975,0.163c-0.035,0-0.068-0.003-0.063-0.061c-0.121-0.015-0.043,0.167-0.163,0.152
			c-0.064,0.015-0.039-0.095-0.093-0.093c-0.075,0.088-0.146,0.085-0.105,0.145c-0.078-0.027-0.107-0.123-0.186-0.149
			c-0.041,0.167-0.169,0.016-0.232-0.012c-0.362,0.149-0.878,0.109-1.337,0.368c0.095,0.019,0.274-0.021,0.154,0.121
			c0.108-0.172,0.276-0.095,0.357-0.271c0.104,0.105,0.278,0.021,0.372-0.071c0.087,0.053,0.094,0.046,0.204,0.014
			c-0.004,0.067,0.043,0.063,0.065,0.094c-0.156,0.219-0.39,0.087-0.653,0.201c0.326,0.101,0.503,0.034,0.812-0.014
			c-0.002,0.077,0.016,0.124,0.066,0.128c0.117-0.229,0.649-0.156,0.78-0.044c0.197-0.093,0.396-0.26,0.545-0.087
			c-0.042-0.079,0.343-0.249,0.371-0.07c0.005,0.056-0.078,0.026-0.081,0.075c0.08,0.039,0.216-0.133,0.293,0.04
			c0.077-0.271,0.487,0.008,0.647-0.266c0.079,0.036,0.096,0.102,0.072,0.195c0.122-0.086,0.153-0.067,0.335-0.167
			c0.151,0.329,0.698-0.095,0.856,0.186c-0.346,0.089-0.992,0.131-1.424,0.375c0.166-0.076,0.354,0.092,0.456-0.113
			c-0.013,0.203,0.224,0.06,0.248,0.212c-0.237-0.042-0.648,0.196-0.76-0.06c0.003,0.117,0.104,0.1,0.131,0.189
			c-0.218,0.06-0.373-0.211-0.576,0.057c0.024-0.109,0.009-0.089-0.041-0.165c-0.235,0.071-0.521,0.045-0.664,0.031
			c-0.098-0.009-0.203-0.117-0.3-0.105c-0.084,0.011-0.137,0.085-0.225,0.09c-0.065,0.002-0.291-0.092-0.208-0.081
			c-0.126-0.017-0.3-0.058-0.4,0.074c0.002-0.15-0.248,0.047-0.24-0.11c-0.105,0.021-0.106,0.143-0.252,0.124
			c-0.033-0.085-0.083-0.153-0.185-0.149c-0.225,0.073-0.435,0.235-0.773,0.146c-0.001,0.039,0.013,0.093-0.021,0.102
			c-0.236,0.036-0.432,0.25-0.578,0.022c-0.092,0.203-0.229,0.026-0.347,0.035c-0.138,0.01-0.444,0.244-0.463,0.012
			c-0.04,0.043-0.022,0.142-0.104,0.145c0.006-0.105-0.08-0.086-0.125-0.122c-0.068,0.259-0.382,0.056-0.479,0.182
			c-0.271-0.202-0.548,0.141-0.837,0.049c-0.007-0.052-0.005-0.117-0.065-0.096c0.015,0.078,0.073,0.138-0.017,0.17
			c-0.128,0.031-0.176-0.05-0.266-0.075c0.01,0.083,0.063,0.099-0.02,0.137c-0.071-0.032-0.391-0.141-0.405,0.007
			c-0.37,0.023-0.647-0.01-0.921,0.092c-0.052-0.155-0.317,0.003-0.466-0.022c-0.086-0.013-0.119-0.124-0.214-0.146
			c-0.083-0.02-0.266,0.053-0.403,0.04c-0.299-0.026-0.384,0.05-0.693,0.036c-0.002-0.063,0.093-0.032,0.079-0.109
			c-0.101,0.016-0.101,0.129-0.191,0.154c-0.063-0.098-0.35,0.043-0.271-0.142c-0.163-0.005-0.133,0.181-0.276,0.196
			c-0.068-0.003-0.063-0.11-0.152-0.085c-0.019,0.075-0.061,0.125-0.165,0.118c-0.014-0.046-0.038-0.054-0.007-0.101
			c-0.361,0.194-0.438-0.029-0.784-0.022c0.014,0.086,0.021,0.166-0.078,0.143c0.028-0.125-0.225-0.146-0.334-0.203
			c-0.011,0.128,0.155,0.007,0.128,0.156c-0.103-0.031-0.135-0.09-0.169,0.05c-0.04-0.066,0.003-0.126-0.099-0.158
			c0.012,0.096,0.017,0.182-0.075,0.176c0.018-0.098-0.047-0.083-0.041-0.165c-0.419,0.245-1.02,0.026-1.606,0.229
			c-0.267-0.023-0.68-0.143-0.896,0.057c-0.339-0.076-0.574,0.042-0.922,0.093c-0.067-0.071-0.131-0.108-0.208-0.046
			c0.047,0.004,0.009,0.054-0.021,0.069c-0.051-0.042-0.1-0.085-0.155-0.119c-0.016,0.046-0.058,0.067-0.11,0.078
			c-0.113-0.269-0.271,0.221-0.494-0.017c-0.006,0.006-0.014,0.009-0.02,0.016c0.005-0.051,0.011-0.098,0.025-0.138
			c-0.178-0.061-0.341-0.143-0.437-0.323c-0.317,0.072-0.673-0.085-0.895-0.273c-0.091-0.016-0.048,0.099-0.139,0.083
			c0.005-0.083-0.06-0.067-0.042-0.165c-0.085,0.058-0.195,0.056-0.236-0.042c-0.167,0.138-0.173-0.062-0.343,0.072l-0.01-0.101
			c-0.319,0.043-0.552-0.208-0.85-0.077c0.003-0.063-0.038-0.069-0.041-0.13c-0.173-0.01-0.247,0.07-0.324-0.065
			c-0.484,0.117-0.909-0.189-1.415,0.087c-0.021-0.046-0.053-0.076-0.097-0.09c-0.188,0.124-0.601,0.113-0.794,0.188
			c-0.04,0.064-0.067,0.139-0.097,0.213c-0.08,0.009,0.061-0.099-0.064-0.06c-0.109,0.042,0.106,0.112,0.012,0.134
			c-0.021-0.043-0.065-0.055-0.12-0.054c0.032,0.144-0.126,0.105-0.221,0.125c-0.123,0.251-0.439,0.315-0.557,0.568
			c-0.396-0.01-0.581,0.274-0.759,0.59c-0.045-0.098-0.105,0.061-0.147-0.018c0.077,0.125,0.101,0.091,0.115,0.292
			c-0.037,0.007-0.036,0.047-0.085,0.042c-0.011-0.063,0.027-0.078,0.019-0.137c-0.107,0.139-0.124,0.141-0.216,0.193
			c0.176,0.059-0.121,0.22-0.157,0.185c0.074,0.1,0.211,0.034,0.288-0.03c-0.001,0.05,0.022,0.121-0.017,0.136
			c-0.181,0.025-0.338-0.06-0.551-0.006c-0.053,0.083,0.067,0.181-0.101,0.179c0.002-0.135-0.133-0.147-0.022-0.233
			c-0.133-0.027-0.104,0.104-0.224,0.091l-0.009-0.1c-0.091-0.016-0.046,0.097-0.137,0.082c-0.134-0.087-0.263-0.18-0.376-0.295
			c0.159,0.046,0.302-0.111,0.408,0.022c-0.061,0.033-0.153,0.035-0.163,0.119c0.148,0.08,0.174-0.187,0.316-0.035
			c0.228-0.196,0.509,0.07,0.622-0.17c-0.24-0.008-0.469-0.382-0.535-0.145c0.005-0.075,0.154-0.049,0.146,0.019
			c-0.021,0.052-0.033,0.111-0.106,0.113c-0.113-0.134-0.108-0.014-0.289-0.003c0.075-0.101-0.16-0.101-0.019-0.201
			c-0.07-0.057-0.247,0.122-0.268-0.071c0.058-0.025,0.191,0.021,0.197-0.056c-0.097,0,0.103-0.115-0.011-0.133
			c-0.131,0.144-0.19-0.116-0.321,0.001c-0.003-0.042,0.033-0.05,0.019-0.103c-0.087,0.047-0.072,0.024-0.146-0.018
			c-0.02,0.128,0.114,0.042,0.102,0.159c-0.313,0.042-0.394,0.103-0.561-0.107c0.031-0.009,0.081-0.003,0.082-0.043
			c-0.037-0.009-0.062-0.037-0.066-0.094c-0.138-0.009-0.185,0.068-0.249,0.128c-0.365-0.109-0.848-0.307-1.379-0.151
			c-0.005-0.066,0.075-0.051,0.046-0.139c-0.14,0.038-0.243,0.199-0.116,0.315c-0.067,0.021-0.067-0.053-0.146-0.018l0.02,0.202
			c-0.129-0.001-0.177,0.075-0.187,0.188c0.064,0.061,0.022,0.271,0.115,0.292c0.067-0.108,0.122-0.111,0.226-0.06
			c0-0.091-0.063-0.242,0.068-0.209c-0.067,0.188-0.014,0.121,0.101,0.158c-0.014,0.151-0.165,0.243-0.277,0.132l0.013,0.134
			c0.168-0.027,0.246-0.05,0.36-0.175c-0.016,0.086-0.09,0.118-0.128,0.182c0.275,0.034,1.009-0.123,0.988,0.33
			c0.122,0.054,0.257,0.111,0.408,0.023c0.016-0.111-0.082-0.062-0.099-0.125c0.122-0.078,0.237-0.056,0.3,0.103
			c-0.018-0.125,0.169-0.148,0.198-0.056c0.011-0.124,0.146-0.144,0.197-0.055c-0.021,0.008-0.03,0.031-0.022,0.069
			c-0.042,0.011-0.106,0-0.11,0.047c0.087,0.02,0.108,0.04,0.123,0.087c0.049-0.052,0.098-0.008,0.135-0.116
			c-0.054-0.015-0.11,0.11-0.144,0.015c0.041-0.071,0.062-0.163,0.157-0.185c0.18,0.227,0.08,0.319-0.251,0.432
			c-0.075-0.088-0.122-0.13-0.239-0.075c-0.03,0.086,0.097,0.129,0.016,0.167c-0.085,0.018-0.109-0.113-0.175-0.014
			c-0.031,0.132,0.128-0.007,0.098,0.125c-0.092,0.162-0.208,0.026-0.335,0.139c-0.009-0.039-0.005-0.096-0.038-0.097
			c-0.144,0.135-0.322,0.073-0.598,0.132c0.017-0.109-0.098-0.034-0.098-0.123c-0.149,0.107-0.333,0.046-0.398,0.079
			c0.226-0.197,0.591-0.211,0.803-0.09c-0.065-0.12-0.232-0.096-0.308-0.201c-0.091-0.016-0.048,0.097-0.138,0.082
			c-0.057-0.108-0.139-0.153-0.022-0.234c-0.113,0.014-0.139,0.002-0.218,0.159c0.058,0.026,0.088-0.111,0.116-0.012
			c-0.034,0.149-0.203,0.005-0.291-0.002c0.017,0.102,0.131,0.066,0.159,0.151c-0.121-0.015-0.122,0-0.258,0.029
			c0.003,0.059,0.016,0.103,0.041,0.13c-0.172,0.121-0.438,0.055-0.501,0.224c0.036,0.074,0.119,0.081,0.158,0.152
			c-0.14,0.03-0.327-0.17-0.478-0.15c0.037-0.057,0.144-0.046,0.227-0.059c-0.107-0.175-0.195-0.037-0.259,0.028
			c-0.056-0.05-0.057-0.193-0.07-0.126c-0.101,0.016,0.072,0.103-0.019,0.103l-0.058,0.005c0.03-0.038-0.005-0.154-0.048-0.196
			c-0.001,0.068-0.071,0.074-0.073,0.144c0.072-0.012,0.084-0.073,0.118,0.021c-0.12,0.061-0.185-0.005-0.31,0.102
			c0.003-0.12-0.15-0.212-0.214-0.112c0.071-0.012,0.14-0.022,0.15,0.05c-0.115-0.018-0.261,0.119-0.357,0.209
			c-0.002,0.128,0.075,0.146,0.133,0.188c0.004-0.106-0.107-0.077-0.044-0.164c0.149,0.026,0.24,0.062,0.37-0.075
			c0.082,0.063,0.063,0.33,0.144,0.289c-0.061,0.015,0.005,0.146-0.043,0.173c0.088-0.026,0.11,0.072,0.071,0.127
			c0.085-0.047,0.075,0.001,0.139-0.049c0.063,0.138,0.128,0.272,0.261,0.309c-0.003-0.084-0.139-0.176-0.079-0.227
			c0.077-0.008,0.072,0.099,0.153,0.084c0.021-0.179-0.338-0.149-0.289-0.306c0.094-0.009,0.118,0.083,0.235,0.041
			c-0.01,0.142,0.175,0.128,0.255,0.242c-0.049,0.026-0.129-0.084-0.145,0.016c0.115,0.045-0.057,0.062-0.048,0.106
			c-0.001,0.022,0.077,0.104,0.042,0.13c-0.213-0.003-0.456,0.154-0.584,0.269c0.113,0.024,0.41-0.223,0.51-0.125
			c0.033-0.005,0.033,0.256,0.025,0.268c0.062-0.136,0.106,0.073,0.179,0.047c-0.003-0.053-0.015-0.115,0.048-0.107l0.013,0.134
			c-0.155,0.066-0.305,0.024-0.37,0.076c0.032,0.003,0.047,0.032,0.063,0.06c-0.087,0.044-0.1-0.048-0.165,0.086
			c-0.084-0.307-0.387-0.073-0.547-0.277c0.125-0.033,0.064-0.176,0.075-0.11c-0.033,0.069-0.215,0.033-0.209-0.078
			c0.109-0.056,0.078,0.089,0.152,0.085c-0.015-0.139-0.107-0.165-0.186-0.116c0.034,0.124-0.016,0.167-0.099,0.18
			c-0.006-0.105-0.087-0.104-0.079-0.227c-0.217,0.049-0.147-0.085-0.214-0.111c-0.136-0.016,0.049,0.081-0.047,0.106
			c-0.205,0.017-0.313-0.184-0.475-0.116c-0.008-0.058-0.003-0.104,0.015-0.137c-0.101,0.029-0.22-0.109-0.188-0.148
			c0.067-0.051,0.085,0.148,0.117,0.021c-0.036-0.008-0.063-0.037-0.066-0.093c-0.089,0.065-0.139,0.045-0.178-0.047
			c-0.033,0.094-0.269,0.034-0.35-0.029c-0.017-0.116,0.118-0.091,0.126-0.184c-0.062,0.014-0.094-0.017-0.095-0.091
			c0.033-0.009,0.081-0.002,0.082-0.043c-0.071,0.004-0.139,0.011-0.17,0.054c0.134,0.27-0.164,0.228-0.197,0.36
			c-0.087-0.059-0.123-0.047-0.233-0.008c0.055,0.099,0.017,0.165-0.066,0.21c0.033,0.237,0.005,0.464-0.131,0.454
			c0.033,0.001,0.036,0.049,0.037,0.096c0.052-0.003,0.159-0.109,0.201-0.022c-0.048,0.07-0.054-0.014-0.144,0.017
			c0.046,0.104-0.091,0.036-0.045,0.139c0.091-0.002,0.174,0.006,0.186,0.116c0.169-0.067,0.207-0.186,0.389-0.179
			c0.004,0.034-0.019,0.042-0.022,0.07c0.134-0.047,0.287-0.024,0.418-0.181c0.003,0.033,0.027,0.037,0.035,0.064
			c-0.035,0.176-0.074,0.06-0.096,0.212c-0.086-0.122-0.084,0.077-0.154-0.084c0.003,0.063-0.092,0.034-0.075,0.11
			c0.053,0.028,0.159,0.041,0.099,0.125c0.118-0.008,0.17-0.093,0.232,0.006c-0.094-0.017-0.106,0.042-0.138,0.083
			c-0.039-0.083-0.178-0.062-0.058,0.006c-0.121-0.017-0.177-0.01-0.229,0.026c0.032-0.015,0.108,0.085,0.038,0.098
			c-0.09,0-0.1-0.112-0.159-0.151c-0.048,0.064,0.049,0.099-0.046,0.139c0.077-0.104-0.073-0.053-0.149-0.05
			c0.033,0.147-0.041,0.081-0.108,0.078c-0.027,0.236-0.076,0.563-0.254,0.704c-0.072-0.025-0.062-0.004-0.175-0.014
			c-0.048,0.026,0.018,0.159-0.042,0.173c-0.003-0.083-0.026-0.137-0.072-0.161c-0.038,0.026,0.008,0.129-0.046,0.141
			c-0.118-0.089-0.028-0.241-0.17-0.286c-0.004,0.082,0.06,0.067,0.043,0.164C9.895,13.235,9.8,13.305,9.644,13.23
			c0.016-0.175-0.086-0.183-0.166-0.218c0.029-0.24,0.063-0.088-0.053-0.264c0.042-0.01,0.106-0.001,0.111-0.047
			c-0.065-0.021-0.108-0.071-0.105-0.19c0.042-0.011,0.106,0,0.112-0.046c-0.144,0.028-0.058-0.271-0.198-0.249
			c0.067,0.116-0.008,0.322-0.103,0.451c0.034,0.001,0.081-0.015,0.089,0.024c-0.185,0.047-0.134,0.319-0.376,0.313
			c-0.041-0.017-0.017-0.128-0.069-0.128c-0.028,0.188-0.137,0.298-0.253,0.4c-0.07-0.039-0.105-0.127-0.162-0.185
			c0.032-0.02,0.062-0.044,0.079-0.076c-0.153,0.05-0.224-0.097-0.134-0.188c-0.127,0.001-0.138,0.112-0.248,0.13
			c0.014-0.11-0.08-0.06-0.099-0.125c0.032-0.167,0.203-0.072,0.248-0.128c-0.105-0.204,0.345-0.138,0.408-0.283
			c-0.064-0.257-0.181,0.041-0.343,0.039c-0.071-0.011-0.132-0.116-0.077-0.194c-0.171,0.076-0.304,0.189-0.46,0.051
			c-0.064,0.052,0.062,0.095-0.017,0.136c-0.034-0.011-0.067-0.028-0.091-0.056c0.05-0.004,0.07-0.034,0.079-0.078
			c-0.079,0-0.166-0.015-0.216-0.144c0.021,0.065-0.122,0.124-0.141,0.05c0.038-0.004,0.021-0.061,0.05-0.073
			c0.163-0.009,0.301-0.04,0.301-0.202c-0.13-0.154-0.253-0.321-0.417-0.427c0.131-0.028,0.183,0.056,0.184,0.115
			c0.029-0.109,0.145,0.056,0.138-0.083c-0.078-0.065-0.196-0.072-0.222-0.212c-0.035-0.104,0.067-0.077,0.073-0.143
			c-0.134-0.059-0.319-0.169-0.294-0.339c-0.091-0.015-0.047,0.098-0.138,0.083c-0.05-0.112,0.06-0.223-0.025-0.267
			c-0.043,0.07-0.051,0.175-0.124,0.217c-0.011-0.047-0.053-0.052-0.066-0.095c0.013-0.068,0.172,0.001,0.133-0.116
			c-0.068-0.027-0.111-0.093-0.21-0.077c0.026,0.093,0.124,0.158-0.009,0.204c-0.062-0.054-0.103-0.132-0.162-0.185
			c0.089,0.182,0.094,0.366,0.021,0.538c0.087-0.022,0.07,0.101,0.103,0.156c-0.053,0.022-0.177-0.025-0.137,0.084
			c0.106,0.017,0.076-0.006,0.153,0.084c-0.045-0.185,0.125-0.418,0.235-0.263c-0.036,0.046-0.053,0.135-0.014,0.172
			c0.086-0.001,0.095-0.147,0.144-0.017c-0.138,0.022,0.019,0.104,0.043,0.131l0.014,0.167c-0.108-0.003-0.234,0.138-0.312,0.068
			c0.005-0.077,0.158-0.013,0.134-0.118c-0.107-0.08-0.167,0.009-0.267-0.07c-0.04,0.023-0.066,0.06-0.077,0.109
			c0.027,0.05,0.096,0.04,0.098,0.124c-0.037,0.002-0.043-0.039-0.088-0.024l0.007,0.067c0.008,0.025,0.007,0.066,0.034,0.063
			c0.178-0.042,0.347-0.038,0.414,0.09c-0.132-0.081-0.097,0.008-0.259,0.028l-0.009-0.1c-0.085,0.056-0.096,0.018-0.201,0.022
			c0.095,0.088,0.161,0.068,0.167,0.218c0.093-0.109,0.269-0.078,0.397-0.079c-0.163-0.021-0.035,0.252-0.036,0.24
			c0.126-0.055,0.046-0.298,0.218-0.16c-0.074,0.021-0.095,0.093-0.065,0.211c0.093-0.035,0.1,0.057,0.15,0.084
			c-0.072,0.012-0.093,0.072-0.132,0.116c0.11,0.057-0.128,0.101-0.014,0.171c0.078-0.068,0.092-0.057,0.165-0.087
			c0.012,0.155,0.242,0.201,0.118,0.325c-0.087-0.042-0.118,0.024-0.233-0.007c-0.013,0.093,0.064,0.061,0.071,0.127
			c-0.087,0.049-0.191,0.083-0.247,0.162c0.037,0.015,0.08,0.21,0.048,0.198c-0.076-0.17-0.251,0.022-0.35-0.028
			c0.093,0.004,0.07,0.138,0.016,0.167c0.075-0.008,0.177-0.051,0.153,0.083c-0.109-0.048-0.224,0.015-0.314,0.069
			c-0.03-0.079-0.079-0.138-0.081-0.26c-0.053,0.01-0.094,0.032-0.108,0.08c0.126,0.029,0.013,0.167,0.058,0.298
			c-0.102,0.003-0.084,0.122-0.159,0.153c-0.01-0.163-0.114-0.269-0.034-0.369c-0.105,0.001-0.144-0.034-0.229,0.026
			c-0.048-0.185-0.135-0.313-0.27-0.374c-0.047,0.063,0.05,0.097-0.043,0.139c-0.036-0.065-0.131-0.039-0.131-0.156
			c0.071-0.045,0.133,0.09,0.111-0.044c-0.17-0.008-0.234-0.106-0.333-0.131c0.095-0.065,0.271-0.305,0.393-0.147
			c0.006,0.067-0.074,0.052-0.044,0.142c0.094,0.029,0.124-0.035,0.232,0.007c0.02-0.042,0.028-0.093,0.013-0.171
			c-0.034,0-0.082,0.016-0.089-0.023c-0.019-0.148,0.098-0.17,0.214-0.192c-0.165-0.089-0.179-0.351-0.165-0.521
			c-0.072-0.015-0.136-0.034-0.233-0.009c0.097-0.139-0.092-0.061-0.127-0.12c0.087-0.076,0.028-0.093-0.042-0.13
			c-0.005-0.087,0.108-0.062,0.102-0.148c-0.055-0.047-0.141-0.05-0.186-0.113c0.037,0.163,0.041,0.175,0,0.304
			c0.108,0.011,0.094,0.221,0.164,0.184c0.021,0.091-0.104,0.043-0.105,0.114c0.045,0.011,0.077,0.041,0.12,0.053
			c0.001-0.05-0.021-0.123,0.017-0.137c0.071,0.1,0.153,0.185,0.204,0.315c-0.192,0.06-0.177-0.177-0.36-0.129
			c0.047-0.064-0.021-0.096-0.045-0.164c-0.101-0.014-0.022,0.141-0.134,0.116c-0.087-0.021-0.02-0.123-0.07-0.127
			c-0.056,0.076,0.036,0.104-0.013,0.171c0.088-0.026,0.131,0.014,0.128,0.12c-0.127,0.053-0.251-0.251-0.322-0.031l0.143-0.017
			c-0.004,0.106,0.081,0.129-0.011,0.171c-0.069-0.131-0.084,0.085-0.163,0.118c0.084,0.101,0.11,0.063,0.191,0.182
			c-0.081-0.016,0.034,0.155-0.047,0.14c-0.046-0.011-0.07-0.247-0.125-0.121c0.081,0.063,0.026,0.139,0.075,0.194
			c0.092,0.006,0.11-0.092,0.147,0.018c-0.064,0.121-0.243-0.033-0.259,0.029c0.054,0.062,0.115,0.113,0.138,0.221
			c-0.106,0.021-0.135,0.118-0.25,0.13c0.044-0.188-0.16-0.024-0.185-0.115c0.017-0.138,0.116-0.008,0.227-0.058
			c-0.052-0.098-0.07-0.088-0.019-0.202c-0.115,0.099-0.179-0.021-0.131-0.155c-0.138,0.18-0.287-0.062-0.521,0.025
			c0.034,0.188-0.085,0.059-0.114,0.013c0.007,0.06,0.096,0.187,0.022,0.234c-0.037,0.003-0.042-0.037-0.089-0.023
			c0.006,0.127-0.095,0.154-0.09,0.281c0.023,0.004,0.057-0.006,0.061,0.027c-0.094-0.03-0.219-0.014-0.297-0.069
			c0.05-0.169-0.027-0.471-0.165-0.521c0.04-0.095,0.236-0.201,0.145-0.321c-0.021,0.062-0.042,0.123-0.136,0.117
			c-0.013-0.057,0.065-0.176-0.019-0.201c-0.126,0.111-0.023,0.263-0.109,0.385c0.055,0.024,0.106,0.05,0.104,0.155
			c-0.09-0.012-0.103,0.046-0.169,0.054c-0.056,0.221-0.023,0.525-0.137,0.69c0.102,0.008,0.079-0.168,0.165-0.085
			c0.008,0.088-0.083,0.083-0.07,0.177c0.046-0.003,0.099-0.016,0.093,0.056c-0.033,0.01-0.082,0.004-0.083,0.043
			c0.036,0.088,0.111,0.12,0.138,0.221c-0.216,0.033-0.157,0.274,0,0.305c-0.022,0.138-0.091,0.185-0.173,0.323
			c-0.11-0.134-0.017-0.194-0.031-0.333c-0.226-0.057-0.124,0.442-0.025,0.34c-0.033,0.088-0.094,0.071-0.169,0.054
			c0.036,0.103-0.09,0.056-0.074,0.143c0.065-0.018,0.108-0.004,0.121,0.053c-0.033,0.039-0.103,0.045-0.136,0.083
			c0.066,0.235,0.029,0.288,0.055,0.568c0.057,0.042,0.153,0.033,0.184,0.113c-0.044,0.077-0.056,0.107-0.01,0.205
			c-0.05,0.004-0.089,0.018-0.11,0.045c-0.02,0.143,0.072,0.124,0.079,0.229c-0.084,0.005-0.187,0.039-0.232-0.008
			c0.012,0.063-0.025,0.078-0.017,0.137c0.093,0.035,0.15-0.115,0.201-0.021c0.015,0.098-0.091,0.129-0.137,0.082
			c-0.038,0.199-0.405,0.414-0.09,0.584c-0.036,0.015-0.05,0.055-0.11,0.047c0.054,0.146,0.032,0.176,0.11,0.258
			c-0.039,0.014-0.043,0.061-0.079,0.076c-0.079,0.037-0.078-0.039-0.146-0.018c-0.115,0.25,0.085,0.699,0.331,0.437
			c0.013,0.102-0.009,0.172-0.066,0.21c-0.105-0.027-0.195-0.074-0.324-0.066c-0.25-0.291-0.451-0.676-0.182-0.991
			c0.099-0.116,0.209-0.035,0.239-0.229c-0.131,0.024-0.168,0.068-0.264-0.004c0.064,0.271-0.354,0.088-0.442,0.219
			c-0.046-0.034-0.046-0.137-0.127-0.121c-0.058,0.025-0.085,0.08-0.133,0.115c-0.121-0.09-0.296,0.018-0.552-0.005
			c-0.003-0.032,0.021-0.042,0.022-0.07c-0.295,0.101-0.599-0.072-0.854,0.166c-0.118-0.01-0.18-0.098-0.324-0.065
			c-0.009-0.104-0.052-0.156-0.081-0.229c-0.365,0.432-0.093,1.347,0.477,1.332c0.31,0.24,0.664,0.352,1.07,0.283
			c0.05,0.096-0.013,0.117,0.048,0.197c0.211-0.053,0.335,0.026,0.42,0.156c0.011-0.103,0.063,0.024,0.114-0.013
			c-0.046-0.051-0.117-0.119-0.168-0.253c0.306-0.009,0.381-0.23,0.652-0.14c-0.043,0.294-0.276,0.407-0.245,0.771
			c0.038,0.098,0.16,0.074,0.166,0.217c0.05-0.003,0.088-0.017,0.11-0.045c0.105,0.225,0.311,0.209,0.532,0.109
			c0.041,0.109,0.02,0.158,0.103,0.156c0.046,0.104-0.091,0.035-0.044,0.141c0.021,0.005,0.035,0.023,0.033,0.064
			c0.051-0.005,0.089-0.02,0.111-0.049c0.13,0.266,0.793,0.243,0.498,0.654c-0.091,0.004-0.209,0.047-0.262-0.005
			c-0.025,0.204-0.243,0.037-0.331,0.173c0.203-0.016,0.273,0.07,0.397-0.078c-0.016,0.211,0.146,0.244,0.004,0.338
			c0.146,0.018,0.201,0.045,0.27,0.104c-0.08,0.038,0.046,0.08,0.017,0.167c-0.148-0.019-0.17,0.083-0.217,0.16
			c-0.067-0.13-0.212-0.15-0.362-0.162c-0.001,0.04,0.014,0.095-0.019,0.104c-0.068-0.066-0.152-0.112-0.296-0.067
			c0.035,0.165-0.036,0.251,0.035,0.368c-0.221,0.095-0.015,0.336-0.107,0.491c0.121-0.068,0.276,0.053,0.346-0.114
			c0.067,0.094,0.128,0.196,0.226,0.245c-0.008-0.271,0.332-0.139,0.379,0.025c0.088-0.048,0.161-0.109,0.245-0.164
			c0.003,0.033,0.027,0.037,0.034,0.064c-0.024,0.137-0.105,0.175-0.184,0.191c0.052-0.012,0.069,0.023,0.065,0.092
			c0.062-0.025,0.179-0.102,0.205,0.012c-0.068,0.053-0.215,0.01-0.165,0.085c0.148-0.083-0.018,0.116,0.104,0.191
			c-0.063,0.086-0.168,0.019-0.258,0.028c-0.028,0.088,0.024,0.104-0.016,0.139c-0.295-0.009-0.474,0.08-0.658,0.072
			c0.113,0.021,0.009,0.164-0.071,0.178c-0.039-0.136-0.139,0.052-0.205-0.045c0.058-0.087,0.085-0.061,0.196-0.055
			c0.03-0.105-0.034-0.111,0.009-0.205c-0.118-0.041,0.004,0.145-0.072,0.145c-0.044-0.002-0.105,0.023-0.117-0.021
			c-0.003-0.053,0.069-0.034,0.048-0.106c-0.142,0.015-0.148-0.054-0.135-0.188c-0.083-0.002-0.07-0.022-0.151-0.082
			c-0.001,0.063,0.038,0.068,0.041,0.129c-0.034,0.038-0.103,0.045-0.138,0.082c0.066-0.058-0.108-0.191-0.151-0.083l0.094,0.091
			c-0.155,0.021-0.205-0.141-0.292-0.034c0.041,0.003,0.04,0.069,0.067,0.094c-0.068-0.062-0.18,0.007-0.194,0.089
			c0.065-0.018,0.116-0.085,0.146,0.018c-0.129,0.085,0.089,0.402,0.136,0.221c-0.229,0.039-0.026-0.299-0.062-0.06
			c0.094,0.019,0.026-0.114,0.104-0.113c0.109,0.358-0.157,0.19-0.22,0.43c0.064-0.067,0.151-0.11,0.229-0.026
			c0.066,0.326,0.314,0.497,0.537,0.48c-0.133-0.016-0.105,0.123-0.123,0.216c0.124-0.023,0.119,0.062,0.163,0.22
			c0.077-0.072,0.107-0.088,0.202-0.024c0.035-0.048-0.003-0.165,0.069-0.177c0.079,0.014,0.229,0.039,0.16,0.15
			c0.108-0.052,0.276,0.016,0.302-0.168C4.034,24.077,4,24.06,3.977,24.032l0.087-0.01c-0.2-0.24,0.191-0.521,0.32-0.272
			c-0.038-0.001-0.207,0.017-0.111,0.046c0.072-0.029,0.104,0.002,0.096,0.091c-0.049-0.048-0.131,0.03-0.135,0.116
			c0.113-0.048,0.134,0.037,0.183,0.08c0.125-0.162,0.397-0.111,0.582-0.268c0.011,0.047,0.052,0.05,0.067,0.093
			c-0.045,0.009-0.101,0.008-0.081,0.077c0.164,0.014,0.175-0.117,0.306-0.137c0.028,0.1,0.128,0.135,0.058-0.005
			c0.12-0.034,0.202-0.013,0.186,0.147c0.05-0.068,0.073-0.012,0.145-0.018c-0.008,0.043-0.029,0.074-0.079,0.077
			c-0.002,0.03,0.015,0.03,0.031,0.03c0.009,0.027-0.009,0.033-0.024,0.037l-0.058,0.008c0.041-0.074-0.007-0.045-0.015-0.135
			c-0.158,0.072-0.078,0.066-0.188,0.123c0.077,0.014,0.106,0.098,0.185,0.113c0.004,0.055-0.078,0.029-0.08,0.076
			c0.132,0.112,0.11-0.119,0.188-0.156l0.142-0.016c0.011,0.051,0.002,0.125,0.043,0.131c0-0.127,0.003-0.178,0.033-0.24
			c0.066-0.018,0.043,0.092,0.097,0.09c0.001-0.039,0.041-0.041,0.082-0.041c0.015-0.08,0.088-0.222-0.048-0.197
			c-0.032,0.079,0.086,0.115,0.013,0.131c-0.088,0.026-0.089-0.074-0.126-0.119c0.057-0.093,0.276,0.003,0.343-0.039
			c-0.04,0.002-0.038-0.082,0.022-0.07c0.03,0.102-0.041,0.104-0.01,0.205c0.134,0.016,0.157-0.075,0.251-0.098
			c0.006,0.043,0.041,0.043,0.038,0.099c-0.088,0.06,0.292-0.147,0.385-0.212c0.003,0.033,0.026,0.037,0.035,0.064
			c-0.059,0.045-0.053,0.151-0.096,0.212c-0.071,0.035-0.167-0.083-0.2,0.022c0.117-0.018,0.182,0.042,0.241,0.108
			c-0.133-0.001-0.049,0.165-0.148,0.253c-0.066-0.024-0.249-0.227-0.217-0.145c0.022,0.004,0.035,0.024,0.035,0.063
			c-0.16,0.03-0.293-0.116-0.37,0.076c0.098-0.026,0.214-0.054,0.318-0.003c-0.019,0.072-0.075,0.109-0.162,0.12l-0.18-0.083
			c-0.063,0.107,0.073,0.287-0.023,0.375c0.074,0.008,0.237,0.085,0.29,0.002c-0.074,0.004-0.106-0.051-0.153-0.085
			c0.255-0.229,0.356,0.22,0.353,0.366c0.074,0.02,0.141,0.052,0.185,0.114c0.014,0.144-0.211,0.063-0.182,0.224
			c0.076,0.035,0.077-0.143,0.111-0.046c-0.117,0.061,0.06,0.215-0.092,0.246l-0.015-0.134c-0.157-0.009-0.004,0.278-0.113,0.316
			c-0.029-0.018-0.15-0.056-0.139,0.049c-0.002,0.09,0.156-0.049,0.123,0.088c0.005,0.056-0.078,0.027-0.08,0.077
			c0.087,0.019-0.028,0.089,0.017,0.167c0.075,0.005,0.175-0.029,0.213,0.111c-0.023-0.184,0.069-0.115-0.022-0.234
			c0.053,0.037,0.155,0.081,0.103,0.158c0.27-0.047,0.496,0.025,0.717-0.047c0.045,0.1,0.138,0.131,0.169,0.25
			c0.021,0.092-0.104,0.044-0.104,0.114c0.035,0.003,0.021,0.034,0.006,0.065c0.106,0.024,0.171,0.111,0.249,0.176
			c-0.181-0.079-0.101,0.135-0.245,0.162c0.005-0.123-0.22-0.111-0.264-0.037c0.11,0.094,0.238-0.008,0.271,0.138
			c-0.082-0.006-0.211,0.003-0.218,0.126c0.15-0.014,0.211,0.102,0.303,0.168c-0.058,0.029-0.444-0.15-0.492-0.011
			c0.204,0.052,0.302,0.179,0.354,0.364c0.086,0.038,0.138-0.107,0.171-0.02c-0.14-0.009,0.107,0.167,0.121,0.055
			c-0.08,0.012-0.069-0.166,0.013-0.17c-0.053,0.072,0.024,0.158,0.05,0.231c0.196-0.019,0.37-0.056,0.478-0.155
			c-0.089,0.025-0.12-0.061-0.172,0.02c-0.096-0.135-0.061-0.236-0.203-0.314c0.124-0.037,0.118-0.009,0.193-0.092
			c0.026,0.071-0.07,0.116,0.039,0.098c0.066-0.16,0.251-0.098,0.347-0.006c0.144-0.072,0.625-0.349,0.657-0.073
			c0.039-0.003,0.06-0.022,0.082-0.042c0.095-0.048-0.08-0.002-0.037-0.098c0.028-0.002,0.031-0.031,0.054-0.04
			c0.035,0.042,0.127,0.192,0.156,0.118c0.046-0.158,0.504-0.188,0.66-0.344c0.026,0.076,0.21,0.124,0.238,0.074
			c-0.022-0.002-0.097-0.101-0.036-0.098c0.064-0.052,0.125,0.085,0.142-0.016c-0.017,0.002-0.035-0.023-0.004-0.033
			c0.112,0.018,0.136,0.16,0.197,0.248c0.024,0.096-0.127,0.18-0.035,0.239c0.06-0.111,0.341,0.083,0.424,0.19
			c-0.117,0.033-0.192,0.229-0.335,0.139c-0.033,0.146-0.074,0.169-0.186,0.189c0.048-0.066-0.018-0.104-0.068-0.128
			c0.043,0.149,0.008,0.194-0.021,0.104c0.015,0.154-0.121,0.029-0.101,0.145c0.153,0.061,0.163-0.109,0.286-0.031
			c-0.133,0.156-0.36,0.078-0.401,0.35c-0.169,0.021-0.224,0.001-0.32-0.032c0.09,0.103-0.143,0.087-0.163,0.12
			c-0.016,0.136,0.095,0.09,0.079,0.227c0.062-0.023,0.146-0.094,0.176,0.016c-0.154,0.072-0.278-0.01-0.398,0.076
			c0.063,0.043-0.094,0.132-0.127,0.185c0.034,0.003,0.021,0.034,0.007,0.066c0.065,0.007,0.098,0.062,0.152,0.085
			c-0.116,0.059,0.033,0.074,0.043,0.164c-0.016,0.055-0.141,0.008-0.104,0.113c0.06,0.025,0.227,0.089,0.229-0.025
			c-0.149,0.002-0.041-0.229,0.028-0.309c0.095,0.16,0.327-0.021,0.396,0.226c0.025-0.048,0.039-0.106,0.073-0.144
			c0.142,0.045,0.24,0.082,0.168,0.252c0.072-0.014,0.094,0.042,0.123,0.088c-0.033,0.037-0.217,0.06-0.234-0.041
			c-0.07,0.011-0.081,0.072-0.142,0.016c-0.039,0.064-0.067,0.139-0.097,0.213c-0.148-0.053-0.138,0.068-0.257,0.029l0.021,0.233
			c0.076,0.036,0.109-0.11,0.145-0.017c-0.086,0.054-0.136,0.197-0.062,0.277c-0.038,0.045-0.069,0.047-0.113,0.014
			c0.06,0.076,0.102,0.182,0.024,0.268c0.074-0.018,0.124-0.002,0.124,0.086c0.054,0.002,0.059-0.044,0.11-0.045
			c0.004,0.059,0.017,0.104,0.042,0.13c-0.093,0.034-0.093,0.171-0.144,0.32c0.021,0.005,0.036,0.023,0.034,0.063
			c0.104-0.105,0.143,0.094,0.197-0.057c0.065,0.135,0.039,0.17,0.024,0.268c-0.042-0.037-0.109-0.031-0.11,0.047
			c0.11-0.022,0.208-0.037,0.272-0.167c0.037,0.028,0.188,0.078,0.103,0.158c0.057,0.083,0.14,0.083,0.203,0.011
			c-0.013,0.137,0.185,0.072,0.104,0.191c0.107,0.021,0.01-0.152,0.103-0.146c0.164,0.15,0.575,0.063,0.854-0.129
			c-0.015,0.012-0.063-0.007-0.061-0.027c0.256-0.025,0.589,0.247,0.743-0.082c0.074,0.036-0.042,0.105,0.041,0.13
			c-0.003-0.034,0.046-0.048,0.058-0.005c-0.021,0.008-0.029,0.031-0.022,0.068c-0.074-0.009-0.115-0.045-0.108,0.079
			c0.392,0.002,0.874-0.026,1.21-0.032c0.077-0.002,0.146-0.113,0.203,0.011c0.002-0.067-0.045-0.062-0.066-0.094
			c0.048-0.036,0.075-0.091,0.134-0.116c0.056,0.129,0.271,0.049,0.399-0.045c0.352,0.093,0.593-0.17,0.835-0.025
			c0.207-0.133,0.741,0.085,0.965-0.176c0.037,0,0.069,0.002,0.065,0.061c0.119,0.014,0.038-0.166,0.158-0.152
			c0.064-0.018,0.04,0.092,0.094,0.09c0.074-0.088,0.145-0.086,0.103-0.145c0.079,0.025,0.108,0.121,0.188,0.146
			c0.04-0.166,0.169-0.018,0.23,0.008c0.358-0.152,0.87-0.117,1.323-0.382c-0.095-0.017-0.273,0.024-0.156-0.118
			c-0.104,0.172-0.273,0.098-0.351,0.275c-0.104-0.104-0.275-0.018-0.367,0.074c-0.089-0.053-0.096-0.044-0.204-0.012
			c0.003-0.066-0.044-0.062-0.065-0.094c0.151-0.219,0.385-0.09,0.645-0.205c-0.326-0.1-0.5-0.031-0.806,0.021
			c0-0.078-0.02-0.125-0.069-0.128c-0.112,0.229-0.644,0.163-0.776,0.052c-0.195,0.096-0.388,0.265-0.539,0.094
			c0.043,0.08-0.336,0.254-0.368,0.076c-0.005-0.056,0.077-0.028,0.08-0.076c-0.079-0.039-0.213,0.136-0.293-0.037
			c-0.071,0.273-0.486-0.002-0.639,0.273c-0.079-0.033-0.097-0.098-0.076-0.193c-0.119,0.088-0.15,0.07-0.329,0.172
			c-0.157-0.326-0.692,0.105-0.854-0.175c0.341-0.093,0.983-0.143,1.407-0.393c-0.161,0.078-0.354-0.087-0.451,0.117
			c0.009-0.202-0.225-0.055-0.251-0.207c0.235,0.038,0.642-0.204,0.757,0.049c-0.007-0.118-0.107-0.099-0.134-0.187
			c0.215-0.063,0.375,0.207,0.572-0.064c-0.023,0.109-0.006,0.09,0.045,0.164c0.232-0.072,0.517-0.052,0.659-0.039
			c0.098,0.008,0.205,0.115,0.299,0.102c0.085-0.012,0.136-0.088,0.223-0.094c0.064-0.002,0.291,0.089,0.209,0.08
			c0.125,0.016,0.301,0.053,0.396-0.078c0.002,0.15,0.246-0.051,0.241,0.107c0.104-0.022,0.103-0.145,0.249-0.129
			c0.035,0.089,0.086,0.154,0.185,0.148c0.223-0.074,0.429-0.239,0.768-0.152c0-0.039-0.014-0.094,0.02-0.104
			c0.234-0.037,0.424-0.254,0.574-0.029c0.085-0.203,0.229-0.028,0.342-0.037c0.139-0.012,0.44-0.25,0.462-0.018
			c0.038-0.045,0.021-0.143,0.102-0.146c-0.004,0.105,0.08,0.086,0.126,0.121c0.064-0.26,0.379-0.063,0.474-0.188
			c0.274,0.198,0.543-0.146,0.833-0.058c0.006,0.053,0.006,0.117,0.066,0.094c-0.016-0.076-0.074-0.138,0.014-0.169
			c0.127-0.034,0.177,0.048,0.266,0.071c-0.012-0.084-0.064-0.1,0.016-0.139c0.073,0.03,0.391,0.137,0.403-0.01
			c0.369-0.027,0.645,0.004,0.915-0.1c0.054,0.152,0.314-0.006,0.463,0.016c0.085,0.014,0.121,0.123,0.216,0.146
			c0.082,0.02,0.263-0.056,0.4-0.045c0.297,0.023,0.382-0.053,0.688-0.042c0.002,0.063-0.093,0.034-0.076,0.11
			c0.099-0.018,0.098-0.131,0.188-0.156c0.064,0.098,0.347-0.047,0.272,0.14c0.162,0.003,0.128-0.183,0.271-0.198
			c0.069,0.002,0.064,0.109,0.152,0.084c0.019-0.076,0.06-0.126,0.162-0.119c0.016,0.047,0.04,0.053,0.009,0.101
			c0.356-0.198,0.438,0.025,0.78,0.015c-0.015-0.086-0.024-0.166,0.074-0.143c-0.023,0.123,0.227,0.144,0.336,0.199
			c0.01-0.129-0.153-0.006-0.13-0.155c0.104,0.03,0.137,0.09,0.169-0.052c0.039,0.066-0.002,0.127,0.101,0.158
			c-0.014-0.096-0.02-0.183,0.071-0.176c-0.016,0.096,0.048,0.08,0.043,0.162c0.412-0.246,1.015-0.035,1.595-0.24
			c0.265,0.021,0.678,0.138,0.889-0.063c0.338,0.073,0.568-0.046,0.915-0.099c0.067,0.07,0.132,0.107,0.205,0.044
			c-0.045-0.002-0.01-0.054,0.023-0.068c0.05,0.04,0.099,0.083,0.153,0.118c0.015-0.048,0.056-0.069,0.108-0.08
			c0.07,0.159,0.15,0.05,0.254-0.014c-0.008,0.066-0.012,0.139-0.034,0.195c0.175,0.063,0.336,0.146,0.43,0.328
			c0.316-0.068,0.666,0.092,0.887,0.281c0.089,0.016,0.046-0.098,0.136-0.082c-0.005,0.082,0.058,0.069,0.041,0.164
			c0.083-0.056,0.192-0.053,0.235,0.045c0.168-0.137,0.169,0.064,0.34-0.068l0.009,0.101c0.316-0.04,0.546,0.213,0.842,0.084
			c-0.002,0.063,0.037,0.07,0.038,0.132c0.173,0.012,0.246-0.068,0.324,0.068c0.481-0.112,0.896,0.197,1.406-0.074
			c0.019,0.047,0.051,0.078,0.093,0.093c0.188-0.122,0.599-0.105,0.793-0.181c0.04-0.063,0.07-0.14,0.101-0.211
			c0.08-0.008-0.062,0.098,0.063,0.061c0.109-0.041-0.104-0.113-0.01-0.134c0.021,0.043,0.065,0.056,0.119,0.055
			c-0.03-0.144,0.127-0.103,0.222-0.122c0.125-0.25,0.443-0.31,0.564-0.562c0.394,0.015,0.581-0.267,0.764-0.582
			c0.042,0.099,0.105-0.06,0.146,0.019c-0.073-0.127-0.099-0.09-0.108-0.291c0.036-0.007,0.036-0.049,0.084-0.043
			c0.011,0.063-0.027,0.078-0.02,0.137c0.109-0.139,0.126-0.139,0.217-0.19c-0.173-0.06,0.125-0.219,0.16-0.184
			c-0.071-0.101-0.209-0.034-0.287,0.026c0.002-0.049-0.019-0.121,0.019-0.135c0.18-0.022,0.336,0.063,0.551,0.013
			c0.052-0.083-0.066-0.181,0.103-0.179c-0.005,0.136,0.129,0.15,0.017,0.234c0.133,0.027,0.106-0.104,0.225-0.09l0.007,0.1
			c0.091,0.018,0.049-0.096,0.14-0.08c0.13,0.088,0.257,0.184,0.367,0.301c-0.157-0.049-0.303,0.105-0.406-0.028
			c0.062-0.032,0.153-0.034,0.164-0.116c-0.146-0.082-0.176,0.186-0.315,0.031c-0.229,0.193-0.506-0.076-0.622,0.162
			c0.238,0.011,0.46,0.387,0.53,0.15c-0.006,0.074-0.154,0.047-0.146-0.02c0.021-0.051,0.035-0.111,0.105-0.112
			c0.111,0.136,0.11,0.015,0.29,0.005c-0.076,0.103,0.158,0.104,0.016,0.201c0.068,0.059,0.247-0.117,0.264,0.074
			c-0.058,0.025-0.19-0.022-0.197,0.055c0.096,0-0.103,0.113,0.01,0.133c0.131-0.144,0.187,0.117,0.317,0.002
			c0.002,0.043-0.033,0.051-0.021,0.104c0.087-0.046,0.074-0.023,0.145,0.02c0.022-0.129-0.11-0.042-0.098-0.159
			c0.313-0.04,0.395-0.099,0.556,0.112c-0.031,0.009-0.081,0.004-0.082,0.043c0.036,0.01,0.062,0.037,0.063,0.096
			c0.137,0.01,0.185-0.066,0.25-0.128c0.36,0.112,0.837,0.318,1.369,0.169c0.004,0.066-0.075,0.051-0.048,0.141
			c0.14-0.037,0.245-0.197,0.121-0.314c0.068-0.021,0.067,0.053,0.146,0.019l-0.015-0.202c0.127,0.002,0.178-0.073,0.188-0.187
			c-0.064-0.062-0.017-0.271-0.107-0.294c-0.072,0.107-0.126,0.111-0.228,0.057c-0.001,0.092,0.059,0.244-0.071,0.209
			c0.07-0.186,0.015-0.12-0.098-0.158c0.017-0.15,0.169-0.24,0.279-0.129l-0.009-0.134c-0.17,0.025-0.248,0.048-0.364,0.171
			c0.019-0.086,0.093-0.116,0.133-0.182c-0.274-0.037-1.01,0.111-0.979-0.342c-0.121-0.055-0.253-0.113-0.407-0.025
			c-0.017,0.107,0.08,0.061,0.097,0.124c-0.124,0.077-0.238,0.054-0.298-0.104c0.018,0.126-0.169,0.146-0.195,0.053
			c-0.014,0.123-0.15,0.142-0.199,0.053c0.022-0.01,0.031-0.031,0.024-0.07c0.043-0.01,0.106,0.002,0.111-0.044
			c-0.088-0.021-0.108-0.043-0.122-0.089c-0.05,0.051-0.096,0.006-0.136,0.114c0.053,0.015,0.11-0.11,0.143-0.015
			c-0.042,0.072-0.063,0.165-0.159,0.186c-0.175-0.23-0.073-0.321,0.257-0.431c0.074,0.089,0.12,0.131,0.237,0.078
			c0.03-0.087-0.095-0.13-0.013-0.167c0.085-0.017,0.106,0.113,0.174,0.017c0.034-0.132-0.127,0.005-0.096-0.126
			c0.095-0.16,0.208-0.025,0.338-0.135c0.007,0.039,0,0.096,0.035,0.098c0.146-0.133,0.322-0.07,0.597-0.127
			c-0.016,0.109,0.098,0.037,0.096,0.127c0.151-0.107,0.333-0.043,0.399-0.074c-0.229,0.193-0.594,0.203-0.804,0.079
			c0.064,0.12,0.231,0.101,0.304,0.206c0.091,0.017,0.049-0.097,0.139-0.081c0.055,0.108,0.138,0.155,0.019,0.235
			c0.112-0.014,0.139-0.002,0.218-0.157c-0.055-0.027-0.088,0.109-0.113,0.011c0.036-0.148,0.201-0.001,0.289,0.005
			c-0.016-0.103-0.128-0.067-0.156-0.153c0.12,0.018,0.122,0.003,0.258-0.024c-0.002-0.059-0.014-0.104-0.038-0.131
			c0.174-0.12,0.439-0.052,0.505-0.218c-0.036-0.074-0.119-0.082-0.155-0.153c0.14-0.03,0.321,0.173,0.473,0.155
			c-0.039,0.057-0.146,0.044-0.227,0.057c0.103,0.176,0.192,0.039,0.257-0.025c0.056,0.051,0.053,0.193,0.067,0.127
			c0.101-0.014-0.07-0.104,0.02-0.104l0.059-0.004c-0.03,0.038,0.002,0.153,0.042,0.197c0.005-0.068,0.075-0.074,0.078-0.143
			c-0.072,0.011-0.086,0.074-0.117-0.022c0.12-0.06,0.184,0.008,0.31-0.097c-0.005,0.119,0.146,0.213,0.211,0.113
			c-0.07,0.012-0.139,0.021-0.148-0.053c0.114,0.02,0.262-0.115,0.36-0.205c0.004-0.125-0.071-0.146-0.129-0.188
			c-0.006,0.106,0.105,0.078,0.041,0.164c-0.149-0.026-0.24-0.066-0.37,0.069c-0.082-0.062-0.057-0.33-0.137-0.289
			c0.059-0.014-0.002-0.148,0.046-0.172c-0.089,0.024-0.109-0.074-0.067-0.129c-0.087,0.047-0.077-0.002-0.142,0.048
			c-0.06-0.14-0.123-0.273-0.252-0.313c0.002,0.084,0.135,0.179,0.073,0.228c-0.077,0.008-0.069-0.099-0.15-0.084
			c-0.025,0.178,0.335,0.152,0.282,0.307c-0.095,0.01-0.117-0.082-0.235-0.043c0.013-0.141-0.17-0.129-0.248-0.245
			c0.049-0.025,0.126,0.086,0.144-0.015c-0.113-0.046,0.058-0.061,0.051-0.106c0-0.021-0.073-0.104-0.039-0.13
			c0.212,0.006,0.458-0.147,0.588-0.26c-0.113-0.026-0.415,0.217-0.513,0.117c-0.032,0.004-0.026-0.258-0.018-0.268
			c-0.065,0.135-0.104-0.074-0.179-0.051c0.003,0.054,0.014,0.117-0.05,0.107l-0.009-0.135c0.155-0.064,0.304-0.021,0.37-0.07
			c-0.033-0.003-0.047-0.033-0.063-0.061c0.088-0.043,0.099,0.051,0.168-0.084c0.076,0.309,0.383,0.078,0.54,0.283
			c-0.127,0.031-0.069,0.177-0.079,0.109c0.035-0.068,0.214-0.029,0.208,0.08c-0.11,0.055-0.077-0.091-0.151-0.086
			c0.013,0.139,0.104,0.168,0.183,0.117c-0.031-0.125,0.02-0.166,0.104-0.178c0.003,0.105,0.084,0.104,0.072,0.228
			c0.218-0.048,0.146,0.087,0.212,0.114c0.135,0.016-0.047-0.084,0.05-0.105c0.204-0.014,0.306,0.188,0.471,0.121
			c0.006,0.059,0.002,0.105-0.02,0.138c0.102-0.028,0.218,0.112,0.185,0.149c-0.067,0.053-0.081-0.148-0.117-0.021
			c0.038,0.01,0.062,0.038,0.063,0.094c0.091-0.063,0.14-0.043,0.178,0.051c0.034-0.095,0.268-0.031,0.349,0.033
			c0.013,0.114-0.122,0.089-0.131,0.182c0.062-0.013,0.093,0.018,0.094,0.092c-0.034,0.008-0.082,0.002-0.085,0.041
			c0.071-0.002,0.14-0.008,0.17-0.049c-0.126-0.271,0.171-0.227,0.205-0.358c0.086,0.06,0.123,0.048,0.232,0.011
			c-0.053-0.1-0.013-0.165,0.071-0.209c-0.027-0.237,0.004-0.465,0.141-0.451c-0.033-0.003-0.035-0.051-0.036-0.098
			c-0.051,0.004-0.16,0.105-0.2,0.02c0.05-0.068,0.053,0.014,0.144-0.016c-0.044-0.104,0.09-0.033,0.047-0.138
			c-0.091,0.003-0.172-0.009-0.182-0.118c-0.17,0.065-0.21,0.186-0.392,0.175c-0.003-0.034,0.021-0.044,0.024-0.07
			c-0.136,0.046-0.286,0.019-0.421,0.175c-0.002-0.033-0.025-0.035-0.032-0.063c0.039-0.177,0.076-0.06,0.099-0.212
			c0.084,0.124,0.086-0.074,0.151,0.086c-0.002-0.063,0.094-0.031,0.079-0.107c-0.053-0.029-0.159-0.045-0.096-0.126
			c-0.118,0.003-0.173,0.09-0.231-0.011c0.093,0.02,0.105-0.039,0.137-0.08c0.039,0.082,0.177,0.063,0.059-0.007
			c0.12,0.019,0.175,0.012,0.229-0.022c-0.032,0.014-0.105-0.087-0.034-0.099c0.088,0.001,0.095,0.112,0.153,0.153
			c0.051-0.064-0.045-0.1,0.05-0.139c-0.078,0.104,0.073,0.055,0.146,0.053c-0.029-0.148,0.043-0.082,0.11-0.079
			c0.032-0.234,0.088-0.559,0.269-0.7c0.071,0.027,0.061,0.006,0.173,0.018c0.049-0.025-0.013-0.158,0.046-0.173
			c0.002,0.083,0.023,0.138,0.07,0.161c0.037-0.023-0.007-0.129,0.047-0.14c0.117,0.09,0.024,0.242,0.165,0.287
			c0.007-0.081-0.057-0.067-0.04-0.163c0.183,0.016,0.28-0.053,0.435,0.024c-0.021,0.173,0.08,0.184,0.16,0.219
			c-0.035,0.239-0.065,0.089,0.048,0.266c-0.043,0.009-0.107-0.001-0.113,0.045c0.065,0.021,0.108,0.073,0.101,0.192
			c-0.043,0.01-0.107-0.002-0.112,0.043c0.145-0.024,0.05,0.274,0.191,0.252c-0.064-0.115,0.016-0.32,0.112-0.448
			c-0.034-0.002-0.08,0.013-0.089-0.026c0.187-0.044,0.142-0.316,0.384-0.306c0.041,0.017,0.012,0.128,0.066,0.128
			c0.031-0.187,0.142-0.295,0.26-0.395c0.069,0.039,0.103,0.127,0.157,0.186c-0.031,0.02-0.062,0.042-0.08,0.074
			c0.153-0.048,0.22,0.101,0.129,0.189c0.126,0.001,0.14-0.109,0.251-0.124c-0.019,0.108,0.079,0.062,0.095,0.126
			c-0.036,0.165-0.205,0.067-0.25,0.125c0.101,0.203-0.348,0.133-0.414,0.275c0.06,0.259,0.182-0.038,0.345-0.033
			c0.069,0.012,0.128,0.117,0.072,0.194c0.171-0.073,0.305-0.183,0.458-0.044c0.067-0.051-0.06-0.096,0.019-0.137
			c0.035,0.013,0.067,0.029,0.092,0.059c-0.051,0.002-0.072,0.033-0.082,0.075c0.079,0.002,0.166,0.019,0.212,0.147
			c-0.019-0.064,0.124-0.12,0.141-0.047c-0.037,0.004-0.021,0.061-0.051,0.072c-0.163,0.006-0.3,0.037-0.304,0.197
			c0.126,0.156,0.244,0.324,0.405,0.434c-0.131,0.027-0.181-0.061-0.181-0.117c-0.03,0.107-0.142-0.059-0.139,0.081
			c0.075,0.066,0.193,0.075,0.217,0.215c0.033,0.104-0.069,0.076-0.076,0.141c0.13,0.062,0.313,0.177,0.283,0.344
			c0.091,0.015,0.049-0.098,0.139-0.082c0.049,0.114-0.065,0.224,0.02,0.269c0.044-0.07,0.056-0.174,0.13-0.215
			c0.01,0.048,0.051,0.053,0.064,0.095c-0.017,0.069-0.173-0.003-0.138,0.114c0.069,0.029,0.109,0.095,0.208,0.082
			c-0.022-0.095-0.118-0.16,0.016-0.205c0.058,0.055,0.099,0.135,0.157,0.188c-0.084-0.184-0.084-0.368-0.009-0.539
			c-0.087,0.021-0.067-0.104-0.099-0.158c0.053-0.021,0.178,0.029,0.14-0.08c-0.107-0.02-0.077,0.004-0.152-0.087
			c0.041,0.185-0.133,0.417-0.24,0.258c0.037-0.044,0.056-0.132,0.017-0.169c-0.085,0-0.097,0.145-0.144,0.014
			c0.138-0.021-0.016-0.104-0.038-0.13l-0.012-0.167c0.108,0.002,0.238-0.137,0.314-0.065c-0.009,0.077-0.159,0.01-0.138,0.114
			c0.105,0.083,0.168-0.006,0.266,0.075c0.04-0.022,0.065-0.06,0.079-0.109c-0.027-0.05-0.095-0.04-0.098-0.125
			c0.038-0.001,0.044,0.039,0.09,0.025l-0.004-0.067c-0.009-0.024-0.007-0.064-0.033-0.065c-0.18,0.042-0.348,0.036-0.413-0.093
			c0.132,0.08,0.097-0.007,0.259-0.025l0.007,0.102c0.087-0.057,0.095-0.018,0.202-0.021c-0.093-0.088-0.159-0.068-0.161-0.22
			c-0.096,0.107-0.269,0.073-0.399,0.072c0.163,0.023,0.042-0.252,0.042-0.24c-0.127,0.054-0.052,0.299-0.222,0.156
			c0.075-0.02,0.099-0.09,0.072-0.209c-0.095,0.033-0.099-0.06-0.15-0.086c0.073-0.012,0.097-0.07,0.137-0.115
			c-0.109-0.059,0.13-0.098,0.017-0.169c-0.08,0.067-0.094,0.054-0.168,0.083c-0.006-0.155-0.235-0.203-0.109-0.326
			c0.086,0.043,0.117-0.023,0.233,0.011c0.013-0.094-0.063-0.062-0.068-0.128c0.089-0.049,0.191-0.08,0.248-0.158
			c-0.035-0.018-0.073-0.211-0.042-0.199c0.073,0.172,0.251-0.02,0.35,0.033c-0.093-0.006-0.067-0.139-0.014-0.166
			c-0.074,0.006-0.178,0.047-0.149-0.088c0.107,0.051,0.224-0.011,0.313-0.063c0.032,0.079,0.078,0.139,0.077,0.263
			c0.053-0.011,0.095-0.032,0.109-0.079c-0.124-0.03-0.009-0.166-0.049-0.298c0.101-0.004,0.086-0.122,0.161-0.151
			c0.007,0.162,0.108,0.271,0.027,0.368c0.104,0.002,0.141,0.037,0.229-0.021c0.042,0.186,0.126,0.314,0.257,0.378
			c0.05-0.063-0.047-0.099,0.048-0.139c0.034,0.063,0.131,0.04,0.127,0.156c-0.071,0.046-0.131-0.091-0.111,0.044
			c0.168,0.011,0.23,0.111,0.326,0.138c-0.094,0.062-0.275,0.3-0.394,0.14c-0.005-0.068,0.074-0.051,0.047-0.141
			c-0.094-0.029-0.124,0.033-0.231-0.011c-0.021,0.041-0.032,0.093-0.017,0.171c0.034,0.001,0.081-0.014,0.089,0.025
			c0.014,0.148-0.102,0.168-0.22,0.189c0.162,0.09,0.172,0.354,0.154,0.521c0.07,0.015,0.134,0.037,0.231,0.014
			c-0.101,0.136,0.09,0.061,0.124,0.121c-0.088,0.074-0.029,0.092,0.038,0.133c0.004,0.086-0.108,0.058-0.104,0.145
			c0.053,0.048,0.139,0.053,0.181,0.116c-0.032-0.163-0.036-0.176,0.007-0.304c-0.106-0.014-0.086-0.223-0.157-0.186
			c-0.02-0.093,0.105-0.043,0.107-0.113c-0.043-0.012-0.074-0.043-0.119-0.056c-0.001,0.052,0.02,0.122-0.019,0.136
			c-0.069-0.1-0.148-0.186-0.196-0.317c0.193-0.058,0.173,0.179,0.355,0.134c-0.049,0.066,0.021,0.098,0.041,0.166
			c0.101,0.016,0.027-0.14,0.137-0.115c0.085,0.023,0.017,0.123,0.066,0.129c0.059-0.076-0.032-0.107,0.017-0.17
			c-0.087,0.023-0.13-0.018-0.125-0.123c0.129-0.051,0.246,0.254,0.322,0.035l-0.145,0.016c0.008-0.108-0.077-0.131,0.018-0.172
			c0.064,0.133,0.083-0.084,0.164-0.116c-0.082-0.101-0.108-0.063-0.186-0.184c0.079,0.017-0.032-0.155,0.048-0.14
			c0.047,0.012,0.064,0.248,0.123,0.123c-0.079-0.063-0.025-0.14-0.069-0.195c-0.093-0.009-0.113,0.09-0.147-0.02
			c0.067-0.119,0.242,0.035,0.258-0.025c-0.052-0.062-0.111-0.115-0.131-0.223c0.106-0.02,0.137-0.115,0.251-0.127
			c-0.047,0.188,0.16,0.026,0.183,0.117c-0.021,0.139-0.117,0.008-0.229,0.057c0.05,0.098,0.069,0.088,0.015,0.201
			c0.116-0.099,0.178,0.023,0.127,0.156c0.142-0.178,0.284,0.067,0.52-0.018c-0.03-0.188,0.086-0.058,0.113-0.01
			c-0.003-0.06-0.091-0.188-0.015-0.235c0.036-0.001,0.041,0.038,0.087,0.026c-0.002-0.129,0.098-0.154,0.096-0.279
			c-0.022-0.006-0.057,0.004-0.059-0.029c0.093,0.032,0.218,0.018,0.293,0.073c-0.055,0.169,0.016,0.472,0.152,0.524
			c-0.042,0.094-0.242,0.196-0.151,0.318c0.023-0.063,0.046-0.122,0.137-0.114c0.012,0.058-0.07,0.175,0.014,0.199
			c0.13-0.108,0.028-0.261,0.118-0.381c-0.053-0.026-0.104-0.054-0.098-0.159c0.09,0.016,0.102-0.045,0.169-0.049
			c0.061-0.221,0.037-0.525,0.153-0.691c-0.102-0.009-0.083,0.168-0.167,0.085c-0.005-0.089,0.085-0.081,0.074-0.177
			c-0.045,0.002-0.099,0.016-0.089-0.057c0.031-0.01,0.08-0.004,0.082-0.043c-0.033-0.088-0.108-0.12-0.131-0.223
			c0.216-0.027,0.163-0.271,0.009-0.305c0.025-0.137,0.094-0.184,0.178-0.32c0.108,0.137,0.013,0.195,0.024,0.334
			c0.224,0.061,0.133-0.439,0.033-0.34c0.034-0.087,0.096-0.068,0.17-0.05c-0.032-0.104,0.092-0.056,0.076-0.144
			c-0.064,0.018-0.107,0.004-0.119-0.055c0.036-0.037,0.104-0.043,0.14-0.08c-0.062-0.236-0.023-0.288-0.04-0.568
			c-0.059-0.044-0.152-0.035-0.183-0.118c0.046-0.075,0.059-0.104,0.016-0.204c0.05-0.002,0.089-0.016,0.112-0.044
			c0.022-0.142-0.07-0.125-0.072-0.229c0.081-0.005,0.186-0.036,0.23,0.011c-0.012-0.063,0.025-0.076,0.019-0.135
			c-0.091-0.037-0.151,0.112-0.2,0.018c-0.013-0.1,0.095-0.128,0.139-0.08c0.043-0.197,0.415-0.408,0.104-0.583
			c0.038-0.015,0.052-0.054,0.113-0.046c-0.052-0.146-0.029-0.176-0.105-0.259c0.041-0.011,0.045-0.06,0.082-0.074
			c0.078-0.036,0.077,0.038,0.146,0.019c0.122-0.248-0.066-0.7-0.321-0.441c-0.007-0.101,0.015-0.172,0.072-0.209
			c0.106,0.028,0.193,0.078,0.324,0.07c0.241,0.297,0.433,0.684,0.156,0.996c-0.103,0.114-0.21,0.031-0.244,0.227
			c0.129-0.023,0.168-0.066,0.26,0.007c-0.055-0.271,0.356-0.083,0.447-0.212c0.048,0.035,0.044,0.137,0.126,0.124
			c0.058-0.026,0.088-0.08,0.135-0.114c0.117,0.092,0.297-0.012,0.551,0.014c0.002,0.032-0.02,0.041-0.024,0.07
			c0.297-0.097,0.599,0.082,0.857-0.151c0.117,0.009,0.177,0.101,0.322,0.069c0.003,0.104,0.045,0.158,0.073,0.23
			C57.041,19.921,56.794,19.003,56.226,19.007z M48.949,0.64c0.016,0.167-0.08,0.097-0.076,0.234
			c-0.051-0.006-0.071-0.113-0.07-0.28C48.867,0.558,48.913,0.585,48.949,0.64z M44.234,7.456c0.084-0.011,0.095,0.208,0.157,0.265
			c0.024,0.228-0.131,0.08-0.135,0.246C44.209,7.965,44.274,7.657,44.234,7.456z M37.327,3.314c-0.2-0.361,0.12-0.543,0.209-0.481
			c-0.032-0.023-0.007,0.324,0.032,0.066c0.047,0.057-0.004,0.113,0.041,0.288C37.475,3.191,37.371,2.984,37.327,3.314z
			 M37.923,3.053c0.173-0.068,0.38-0.366,0.539-0.249C38.382,3.169,38.053,3.348,37.923,3.053z M38.715,2.609
			c-0.005-0.186,0.1-0.193,0.14-0.099C38.835,2.641,38.763,2.717,38.715,2.609z M16.636,5.097c0.009-0.228-0.045-0.259-0.053-0.431
			l0.114-0.026c-0.013,0.241,0.098,0.083,0.126,0.193C16.729,4.834,16.79,5.089,16.636,5.097z M16.967,4.803
			c-0.017-0.228,0.061-0.266,0.128-0.323C17.095,4.676,17.032,4.744,16.967,4.803z M19.091,4.934
			c-0.034-0.423,0.081-0.207,0.155-0.33C19.271,4.871,19.154,4.849,19.091,4.934z M14.006,11.645
			c0.005-0.271,0.119-0.237,0.168-0.111C14.18,11.697,14.054,11.592,14.006,11.645z M13.896,10.709
			c0.075-0.02,0.184,0.028,0.131-0.25c0.086-0.07,0.109,0.052,0.176,0.036c-0.009,0.227,0.045,0.259,0.053,0.431
			C14.13,10.848,13.959,11.28,13.896,10.709z M11.675,6.015c0.003-0.333,0.083-0.134,0.192-0.189
			C11.888,6.193,11.786,5.916,11.675,6.015z M11.942,7.727c0.022-0.234,0.128-0.3,0.242-0.349c0.027,0.25,0.012,0.412,0.003,0.59
			C12.061,7.877,12.054,7.729,11.942,7.727z M7.495,7.147c0.037,0.277-0.122,0.312-0.114,0.026L7.495,7.147z M7.304,6.304
			c0.028,0.08,0.049,0.188,0.049,0.358C7.237,6.774,7.232,6.534,7.145,6.56C7.177,6.435,7.232,6.354,7.304,6.304z M6.531,6.992
			C6.615,6.917,6.64,7.044,6.706,7.026C6.679,7.229,6.621,7.37,6.56,7.503C6.597,7.834,6.648,7.37,6.678,7.55
			c0.038,0.272-0.131,0.121-0.191,0.189C6.478,7.424,6.331,7.548,6.314,7.261C6.425,7.249,6.544,7.254,6.531,6.992z M6.164,11.868
			c0.015,0.188,0.114,0.095,0.155,0.188c-0.009,0.24-0.06,0.399-0.148,0.475c-0.162-0.433-0.069-0.726-0.238-1.2
			c0.133,0.058,0.046-0.336,0.188-0.263c-0.036,0.237-0.041,0.398,0.031,0.583c0.091-0.096,0.115-0.249,0.201-0.044
			C6.34,11.937,6.229,11.724,6.164,11.868z M3.248,13.841c0.058-0.202,0.136-0.283,0.225-0.123
			C3.423,13.998,3.367,13.791,3.248,13.841z M3.902,13.622c-0.036-0.013-0.087,0.233-0.018,0.226
			c-0.048,0.177-0.203-0.025-0.265-0.087c-0.01-0.334,0.188-0.099,0.229-0.051c-0.04-0.24-0.142-0.183-0.052-0.431
			c-0.121-0.133-0.298,0.221-0.335-0.297c0.187-0.074,0.405-0.269,0.559,0.172c0.053,0.056,0.153-0.036,0.153,0.188
			C4.1,13.357,4,13.448,4.021,13.154c-0.012,0.17-0.113,0.157-0.159,0.257c0.126,0.153,0.292,0.272,0.404-0.015
			C4.345,13.823,4.011,13.875,3.902,13.622z M4.292,14.422c0.066-0.037,0.111-0.012,0.147,0.042
			C4.447,14.689,4.295,14.651,4.292,14.422z M7.225,13.259c-0.222-0.179-0.438,0.271-0.669-0.073
			c-0.013-0.245-0.027-0.486-0.14-0.413c0.039-0.26-0.022-0.349-0.035-0.657c0.085,0.039,0.119,0.246,0.192,0.328
			c0.103-0.309,0.263-0.087,0.302-0.288c0.083,0.047,0.11,0.272,0.142,0.485c0.095-0.191,0.162-0.158,0.213,0.174
			c-0.032,0.104-0.102,0.122-0.118-0.047C7.036,12.956,7.252,12.934,7.225,13.259z M5.411,14.766
			c0.066-0.044,0.069,0.119,0.146,0.042C5.567,15.026,5.397,15.039,5.411,14.766z M5.602,15.093
			C5.623,15.657,5.389,15.178,5.602,15.093L5.602,15.093z M7.937,12.513c0.009,0.084,0.055,0.05,0.09,0.054
			c-0.17,0.731-0.327,0.048-0.671,0.441c-0.037-0.164-0.07-0.346-0.089-0.568c-0.026,0.052-0.021,0.173-0.077,0.163
			c0.068-0.389-0.105-0.375-0.127-0.711c0.349,0.147,0.852-0.355,1.033,0.362c0.08-0.115,0.141-0.105,0.203,0.031
			c0.084-0.066-0.035-0.151-0.015-0.293c0.104,0.095,0.204,0.203,0.257,0.46C8.242,12.463,8.145,12.613,7.937,12.513z M6.519,19.688
			c-0.018-0.167,0.078-0.1,0.074-0.236c0.051,0.004,0.072,0.11,0.074,0.277C6.602,19.769,6.556,19.743,6.519,19.688z M10.071,25.476
			c-0.084,0.014-0.096-0.203-0.159-0.26c-0.025-0.227,0.128-0.084,0.132-0.25C10.092,24.966,10.03,25.277,10.071,25.476z
			 M16.98,29.429c0.202,0.357-0.115,0.545-0.204,0.488c0.033,0.022,0.005-0.324-0.032-0.068c-0.046-0.053,0.001-0.111-0.045-0.285
			C16.835,29.556,16.939,29.76,16.98,29.429z M16.39,29.705c-0.17,0.071-0.375,0.376-0.533,0.263
			C15.934,29.601,16.261,29.414,16.39,29.705z M15.608,30.171c0.007,0.184-0.098,0.195-0.14,0.102
			C15.487,30.142,15.559,30.065,15.608,30.171z M42.625,25.077c-0.01,0.227,0.041,0.259,0.049,0.432l-0.115,0.021
			c0.017-0.241-0.097-0.086-0.123-0.196C42.53,25.337,42.473,25.081,42.625,25.077z M42.293,25.36
			c0.015,0.229-0.063,0.265-0.131,0.319C42.163,25.483,42.228,25.419,42.293,25.36z M40.18,25.174
			c0.029,0.425-0.083,0.205-0.158,0.325C39.999,25.233,40.115,25.258,40.18,25.174z M45.309,18.604
			c-0.007,0.273-0.123,0.234-0.171,0.105C45.135,18.549,45.259,18.657,45.309,18.604z M45.406,19.544
			c-0.075,0.016-0.183-0.035-0.134,0.246c-0.084,0.068-0.106-0.055-0.174-0.041c0.011-0.228-0.042-0.26-0.048-0.432
			C45.175,19.399,45.352,18.972,45.406,19.544z M49.401,20.484c-0.007,0.331-0.085,0.13-0.193,0.183
			C49.192,20.301,49.288,20.579,49.401,20.484z M49.151,18.765c-0.022,0.234-0.129,0.296-0.244,0.34
			c-0.023-0.248-0.007-0.41,0.003-0.59C49.037,18.612,49.043,18.76,49.151,18.765z M48.707,1.055c-0.071,0.024-0.095-0.1-0.15-0.12
			C48.566,0.659,48.708,0.819,48.707,1.055z M48.088,0.14c-0.016,0.171-0.176,0.103-0.15-0.119C48.026-0.06,48.03,0.119,48.088,0.14
			z M46.939,10.335c-0.092,0.002-0.126-0.166-0.186-0.259C46.778,9.715,47,10.179,46.939,10.335z M46.761,10.884
			c0.034-0.018,0.018-0.136,0.019-0.225c0.071-0.024,0.095,0.099,0.15,0.12c0.009,0.273-0.288,0.091-0.194,0.183
			c-0.019,0.185-0.117-0.073-0.124-0.198C46.635,10.684,46.755,10.67,46.761,10.884z M46.671,10.166
			c0.016,0.12-0.017,0.141-0.05,0.155c0.023,0.064,0.057,0.101,0.092,0.13c0.005,0.186-0.099,0.193-0.14,0.1
			C46.612,10.438,46.579,10.166,46.671,10.166z M46.358,9.633c0.021-0.158,0.204-0.139,0.178,0.115
			C46.44,9.825,46.413,9.689,46.358,9.633z M47.852,2.024c0.115-0.033-0.003,0.113,0.068,0.208c0.096-0.107,0.267-0.078,0.312-0.134
			c0.039,0.216-0.059,0.141-0.107,0.168c0.032,0.29,0.155,0.293,0.299,0.238c-0.012,0.242-0.084,0.309-0.066,0.455
			c-0.089-0.078-0.021-0.163-0.175-0.041c0.002-0.151,0.07-0.158,0.073-0.308c-0.128,0.251-0.278,0.385-0.453,0.232
			c0.126-0.107,0.237-0.247,0.329-0.43c-0.104-0.15-0.43,0.322-0.498-0.127C47.704,2.098,47.835,2.376,47.852,2.024z M48.345,3.33
			c-0.089,0.05-0.131-0.038-0.128-0.271l0.114-0.021L48.345,3.33z M47.409,2.475c0.084,0.034,0.129,0.345,0.176,0.04
			c0.098-0.048,0.097,0.203,0.157,0.265c-0.075,0.086-0.122,0.229-0.22,0.263c0.04-0.609-0.189,0.095-0.218-0.329
			C47.428,2.747,47.478,2.8,47.409,2.475z M35.442,4.804c0.035,0.201-0.031,0.197-0.011,0.37
			C35.347,5.184,35.335,4.752,35.442,4.804z M41.861,18.966l0.01,0.216c-0.067,0.044-0.068-0.121-0.146-0.044
			C41.743,19.024,41.789,18.967,41.861,18.966z M41.943,18.874l0.143-0.025c-0.009,0.32-0.12,0.127-0.183,0.403
			C41.928,19.149,41.919,18.978,41.943,18.874z M43.749,11.523c0.009,0.06-0.008,0.07-0.024,0.077l0.004,0.146
			c-0.078-0.061-0.108-0.272-0.187-0.333c-0.006-0.107,0.11-0.254-0.01-0.219C43.768,10.618,43.741,11.565,43.749,11.523z
			 M43.475,10.542c-0.085,0.14-0.131-0.249-0.148-0.044c-0.086-0.048,0.063-0.121,0.018-0.297
			C43.396,10.285,43.463,10.329,43.475,10.542z M43.635,4.403c0.118-0.171-0.092-0.629,0.118-0.61
			C43.769,4.115,43.775,4.414,43.635,4.403z M43.791,5.331c0.015-0.101,0.057-0.147,0.108-0.167l0.014,0.292
			C43.825,5.563,43.881,5.224,43.791,5.331z M44.284,2.736c0.021,0.138-0.074,0.331,0.042,0.286
			c-0.005,0.102-0.068,0.074-0.112,0.096c0.049-0.15-0.004-0.183-0.016-0.365L44.284,2.736z M44.223,3.264
			c-0.049,0.185-0.163,0.231-0.183,0.475c-0.062-0.048,0-0.389,0.006-0.515C44.13,3.153,44.152,3.278,44.223,3.264z M43.92,2.363
			c0.057-0.01,0.044,0.193,0.122,0.123c-0.051,0.092-0.094,0.202-0.163,0.251C43.848,2.517,43.975,2.632,43.92,2.363z M44.117,4.167
			c0.032-0.033,0.066-0.144,0.021-0.153c-0.077-0.142,0.092,0.004,0.12,0.053c-0.042,0.452-0.027,0.68-0.104,0.975
			c-0.121-0.177-0.177-0.558-0.293-0.756C43.967,4.132,44.003,4.01,44.117,4.167z M43.568,2.281c0.045,0.098,0.216-0.146,0.25-0.267
			c0.015,0.4-0.209,0.595-0.294,0.571C43.52,2.397,43.653,2.456,43.568,2.281z M43.738,9.315c-0.11,0.054-0.1,0.1-0.176-0.04
			C43.554,9.055,43.756,9.025,43.738,9.315z M43.432,3.117c0.093,0.176-0.067,0.383-0.188,0.33
			C43.225,3.164,43.418,3.329,43.432,3.117z M43.059,3.188c0.005,0.186-0.09,0.163-0.165,0.179
			C42.922,3.168,42.977,3.125,43.059,3.188z M42.825,2.495c0.006,0.201,0.055,0.14,0.013,0.293l0.058-0.011
			C42.952,3.042,42.597,2.551,42.825,2.495z M43.404,3.784c0.089-0.106,0.031,0.234,0.122,0.125
			c-0.032,0.371-0.064,0.527-0.106,0.904c-0.156-0.256-0.28,0.215-0.392,0.293c-0.089-0.005-0.113-0.206-0.236-0.102
			c-0.01-0.354,0.082-0.084,0.162-0.252c-0.056-0.5-0.202-0.078-0.3-0.237C42.888,3.98,43.256,4.42,43.404,3.784z M42.519,2.773
			c-0.06,0.191-0.059-0.099-0.147-0.045C42.364,2.512,42.535,2.5,42.519,2.773z M41.462,3.121c0.035,0.277-0.125,0.308-0.115,0.021
			L41.462,3.121z M41.089,3.191c-0.027-0.353,0.126-0.142,0.197-0.112C41.282,3.333,41.152,3.218,41.089,3.191z M40.381,4.209
			c0.077-0.399,0.346-0.094,0.536-0.322C40.869,4.344,40.534,4.323,40.381,4.209z M20.808,2.265c0.086-0.012,0.1,0.42-0.009,0.372
			C20.765,2.437,20.829,2.438,20.808,2.265z M17.459,11.188l-0.012-0.218c0.065-0.045,0.068,0.119,0.146,0.042
			C17.575,11.125,17.53,11.185,17.459,11.188z M17.376,11.281l-0.142,0.03c0.005-0.32,0.118-0.131,0.179-0.409
			C17.391,11.006,17.399,11.178,17.376,11.281z M25.763,4.976C26,4.877,26.244,4.87,26.488,4.856
			c0.005,0.083,0.02,0.137,0.036,0.187c-0.109,0.227-0.381,0.246-0.468-0.054c-0.155,0.492-0.577,0.053-0.828,0.234
			c-0.027-0.284-0.085-0.234-0.086,0.017c-0.033-0.123-0.028-0.362-0.079-0.426c-0.062,0.482-0.392-0.142-0.475,0.388
			c-0.037-0.091-0.078-0.143-0.121-0.174C24.907,4.722,25.324,4.636,25.763,4.976z M22.673,6.3c0.059,0.243-0.173,0.387-0.169,0.112
			C22.613,6.518,22.572,6.348,22.673,6.3z M22.063,2.524c-0.019,0.177,0.016,0.464-0.091,0.461
			C21.95,2.816,21.966,2.54,22.063,2.524z M17.834,9.559c0.09,0.125-0.101,0.222-0.127,0.321
			C17.616,9.755,17.806,9.656,17.834,9.559z M16.984,8.341c0.09-0.001,0.068,0.352,0.188,0.254
			c-0.036,0.122-0.104,0.178-0.192,0.188C16.948,8.567,16.995,8.512,16.984,8.341z M16.662,8.263
			c0.074-0.071,0.152-0.152,0.226-0.123c-0.013,0.063-0.023,0.125-0.018,0.225C16.781,8.393,16.729,8.308,16.662,8.263z
			 M16.663,10.402c0.067,0.01,0.125,0.116,0.171-0.038c-0.036-0.114-0.135-0.022-0.154-0.188c0.063-0.109,0.139-0.055,0.258-0.055
			c-0.084-0.134-0.104-0.469-0.254-0.389c-0.039-0.211,0.058-0.141,0.106-0.17c0.004-0.234-0.066-0.212-0.02-0.364
			c-0.075,0.102-0.145,0.116-0.229,0.05c0.007-0.241,0.158-0.086,0.065-0.383c0.089-0.083,0.096,0.092,0.126,0.193
			c0.033-0.019,0.017-0.137,0.02-0.224c0.06,0.028,0.064,0.101,0.039,0.213c0.058-0.055,0.081-0.229,0.139-0.105
			c0.015,0.117-0.021,0.132-0.017,0.225c0.155,0.267,0.333-0.151,0.544-0.117c-0.021-0.136-0.09-0.116-0.077-0.353
			c0.085-0.012,0.078,0.265,0.184,0.185c-0.033,0.357,0.111,0.246,0.192,0.325c0.007,0.316-0.039,0.524-0.175,0.553
			c0.01,0.146,0.085,0.076,0.074,0.279c-0.322,0.226-0.5-0.001-0.769,0.241c0.141,0.304-0.086,0.29,0.034,0.657
			c0.072-0.049,0.127-0.133,0.16-0.255c0.097,0.063,0.011,0.289,0.159,0.259c-0.002,0.209-0.053,0.323-0.057,0.529
			c-0.116,0.001,0.018-0.261-0.099-0.2c-0.021-0.174,0.044-0.17,0.01-0.372c-0.014,0.278-0.166,0.268-0.239,0.422
			c0.032-0.496-0.13-0.308-0.06-0.58c-0.005-0.157-0.104-0.009-0.146-0.041C16.638,10.57,16.676,10.54,16.663,10.402z M16.674,11.14
			c-0.061,0.024-0.028-0.256-0.049-0.359c0.025,0.032,0.05,0.066,0.09,0.053C16.745,11.028,16.665,10.994,16.674,11.14z
			 M8.001,14.517c0.017,0.04,0.047,0.088,0.049,0.139c-0.023,0.059-0.046,0.07-0.069,0.062C7.971,14.604,7.981,14.545,8.001,14.517z
			 M13.022,10.516c-0.005,0.315-0.168,0.204-0.249,0.204C12.825,10.588,12.968,10.435,13.022,10.516z M12.007,10.442
			c-0.084,0.349,0.046,0.375,0.096,0.718l-0.114,0.026c-0.032-0.397-0.046-0.35-0.098-0.717L12.007,10.442z M7.223,17.247
			l-0.114,0.025l-0.017-0.291C7.18,16.927,7.224,17.015,7.223,17.247z M9.059,4.516L9.034,4.08c0.063,0.052,0.1,0.196,0.109,0.419
			L9.059,4.516z M6.756,19.269c0.071-0.027,0.095,0.094,0.151,0.113C6.9,19.659,6.759,19.504,6.756,19.269z M6.788,15.128
			c-0.066-0.038-0.036-0.413,0.037-0.376l0.017,0.292C6.808,15.039,6.791,15.069,6.788,15.128z M11.378,12.207l-0.171,0.036
			c-0.004-0.131-0.043-0.146-0.045-0.286c0.11,0.045,0.174,0.24,0.326,0.15c0.007,0.219-0.268-2.171-0.374-2.084
			C11.031,10.006,11.42,12.359,11.378,12.207z M7.383,20.163c0.015-0.172,0.174-0.109,0.15,0.113
			C7.446,20.36,7.44,20.183,7.383,20.163z M7.348,22.681c0.091-0.004,0.128,0.16,0.188,0.255
			C7.515,23.295,7.289,22.838,7.348,22.681z M7.52,22.126c-0.032,0.018-0.016,0.137-0.017,0.225c-0.07,0.027-0.093-0.096-0.15-0.115
			c-0.012-0.272,0.286-0.1,0.192-0.188c0.017-0.186,0.117,0.068,0.126,0.191C7.648,22.321,7.527,22.339,7.52,22.126z M7.617,22.842
			C7.6,22.72,7.631,22.7,7.666,22.683c-0.024-0.063-0.059-0.098-0.093-0.126c-0.008-0.187,0.095-0.196,0.138-0.104
			C7.672,22.567,7.709,22.839,7.617,22.842z M7.935,23.364c-0.019,0.16-0.202,0.146-0.18-0.109
			C7.851,23.175,7.88,23.31,7.935,23.364z M7.598,18.272c-0.112,0.035,0.003-0.115-0.069-0.207
			c-0.094,0.109-0.267,0.084-0.311,0.143c-0.041-0.214,0.057-0.143,0.105-0.172c-0.034-0.287-0.158-0.288-0.301-0.229
			c0.011-0.24,0.083-0.311,0.062-0.456c0.09,0.075,0.021,0.161,0.176,0.035c0,0.15-0.07,0.159-0.07,0.31
			c0.125-0.256,0.274-0.393,0.449-0.244c-0.127,0.109-0.235,0.252-0.323,0.439c0.104,0.146,0.426-0.338,0.498,0.111
			C7.744,18.193,7.609,17.919,7.598,18.272z M8.033,17.807c-0.082-0.03-0.131-0.343-0.174-0.034
			c-0.097,0.051-0.099-0.201-0.16-0.262c0.072-0.09,0.118-0.232,0.216-0.268c-0.033,0.609,0.187-0.104,0.222,0.32
			C8.011,17.534,7.963,17.483,8.033,17.807z M8.028,15.595c-0.053,0.002-0.056,0.1-0.11,0.097c0.005,0.183,0.031,0.3,0.076,0.352
			c0.042-0.041-0.017-0.09-0.012-0.219c0.051-0.019,0.065,0.077,0.118,0.05c0.034,0.218-0.093,0.109-0.037,0.375
			c0.047,0.217,0.104-0.131,0.147,0.043c0.013,0.266-0.201,0.062-0.151,0.402c-0.085,0.071-0.107-0.051-0.175-0.035
			c-0.018,0.225,0.07,0.114,0.121,0.12l0.016,0.292c-0.097,0.054-0.161,0.006-0.232-0.023c-0.027,0.037-0.083,0.305,0.012,0.219
			c-0.148,0.09-0.326,0.066-0.443-0.197c-0.099,0.042,0.07,0.311-0.014,0.298c-0.057-0.095-0.123-0.446-0.121-0.639
			c0.188,0.028,0.306,0.276,0.481,0.339c-0.039-0.219-0.146-0.212-0.244-0.242c0.039-0.283-0.029-0.177-0.102-0.273
			c0.03-0.371,0.198-0.189,0.33-0.293c-0.07-0.253-0.283-0.174-0.433,0.023c-0.026-0.229,0.078-0.186,0.033-0.452
			c-0.066-0.116-0.084,0.013-0.171,0.036c-0.016-0.292,0.139-0.235,0.245-0.274c-0.055,0.062-0.072,0.35,0.02,0.364
			c0.087-0.319,0.221-0.271,0.343-0.592c-0.116-0.191-0.183,0.27-0.335,0.222c0.049-0.246-0.038-0.006-0.098-0.201
			c-0.01-0.238,0.016-0.4,0.091-0.462c-0.009,0.068-0.018,0.136-0.049,0.16c0.312,0.188,0.45-0.166,0.58,0.02l0.023,0.439
			c0.093-0.165,0.13,0.004,0.231,0.02c-0.054,0.318,0.069,0.124,0.082,0.426C8.162,15.905,8.117,15.676,8.028,15.595z
			 M10.513,21.396c-0.01-0.063,0.008-0.072,0.024-0.08l-0.008-0.146c0.079,0.06,0.111,0.27,0.189,0.328
			c0.008,0.107-0.107,0.257,0.014,0.22C10.502,22.3,10.521,21.351,10.513,21.396z M10.796,22.364
			c0.083-0.139,0.131,0.249,0.147,0.043c0.088,0.047-0.06,0.123-0.013,0.299C10.876,22.622,10.81,22.58,10.796,22.364z
			 M10.699,28.511c-0.117,0.176,0.098,0.629-0.11,0.615C10.567,28.804,10.56,28.505,10.699,28.511z M10.07,30.2
			c-0.021-0.137,0.07-0.335-0.044-0.286c0.003-0.101,0.067-0.076,0.108-0.099c-0.046,0.152,0.008,0.182,0.021,0.364L10.07,30.2z
			 M10.128,29.669c0.044-0.187,0.158-0.235,0.176-0.48c0.062,0.047,0.002,0.389-0.001,0.518
			C10.219,29.777,10.193,29.653,10.128,29.669z M10.434,30.562c-0.055,0.012-0.045-0.191-0.119-0.121
			c0.05-0.094,0.09-0.203,0.158-0.256C10.506,30.403,10.379,30.296,10.434,30.562z M10.222,28.763
			c-0.03,0.033-0.064,0.146-0.021,0.152c0.078,0.141-0.093,0-0.119-0.049c0.036-0.453,0.019-0.682,0.093-0.979
			c0.122,0.175,0.183,0.553,0.3,0.747C10.372,28.794,10.337,28.915,10.222,28.763z M10.428,27.76l-0.016-0.294
			c0.086-0.106,0.033,0.232,0.121,0.123C10.521,27.69,10.48,27.738,10.428,27.76z M10.786,30.633
			c-0.046-0.097-0.213,0.152-0.245,0.274c-0.017-0.402,0.201-0.602,0.286-0.58C10.835,30.515,10.699,30.46,10.786,30.633z
			 M10.547,23.603c0.108-0.058,0.097-0.102,0.174,0.034C10.732,23.856,10.529,23.892,10.547,23.603z M10.914,29.792
			c-0.094-0.172,0.063-0.383,0.183-0.334C11.12,29.741,10.926,29.581,10.914,29.792z M11.283,29.712
			c-0.006-0.187,0.088-0.164,0.163-0.184C11.421,29.728,11.365,29.772,11.283,29.712z M11.522,30.397
			c-0.007-0.199-0.055-0.137-0.016-0.291l-0.057,0.012C11.391,29.854,11.75,30.336,11.522,30.397z M10.935,29.124
			c-0.088,0.111-0.035-0.23-0.122-0.12c0.026-0.374,0.058-0.53,0.094-0.908c0.161,0.251,0.277-0.224,0.389-0.305
			c0.087,0.003,0.113,0.203,0.235,0.097c0.014,0.354-0.081,0.088-0.159,0.255c0.061,0.501,0.203,0.073,0.302,0.229
			C11.445,28.915,11.074,28.485,10.935,29.124z M11.824,30.11c0.059-0.192,0.06,0.098,0.147,0.043
			C11.981,30.369,11.812,30.385,11.824,30.11z M12.873,29.733c-0.038-0.274,0.12-0.311,0.114-0.024L12.873,29.733z M13.243,29.653
			c0.03,0.354-0.124,0.146-0.196,0.118C13.049,29.518,13.179,29.628,13.243,29.653z M13.938,28.616
			c-0.073,0.402-0.345,0.104-0.531,0.338C13.449,28.495,13.78,28.507,13.938,28.616z M33.539,24.978
			c-0.203,0.079-0.412,0.093-0.62,0.101c0.048-0.028,0.097-0.066,0.146-0.126c-0.002-0.102-0.02-0.157-0.04-0.213
			c0.108-0.23,0.378-0.252,0.464,0.049c0.155-0.496,0.575-0.062,0.825-0.248c0.026,0.283,0.083,0.232,0.086-0.018
			c0.032,0.121,0.027,0.361,0.079,0.425c0.061-0.483,0.389,0.14,0.468-0.393c0.048,0.112,0.1,0.165,0.153,0.19
			C34.556,25.2,34.062,25.396,33.539,24.978z M36.625,23.722c-0.005-0.021-0.005-0.039-0.006-0.059
			c0.014,0.006,0.028,0.01,0.042,0.018c-0.022-0.186,0.024-0.117,0.069-0.096C36.698,23.599,36.695,23.688,36.625,23.722z
			 M36.75,23.587c0.016,0.001,0.026-0.012,0.036-0.044c0.005,0.021,0.008,0.042,0.007,0.071
			C36.772,23.594,36.761,23.591,36.75,23.587z M37.2,27.511c0.021-0.178-0.011-0.463,0.096-0.46
			C37.316,27.222,37.298,27.499,37.2,27.511z M41.473,20.584c-0.089-0.13,0.101-0.22,0.129-0.319
			C41.691,20.394,41.502,20.486,41.473,20.584z M42.308,21.823c-0.09,0-0.066-0.353-0.186-0.258
			c0.037-0.121,0.105-0.176,0.194-0.184C42.347,21.601,42.299,21.651,42.308,21.823z M42.628,21.911
			c-0.074,0.068-0.152,0.146-0.226,0.115c0.013-0.06,0.024-0.123,0.019-0.225C42.51,21.776,42.563,21.864,42.628,21.911z
			 M42.647,19.771c-0.068-0.008-0.125-0.119-0.171,0.035c0.033,0.115,0.134,0.027,0.151,0.19c-0.065,0.108-0.139,0.052-0.258,0.049
			c0.083,0.138,0.1,0.471,0.25,0.396c0.038,0.214-0.059,0.141-0.108,0.168c-0.007,0.234,0.063,0.215,0.017,0.364
			c0.076-0.101,0.145-0.111,0.229-0.044c-0.011,0.24-0.16,0.083-0.07,0.381c-0.088,0.082-0.094-0.095-0.124-0.195
			c-0.032,0.018-0.018,0.137-0.019,0.224c-0.062-0.03-0.065-0.103-0.039-0.214c-0.058,0.053-0.083,0.226-0.139,0.1
			c-0.014-0.115,0.021-0.131,0.019-0.224c-0.153-0.271-0.335,0.142-0.544,0.103c0.019,0.138,0.088,0.117,0.073,0.354
			c-0.084,0.012-0.074-0.267-0.181-0.188c0.036-0.356-0.109-0.251-0.188-0.332c-0.005-0.317,0.044-0.524,0.178-0.548
			c-0.007-0.146-0.083-0.079-0.07-0.281c0.323-0.217,0.498,0.016,0.769-0.221c-0.14-0.308,0.09-0.286-0.029-0.656
			c-0.072,0.047-0.127,0.129-0.162,0.251c-0.094-0.067-0.007-0.292-0.156-0.264c0.005-0.21,0.057-0.323,0.063-0.529
			c0.115,0.003-0.02,0.262,0.096,0.204c0.02,0.174-0.045,0.168-0.013,0.37c0.015-0.276,0.167-0.263,0.24-0.413
			c-0.034,0.495,0.128,0.311,0.056,0.579c0.002,0.159,0.103,0.013,0.146,0.047C42.672,19.605,42.634,19.636,42.647,19.771z
			 M42.644,19.036c0.062-0.023,0.024,0.257,0.046,0.36c-0.026-0.034-0.052-0.067-0.091-0.056
			C42.569,19.145,42.65,19.183,42.644,19.036z M48.104,15.944c0.008-0.314,0.17-0.198,0.25-0.196
			C48.305,15.878,48.158,16.026,48.104,15.944z M47.265,5.74c0.014-0.166,0.124-0.267,0.167-0.177
			C47.455,5.872,47.335,5.778,47.265,5.74z M49.119,16.046c0.086-0.344-0.044-0.375-0.09-0.716l0.113-0.023
			c0.028,0.399,0.043,0.353,0.089,0.72L49.119,16.046z M48.03,5.375c0.009-0.066,0.02-0.134,0.05-0.157
			c-0.297-0.19-0.442,0.121-0.564-0.023c-0.007-0.021-0.011-0.032-0.017-0.044L47.48,4.742c-0.059,0.102-0.095,0.07-0.141,0.029
			c-0.021-0.058-0.053-0.077-0.092-0.062c0.057-0.307-0.067-0.124-0.076-0.422c0.089,0.082,0.132,0.313,0.22,0.398
			c0.053,0,0.057-0.1,0.111-0.093c-0.004-0.184-0.027-0.3-0.073-0.354c-0.041,0.041,0.017,0.091,0.009,0.219
			c-0.05,0.017-0.063-0.078-0.117-0.053c-0.031-0.22,0.096-0.106,0.041-0.374c-0.045-0.215-0.104,0.127-0.146-0.046
			c-0.011-0.265,0.202-0.054,0.155-0.398c0.087-0.069,0.108,0.055,0.176,0.04c0.02-0.224-0.069-0.117-0.12-0.124l-0.013-0.292
			c0.096-0.051,0.162-0.001,0.231,0.03c0.029-0.035,0.089-0.302-0.01-0.218c0.151-0.086,0.329-0.056,0.443,0.209
			c0.1-0.038-0.066-0.312,0.018-0.296c0.055,0.097,0.119,0.449,0.113,0.641c-0.186-0.034-0.303-0.285-0.478-0.353
			c0.036,0.22,0.146,0.217,0.242,0.249c-0.043,0.281,0.026,0.178,0.099,0.277c-0.034,0.371-0.201,0.182-0.335,0.282
			c0.068,0.255,0.281,0.183,0.436-0.008c0.022,0.229-0.081,0.182-0.039,0.449c0.066,0.117,0.083-0.011,0.171-0.031
			c0.015,0.292-0.139,0.231-0.247,0.266c0.055-0.059,0.077-0.349-0.017-0.365c-0.092,0.316-0.224,0.264-0.35,0.579
			c0.113,0.197,0.187-0.259,0.337-0.209c-0.05,0.244,0.039,0.007,0.097,0.204C48.133,5.155,48.105,5.316,48.03,5.375z
			 M49.653,14.402c-0.006-0.219-0.131-0.426-0.023-0.511c0.082,0.02,0.094,0.261,0.133,0.415l0.172-0.03
			c0.002,0.13,0.042,0.146,0.042,0.286C49.868,14.512,49.806,14.316,49.653,14.402z M49.884,13.107l0.086-0.016l0.018,0.438
			C49.926,13.475,49.892,13.331,49.884,13.107z M48.589,5.566l-0.013-0.293c0.033,0.007,0.05-0.024,0.054-0.084
			C48.695,5.229,48.661,5.604,48.589,5.566z M52.163,6.592c-0.059,0.2-0.138,0.279-0.227,0.115
			C51.99,6.43,52.044,6.638,52.163,6.592z M51.506,6.789c0.036,0.014,0.091-0.23,0.018-0.226c0.052-0.177,0.207,0.031,0.266,0.097
			c0.008,0.335-0.188,0.092-0.229,0.043c0.036,0.242,0.14,0.187,0.047,0.432c0.119,0.137,0.301-0.209,0.333,0.308
			c-0.188,0.068-0.41,0.256-0.559-0.192c-0.054-0.057-0.153,0.032-0.153-0.191c0.077-0.012,0.177-0.1,0.153,0.191
			c0.014-0.168,0.115-0.151,0.162-0.25c-0.124-0.157-0.29-0.281-0.404,0.002C51.064,6.572,51.399,6.532,51.506,6.789z M51.123,5.977
			c-0.064,0.034-0.111,0.007-0.146-0.05C50.972,5.703,51.123,5.748,51.123,5.977z M50.007,5.593
			c-0.067,0.044-0.067-0.121-0.147-0.045C49.854,5.329,50.021,5.321,50.007,5.593z M49.818,5.261
			C49.803,4.697,50.033,5.184,49.818,5.261L49.818,5.261z M51.559,10.511c-0.035-0.277,0.125-0.306,0.115-0.021L51.559,10.511z
			 M51.741,11.358c-0.027-0.078-0.047-0.188-0.046-0.357c0.115-0.106,0.12,0.13,0.209,0.108
			C51.868,11.234,51.812,11.313,51.741,11.358z M51.016,5.388C50.935,5.5,50.874,5.49,50.813,5.352
			c-0.085,0.063,0.034,0.151,0.012,0.293c-0.103-0.099-0.2-0.21-0.251-0.468c0.299-0.002,0.396-0.149,0.604-0.042
			c-0.009-0.083-0.055-0.05-0.089-0.056c0.178-0.726,0.327-0.038,0.675-0.42c0.036,0.167,0.065,0.35,0.083,0.572
			c0.027-0.051,0.021-0.173,0.08-0.162c-0.073,0.386,0.099,0.377,0.117,0.714C51.697,5.625,51.188,6.11,51.016,5.388z M52.52,10.698
			c-0.084,0.072-0.107-0.054-0.175-0.04c0.031-0.2,0.09-0.34,0.153-0.469c-0.034-0.334-0.09,0.127-0.118-0.052
			c-0.035-0.274,0.132-0.117,0.194-0.183c0.004,0.316,0.151,0.196,0.165,0.484C52.629,10.446,52.511,10.438,52.52,10.698z
			 M52.54,5.249c-0.105,0.305-0.263,0.077-0.304,0.278c-0.083-0.048-0.108-0.275-0.138-0.489c-0.095,0.186-0.163,0.152-0.211-0.182
			c0.035-0.101,0.103-0.117,0.118,0.052c0.076-0.187-0.14-0.172-0.108-0.495c0.22,0.185,0.441-0.258,0.668,0.096
			c0.011,0.243,0.021,0.486,0.135,0.416c-0.042,0.259,0.019,0.351,0.029,0.658C52.643,5.541,52.612,5.335,52.54,5.249z M52.978,6.64
			c0.039-0.236,0.046-0.396-0.026-0.583c-0.089,0.093-0.116,0.245-0.199,0.038c0.015-0.33,0.124-0.113,0.19-0.258
			c-0.012-0.184-0.112-0.096-0.153-0.192c0.013-0.238,0.062-0.396,0.152-0.469c0.159,0.44,0.062,0.729,0.226,1.208
			C53.035,6.322,53.118,6.719,52.978,6.64z"/>
	</defs>
	<use xlink:href="#XMLID_1989_"  overflow="visible" fill="#E52529"/>
	<clipPath id="XMLID_2_">
		<use xlink:href="#XMLID_1989_"  overflow="visible"/>
	</clipPath>
</g>
</svg>
