<?xml version="1.0" encoding="utf-8"?>
<!-- Generator: Adobe Illustrator 16.0.0, SVG Export Plug-In . SVG Version: 6.00 Build 0)  -->
<!DOCTYPE svg PUBLIC "-//W3C//DTD SVG 1.1//EN" "http://www.w3.org/Graphics/SVG/1.1/DTD/svg11.dtd">
<svg version="1.1" id="Layer_1" xmlns="http://www.w3.org/2000/svg" xmlns:xlink="http://www.w3.org/1999/xlink" x="0px" y="0px"
	 width="107px" height="33.677px" viewBox="0 0 107 33.677" enable-background="new 0 0 107 33.677" xml:space="preserve">
<rect x="1" y="1" fill="none" stroke="#C31726" stroke-width="2" stroke-linecap="round" stroke-linejoin="round" stroke-miterlimit="10" width="105" height="24.506"/>
<rect x="1" y="25.506" fill="#C31726" stroke="#C31726" stroke-width="2" stroke-linecap="round" stroke-linejoin="round" stroke-miterlimit="10" width="105" height="7.171"/>
<g>
	<g>
		<defs>
			<rect id="SVGID_1_" x="44.945" y="24.656" width="59.388" height="8.711"/>
		</defs>
		<clipPath id="SVGID_2_">
			<use xlink:href="#SVGID_1_"  overflow="visible"/>
		</clipPath>
		<path clip-path="url(#SVGID_2_)" fill="#FFFFFF" d="M92.652,34.429c-2.281-10.543-5.598-25.645-5.598-25.65l5.252-0.656
			c0,0,3.529,14.221,6.504,26.307H92.652z M73.471,34.429l-0.14-0.809l-0.537-3.061l-3.316-19.526l-4.841,0.732
			c0.124,0.978,2,16.552,2.386,18.993l0.519,3.67H73.471z M76.177,11.591c0.697,3.449,1.67,8.627,3.165,15.607l1.141,6.776
			l0.075,0.454h5.81c-0.271-1.299-0.543-2.613-0.842-3.962c-0.918-4.849-4.591-20.898-4.591-20.898l-5.05,0.646L76.177,11.591z"/>
	</g>
</g>
<g>
</g>
<g>
</g>
<g>
</g>
<g>
</g>
<g>
</g>
<g>
</g>
</svg>
