<?xml version="1.0" encoding="utf-8"?>
<!-- Generator: Adobe Illustrator 16.0.0, SVG Export Plug-In . SVG Version: 6.00 Build 0)  -->
<!DOCTYPE svg PUBLIC "-//W3C//DTD SVG 1.1//EN" "http://www.w3.org/Graphics/SVG/1.1/DTD/svg11.dtd">
<svg version="1.1" id="Layer_1" xmlns="http://www.w3.org/2000/svg" xmlns:xlink="http://www.w3.org/1999/xlink" x="0px" y="0px"
	 width="266.941px" height="119.145px" viewBox="0 0 266.941 119.145" enable-background="new 0 0 266.941 119.145"
	 xml:space="preserve">
<g>
	<g>
		<polygon fill="#861722" points="0,5.174 0,117.309 260.987,119.145 266.941,113.971 260.987,77.311 5.954,0 		"/>
		
			<linearGradient id="SVGID_1_" gradientUnits="userSpaceOnUse" x1="2573.4297" y1="56.9858" x2="2834.417" y2="56.9858" gradientTransform="matrix(-1 0 0 1 2840.3711 0)">
			<stop  offset="0" style="stop-color:#E30613"/>
			<stop  offset="0.1808" style="stop-color:#E00613"/>
			<stop  offset="0.3666" style="stop-color:#D80912"/>
			<stop  offset="0.5548" style="stop-color:#CA0C0F"/>
			<stop  offset="0.7445" style="stop-color:#B60E0B"/>
			<stop  offset="0.9339" style="stop-color:#9C1006"/>
			<stop  offset="1" style="stop-color:#911004"/>
		</linearGradient>
		<polygon fill="url(#SVGID_1_)" points="5.954,0 5.954,112.135 266.941,113.971 266.941,72.137 		"/>
		
			<linearGradient id="SVGID_2_" gradientUnits="userSpaceOnUse" x1="-2801.9185" y1="106.9243" x2="-2801.9185" y2="8.315" gradientTransform="matrix(1 0 0 1 2939.332 0)">
			<stop  offset="0" style="stop-color:#FFFFFF;stop-opacity:0"/>
			<stop  offset="1" style="stop-color:#FFFFFF"/>
		</linearGradient>
		<path opacity="0.9" fill="url(#SVGID_2_)" d="M261.987,106.924v-24c0-1.104-0.707-6.518-1.811-6.518L13.842,10.591
			c-1.104,0-1,55.433-1,56.537l1,32.166L261.987,106.924z"/>
	</g>
	<g>
		<g>
			<path fill="#FFFFFF" d="M37.68,69.409l-0.728-3.596H32.33l-0.728,3.596c-0.052,0.26-0.156,0.492-0.52,0.492H26.59
				c-0.39,0-0.467-0.258-0.415-0.543l3.479-15.837c0.572-2.563,2.52-3.08,4.986-3.08c2.468,0,4.415,0.518,4.986,3.08l3.48,15.837
				c0.078,0.311,0,0.543-0.39,0.543h-4.519C37.835,69.901,37.731,69.668,37.68,69.409z M34.927,55.099
				c-0.052-0.232-0.052-0.362-0.286-0.362c-0.233,0-0.233,0.13-0.285,0.362l-1.272,6.574h3.116L34.927,55.099z"/>
			<path fill="#FFFFFF" d="M53.392,69.719c-0.883,0.207-2.025,0.414-3.558,0.414c-3.974,0-6.207-2.535-6.207-6.779v-1.941
				c0-4.218,2.233-6.806,6.207-6.806c1.532,0,2.83,0.233,3.558,0.414c0.338,0.078,0.52,0.207,0.52,0.544v2.925
				c0,0.311-0.156,0.543-0.546,0.491c-0.883-0.077-1.714-0.181-2.986-0.181c-1.116,0-1.766,0.699-1.766,2.613v1.941
				c0,1.914,0.649,2.588,1.766,2.588c1.272,0,2.104-0.053,2.986-0.156c0.39-0.051,0.546,0.156,0.546,0.492v2.898
				C53.911,69.512,53.729,69.643,53.392,69.719z"/>
			<path fill="#FFFFFF" d="M63.702,58.515h-1.974v6.96c0,0.777,0.078,0.984,0.728,0.984h1.194c0.312,0,0.545,0.207,0.545,0.492
				v2.432c0,0.285-0.233,0.439-0.545,0.518c-0.857,0.182-1.662,0.232-2.312,0.232c-2.779,0-4.597-0.854-4.597-4.709v-6.91
				l-1.714-0.389c-0.286-0.077-0.546-0.284-0.546-0.568v-2.174c0-0.285,0.234-0.544,0.546-0.544h1.714v-2.097
				c0-0.284,0.26-0.491,0.545-0.543l3.87-0.673c0.468-0.077,0.571,0.207,0.571,0.491v2.821h1.974c0.286,0,0.52,0.233,0.52,0.518
				v2.64C64.222,58.282,63.988,58.515,63.702,58.515z"/>
			<path fill="#FFFFFF" d="M78.479,69.901H74.87c-0.286,0-0.52-0.232-0.52-0.518v-0.596c-0.936,0.699-2.182,1.346-4.104,1.346
				c-3.844,0-4.778-2.871-4.778-5.951v-8.773c0-0.285,0.207-0.569,0.52-0.569h3.896c0.312,0,0.571,0.284,0.571,0.569v8.773
				c0,1.371,0.312,1.838,1.609,1.838c0.598,0,1.351-0.26,1.948-0.57V55.409c0-0.285,0.208-0.569,0.52-0.569h3.896
				c0.312,0,0.571,0.284,0.571,0.569v13.974C78.999,69.668,78.766,69.901,78.479,69.901z"/>
			<path fill="#FFFFFF" d="M92.504,69.901h-3.61c-0.285,0-0.52-0.232-0.52-0.518V68.84c-0.986,0.725-2.285,1.293-3.713,1.293
				c-2.052,0-4.441-1.139-4.441-4.631v-0.311c0-3.105,2.363-4.219,6.7-4.219h1.117v-0.75c0-1.269-0.416-1.501-1.714-1.501
				c-1.455,0-3.792,0.129-4.52,0.182c-0.441,0.025-0.571-0.207-0.571-0.518v-2.511c0-0.388,0.208-0.518,0.52-0.621
				c0.857-0.259,3.091-0.621,4.753-0.621c3.766,0,6.519,1.346,6.519,5.59v9.16C93.023,69.668,92.789,69.901,92.504,69.901z
				 M88.192,63.665H86.92c-1.299,0-1.817,0.414-1.817,1.5v0.26c0,0.879,0.597,1.139,1.324,1.139c0.623,0,1.324-0.182,1.766-0.389
				V63.665z"/>
			<path fill="#FFFFFF" d="M99.204,69.901h-3.921c-0.286,0-0.571-0.285-0.571-0.568V50.415c0-0.285,0.285-0.518,0.571-0.518h3.921
				c0.286,0,0.52,0.232,0.52,0.518v18.917C99.724,69.616,99.49,69.901,99.204,69.901z"/>
			<path fill="#FFFFFF" d="M106.242,53.417h-4.104c-0.285,0-0.597-0.233-0.597-0.518v-2.537c0-0.284,0.312-0.518,0.597-0.518h4.104
				c0.286,0,0.571,0.233,0.571,0.518v2.537C106.813,53.184,106.528,53.417,106.242,53.417z M106.112,69.901h-3.869
				c-0.286,0-0.571-0.285-0.571-0.568V55.384c0-0.285,0.285-0.544,0.571-0.544h3.869c0.286,0,0.571,0.259,0.571,0.544v13.949
				C106.684,69.616,106.398,69.901,106.112,69.901z"/>
			<path fill="#FFFFFF" d="M119.539,69.901h-10.414c-0.39,0-0.701-0.311-0.701-0.699v-2.174c0-0.439,0.078-0.725,0.39-1.139
				l4.96-6.702c0.078-0.104,0.104-0.181,0.104-0.233c0-0.104-0.078-0.154-0.234-0.154h-4.622c-0.26,0-0.416-0.156-0.416-0.414
				v-3.028c0-0.284,0.233-0.518,0.52-0.518h10.206c0.39,0,0.676,0.311,0.676,0.698v2.355c0,0.569-0.13,0.776-0.441,1.19
				l-4.727,6.391c-0.053,0.078-0.104,0.156-0.104,0.234c0,0.104,0.078,0.154,0.234,0.154h4.622c0.26,0,0.468,0.156,0.468,0.414
				v3.105C120.059,69.668,119.825,69.901,119.539,69.901z"/>
			<path fill="#FFFFFF" d="M133.355,69.901h-3.61c-0.285,0-0.52-0.232-0.52-0.518V68.84c-0.986,0.725-2.285,1.293-3.713,1.293
				c-2.052,0-4.441-1.139-4.441-4.631v-0.311c0-3.105,2.363-4.219,6.7-4.219h1.117v-0.75c0-1.269-0.416-1.501-1.714-1.501
				c-1.455,0-3.792,0.129-4.52,0.182c-0.441,0.025-0.571-0.207-0.571-0.518v-2.511c0-0.388,0.208-0.518,0.52-0.621
				c0.857-0.259,3.091-0.621,4.753-0.621c3.766,0,6.519,1.346,6.519,5.59v9.16C133.875,69.668,133.641,69.901,133.355,69.901z
				 M129.044,63.665h-1.272c-1.299,0-1.817,0.414-1.817,1.5v0.26c0,0.879,0.597,1.139,1.324,1.139c0.623,0,1.324-0.182,1.766-0.389
				V63.665z"/>
			<path fill="#FFFFFF" d="M35.498,84.057h-1.974v6.961c0,0.775,0.078,0.982,0.728,0.982h1.194c0.312,0,0.545,0.207,0.545,0.492
				v2.434c0,0.283-0.233,0.439-0.545,0.518c-0.857,0.18-1.662,0.232-2.312,0.232c-2.779,0-4.597-0.854-4.597-4.711v-6.908
				l-1.714-0.389c-0.286-0.078-0.546-0.285-0.546-0.57v-2.174c0-0.283,0.234-0.543,0.546-0.543h1.714v-2.096
				c0-0.285,0.26-0.492,0.545-0.543l3.87-0.674c0.468-0.078,0.571,0.207,0.571,0.492v2.82h1.974c0.286,0,0.52,0.232,0.52,0.518
				v2.641C36.018,83.823,35.784,84.057,35.498,84.057z"/>
			<path fill="#FFFFFF" d="M50.275,95.444h-3.609c-0.286,0-0.52-0.234-0.52-0.518v-0.596c-0.936,0.699-2.182,1.346-4.104,1.346
				c-3.844,0-4.778-2.873-4.778-5.953v-8.771c0-0.285,0.207-0.57,0.52-0.57h3.896c0.312,0,0.571,0.285,0.571,0.57v8.771
				c0,1.373,0.312,1.838,1.609,1.838c0.598,0,1.351-0.258,1.948-0.568V80.952c0-0.285,0.208-0.57,0.52-0.57h3.896
				c0.312,0,0.571,0.285,0.571,0.57v13.975C50.795,95.209,50.562,95.444,50.275,95.444z"/>
			<path fill="#FFFFFF" d="M64.871,95.676c-0.415,0-1.221-0.078-1.766-0.156v4.348c0,0.285-0.234,0.545-0.52,0.545H58.69
				c-0.286,0-0.571-0.26-0.571-0.545V81.624c0-0.439,0.155-0.646,0.935-0.828c1.351-0.285,3.48-0.646,5.817-0.646
				c4.259,0,6.83,2.381,6.83,6.754v2.02C71.701,93.036,69.468,95.676,64.871,95.676z M66.715,86.903c0-1.553-0.39-2.639-1.844-2.639
				c-0.753,0-1.272,0.025-1.766,0.104v7.09c0.52,0.053,1.143,0.129,1.766,0.129c1.454,0,1.844-1.139,1.844-2.664V86.903z"/>
			<path fill="#FFFFFF" d="M85.699,89.309h-8.076v0.053c0,1.371,0.571,2.225,2.467,2.225c1.376,0,3.922-0.129,4.935-0.207
				c0.415-0.025,0.571,0.053,0.571,0.441v2.328c0,0.414-0.104,0.596-0.52,0.725c-1.662,0.543-3.454,0.803-5.636,0.803
				c-3.506,0-6.752-1.838-6.752-6.781v-1.707c0-4.555,2.648-7.039,6.908-7.039c4.545,0,6.648,2.873,6.648,7.039v1.553
				C86.245,89.077,86.011,89.309,85.699,89.309z M81.466,86.489c0-1.553-0.623-2.484-1.921-2.484c-1.247,0-1.922,0.932-1.922,2.484
				v0.078h3.843V86.489z"/>
			<path fill="#FFFFFF" d="M96.01,84.237h-0.363c-1.117,0-2.182,0.156-2.986,0.596v10.041c0,0.285-0.208,0.57-0.52,0.57h-3.896
				c-0.312,0-0.571-0.285-0.571-0.57V80.899c0-0.285,0.155-0.518,0.52-0.518h3.739c0.363,0,0.52,0.129,0.52,0.518v0.621
				c1.169-1.217,2.104-1.346,3.479-1.346c0.442,0,0.52,0.104,0.52,0.518v3.158C96.451,84.161,96.348,84.237,96.01,84.237z"/>
			<path fill="#FFFFFF" d="M112.891,95.444h-3.896c-0.285,0-0.571-0.285-0.571-0.57V84.057h-4.519v10.869
				c0,0.283-0.233,0.518-0.52,0.518h-3.947c-0.286,0-0.52-0.234-0.52-0.518V84.057l-1.714-0.389
				c-0.286-0.078-0.546-0.26-0.546-0.543v-2.174c0-0.285,0.234-0.57,0.546-0.57h1.714v-0.699c0-3.855,1.817-4.709,4.597-4.709
				c0.728,0,1.61,0.104,2.312,0.232c0.312,0.053,0.545,0.232,0.545,0.518v2.434c0,0.283-0.233,0.49-0.545,0.49h-1.091
				c-0.649,0-0.831,0.26-0.831,1.035v0.699h8.985c0.286,0,0.546,0.26,0.546,0.543v13.949
				C113.437,95.159,113.177,95.444,112.891,95.444z M112.995,78.958h-4.104c-0.286,0-0.571-0.232-0.571-0.518v-2.535
				c0-0.285,0.285-0.518,0.571-0.518h4.104c0.285,0,0.571,0.232,0.571,0.518v2.535C113.566,78.725,113.28,78.958,112.995,78.958z"/>
			<path fill="#FFFFFF" d="M119.877,95.444h-3.921c-0.286,0-0.571-0.285-0.571-0.57V75.956c0-0.283,0.285-0.518,0.571-0.518h3.921
				c0.286,0,0.52,0.234,0.52,0.518v18.918C120.396,95.159,120.163,95.444,119.877,95.444z"/>
		</g>
	</g>
	<polygon fill="#C31726" points="153.332,88.286 153.332,65.196 182.666,76.741 	"/>
</g>
<g>
</g>
<g>
</g>
<g>
</g>
<g>
</g>
<g>
</g>
<g>
</g>
</svg>
