<?xml version="1.0" encoding="utf-8"?>
<!-- Generator: Adobe Illustrator 16.0.0, SVG Export Plug-In . SVG Version: 6.00 Build 0)  -->
<!DOCTYPE svg PUBLIC "-//W3C//DTD SVG 1.1//EN" "http://www.w3.org/Graphics/SVG/1.1/DTD/svg11.dtd">
<svg version="1.1" id="Layer_1" xmlns="http://www.w3.org/2000/svg" xmlns:xlink="http://www.w3.org/1999/xlink" x="0px" y="0px"
	 width="266.941px" height="119.144px" viewBox="0 0 266.941 119.144" enable-background="new 0 0 266.941 119.144"
	 xml:space="preserve">
<g>
	<g>
		<polygon fill="#861722" points="266.941,5.174 266.941,117.31 5.954,119.144 0,113.97 5.954,77.312 260.987,0 		"/>
		<linearGradient id="SVGID_1_" gradientUnits="userSpaceOnUse" x1="0" y1="56.9849" x2="260.9873" y2="56.9849">
			<stop  offset="0" style="stop-color:#E30613"/>
			<stop  offset="0.1808" style="stop-color:#E00613"/>
			<stop  offset="0.3666" style="stop-color:#D80912"/>
			<stop  offset="0.5548" style="stop-color:#CA0C0F"/>
			<stop  offset="0.7445" style="stop-color:#B60E0B"/>
			<stop  offset="0.9339" style="stop-color:#9C1006"/>
			<stop  offset="1" style="stop-color:#911004"/>
		</linearGradient>
		<polygon fill="url(#SVGID_1_)" points="260.987,0 260.987,112.136 0,113.97 0,72.138 		"/>
		
			<linearGradient id="SVGID_2_" gradientUnits="userSpaceOnUse" x1="-227.647" y1="106.9243" x2="-227.647" y2="8.3145" gradientTransform="matrix(-1 0 0 1 -98.1191 0)">
			<stop  offset="0" style="stop-color:#FFFFFF;stop-opacity:0"/>
			<stop  offset="1" style="stop-color:#FFFFFF"/>
		</linearGradient>
		<path opacity="0.9" fill="url(#SVGID_2_)" d="M4.954,106.923v-24c0-1.104,0.707-6.518,1.811-6.518L253.1,10.591
			c1.104,0,1,55.432,1,56.536l-1,32.168L4.954,106.923z"/>
	</g>
	<g>
		<g>
			<path fill="#FFFFFF" d="M136.665,70.564l-0.728-3.596h-4.622l-0.728,3.596c-0.052,0.26-0.156,0.492-0.52,0.492h-4.493
				c-0.39,0-0.467-0.258-0.415-0.543l3.479-15.837c0.571-2.563,2.52-3.08,4.986-3.08c2.468,0,4.415,0.518,4.986,3.08l3.48,15.837
				c0.078,0.311,0,0.543-0.39,0.543h-4.519C136.82,71.056,136.717,70.824,136.665,70.564z M133.912,56.254
				c-0.052-0.232-0.052-0.362-0.286-0.362c-0.233,0-0.233,0.13-0.285,0.362l-1.272,6.574h3.116L133.912,56.254z"/>
			<path fill="#FFFFFF" d="M149.754,71.289c-0.415,0-1.221-0.076-1.766-0.154v4.348c0,0.285-0.234,0.543-0.52,0.543h-3.896
				c-0.286,0-0.571-0.258-0.571-0.543V57.237c0-0.44,0.155-0.647,0.935-0.828c1.351-0.284,3.48-0.647,5.817-0.647
				c4.259,0,6.83,2.381,6.83,6.755v2.018C156.584,68.65,154.351,71.289,149.754,71.289z M151.598,62.517
				c0-1.553-0.39-2.641-1.844-2.641c-0.753,0-1.272,0.025-1.766,0.104v7.092c0.52,0.051,1.143,0.129,1.766,0.129
				c1.454,0,1.844-1.139,1.844-2.666V62.517z"/>
			<path fill="#FFFFFF" d="M162.453,71.056h-3.921c-0.286,0-0.571-0.285-0.571-0.568V51.57c0-0.285,0.285-0.518,0.571-0.518h3.921
				c0.286,0,0.52,0.232,0.52,0.518v18.917C162.973,70.771,162.739,71.056,162.453,71.056z"/>
			<path fill="#FFFFFF" d="M169.491,54.572h-4.104c-0.285,0-0.597-0.233-0.597-0.518v-2.537c0-0.284,0.312-0.518,0.597-0.518h4.104
				c0.286,0,0.571,0.233,0.571,0.518v2.537C170.063,54.339,169.777,54.572,169.491,54.572z M169.361,71.056h-3.869
				c-0.286,0-0.571-0.285-0.571-0.568V56.539c0-0.285,0.285-0.544,0.571-0.544h3.869c0.286,0,0.571,0.259,0.571,0.544v13.949
				C169.933,70.771,169.647,71.056,169.361,71.056z"/>
			<path fill="#FFFFFF" d="M181.256,70.875c-0.883,0.207-2.025,0.414-3.558,0.414c-3.974,0-6.207-2.535-6.207-6.779v-1.941
				c0-4.218,2.233-6.806,6.207-6.806c1.532,0,2.83,0.233,3.558,0.414c0.338,0.078,0.52,0.207,0.52,0.544v2.924
				c0,0.311-0.156,0.543-0.546,0.492c-0.883-0.078-1.714-0.182-2.986-0.182c-1.116,0-1.766,0.699-1.766,2.613v1.941
				c0,1.914,0.649,2.588,1.766,2.588c1.272,0,2.104-0.053,2.986-0.156c0.39-0.051,0.546,0.156,0.546,0.492v2.898
				C181.775,70.667,181.594,70.798,181.256,70.875z"/>
			<path fill="#FFFFFF" d="M194.839,71.056h-3.61c-0.285,0-0.52-0.232-0.52-0.518v-0.543c-0.986,0.725-2.285,1.293-3.713,1.293
				c-2.052,0-4.441-1.139-4.441-4.631v-0.311c0-3.105,2.363-4.219,6.7-4.219h1.117v-0.75c0-1.27-0.416-1.502-1.714-1.502
				c-1.455,0-3.792,0.129-4.52,0.182c-0.441,0.025-0.571-0.207-0.571-0.517V57.03c0-0.388,0.208-0.518,0.52-0.621
				c0.857-0.259,3.091-0.621,4.753-0.621c3.766,0,6.519,1.346,6.519,5.59v9.16C195.358,70.824,195.124,71.056,194.839,71.056z
				 M190.527,64.82h-1.272c-1.298,0-1.817,0.414-1.817,1.5v0.26c0,0.879,0.597,1.139,1.324,1.139c0.623,0,1.324-0.182,1.766-0.389
				V64.82z"/>
			<path fill="#FFFFFF" d="M209.305,71.289c-0.415,0-1.221-0.076-1.766-0.154v4.348c0,0.285-0.234,0.543-0.52,0.543h-3.896
				c-0.286,0-0.571-0.258-0.571-0.543V57.237c0-0.44,0.155-0.647,0.935-0.828c1.351-0.284,3.48-0.647,5.817-0.647
				c4.259,0,6.83,2.381,6.83,6.755v2.018C216.135,68.65,213.901,71.289,209.305,71.289z M211.148,62.517
				c0-1.553-0.39-2.641-1.844-2.641c-0.753,0-1.272,0.025-1.766,0.104v7.092c0.52,0.051,1.143,0.129,1.766,0.129
				c1.454,0,1.844-1.139,1.844-2.666V62.517z"/>
			<path fill="#FFFFFF" d="M223.952,71.289c-4.337,0-6.83-2.457-6.83-7.012v-1.502c0-4.554,2.493-7.013,6.83-7.013
				s6.804,2.459,6.804,7.013v1.502C230.756,68.832,228.289,71.289,223.952,71.289z M225.796,62.775c0-2.045-0.649-2.846-1.844-2.846
				s-1.87,0.775-1.87,2.846v1.502c0,2.043,0.676,2.871,1.87,2.871s1.844-0.801,1.844-2.871V62.775z"/>
			<path fill="#FFFFFF" d="M240.521,59.851h-0.363c-1.117,0-2.182,0.154-2.986,0.596v10.041c0,0.283-0.208,0.568-0.52,0.568h-3.896
				c-0.312,0-0.571-0.285-0.571-0.568V56.513c0-0.284,0.155-0.518,0.52-0.518h3.739c0.363,0,0.52,0.13,0.52,0.518v0.621
				c1.169-1.216,2.104-1.346,3.479-1.346c0.442,0,0.52,0.104,0.52,0.518v3.157C240.963,59.773,240.859,59.851,240.521,59.851z"/>
			<path fill="#FFFFFF" d="M109.137,96.832c-0.415,0-1.221-0.078-1.766-0.156v4.348c0,0.285-0.234,0.545-0.52,0.545h-3.896
				c-0.286,0-0.571-0.26-0.571-0.545V82.779c0-0.439,0.155-0.646,0.935-0.828c1.351-0.285,3.48-0.646,5.817-0.646
				c4.259,0,6.83,2.381,6.83,6.754v2.02C115.967,94.191,113.733,96.832,109.137,96.832z M110.98,88.058
				c0-1.553-0.39-2.639-1.844-2.639c-0.753,0-1.272,0.025-1.766,0.104v7.09c0.52,0.053,1.143,0.129,1.766,0.129
				c1.454,0,1.844-1.139,1.844-2.664V88.058z"/>
			<path fill="#FFFFFF" d="M125.68,85.392h-0.363c-1.117,0-2.182,0.156-2.986,0.596v10.041c0,0.285-0.208,0.57-0.52,0.57h-3.896
				c-0.312,0-0.571-0.285-0.571-0.57V82.054c0-0.285,0.155-0.518,0.52-0.518h3.739c0.363,0,0.52,0.129,0.52,0.518v0.621
				c1.169-1.217,2.104-1.346,3.479-1.346c0.442,0,0.52,0.104,0.52,0.518v3.158C126.121,85.316,126.018,85.392,125.68,85.392z"/>
			<path fill="#FFFFFF" d="M131.835,80.113h-4.104c-0.285,0-0.597-0.232-0.597-0.518V77.06c0-0.285,0.312-0.518,0.597-0.518h4.104
				c0.286,0,0.571,0.232,0.571,0.518v2.535C132.406,79.88,132.121,80.113,131.835,80.113z M131.705,96.599h-3.869
				c-0.286,0-0.571-0.285-0.571-0.57V82.08c0-0.283,0.285-0.543,0.571-0.543h3.869c0.286,0,0.571,0.26,0.571,0.543v13.949
				C132.276,96.314,131.991,96.599,131.705,96.599z"/>
			<path fill="#FFFFFF" d="M154.247,96.599h-3.896c-0.312,0-0.571-0.285-0.571-0.57v-8.824c0-1.295-0.363-1.578-1.272-1.578
				c-0.39,0-0.986,0.076-1.584,0.311c0.052,0.439,0.078,0.75,0.078,1.268v8.824c0,0.285-0.234,0.57-0.546,0.57h-3.896
				c-0.312,0-0.545-0.285-0.545-0.57v-8.824c0-1.295-0.338-1.578-1.247-1.578c-0.415,0-1.013,0.129-1.558,0.387v10.016
				c0,0.285-0.208,0.57-0.52,0.57h-3.896c-0.312,0-0.571-0.285-0.571-0.57V82.054c0-0.285,0.233-0.518,0.52-0.518h3.609
				c0.286,0,0.52,0.232,0.52,0.518v0.596c1.299-0.984,2.52-1.32,3.999-1.32c1.272,0,2.363,0.389,3.039,1.32
				c1.351-1.113,2.675-1.32,4.259-1.32c3.299,0,4.597,2.123,4.597,5.875v8.824C154.767,96.314,154.56,96.599,154.247,96.599z"/>
			<path fill="#FFFFFF" d="M169.206,90.464h-8.076v0.053c0,1.371,0.571,2.225,2.467,2.225c1.376,0,3.922-0.129,4.935-0.207
				c0.415-0.025,0.571,0.053,0.571,0.441v2.328c0,0.414-0.104,0.596-0.52,0.725c-1.662,0.543-3.454,0.803-5.636,0.803
				c-3.506,0-6.752-1.838-6.752-6.781v-1.707c0-4.555,2.648-7.039,6.908-7.039c4.545,0,6.648,2.873,6.648,7.039v1.553
				C169.752,90.232,169.518,90.464,169.206,90.464z M164.973,87.644c0-1.553-0.623-2.484-1.922-2.484
				c-1.246,0-1.921,0.932-1.921,2.484v0.078h3.843V87.644z"/>
			<path fill="#FFFFFF" d="M179.517,85.392h-0.363c-1.117,0-2.182,0.156-2.986,0.596v10.041c0,0.285-0.208,0.57-0.52,0.57h-3.896
				c-0.312,0-0.571-0.285-0.571-0.57V82.054c0-0.285,0.155-0.518,0.52-0.518h3.739c0.363,0,0.52,0.129,0.52,0.518v0.621
				c1.169-1.217,2.104-1.346,3.479-1.346c0.442,0,0.52,0.104,0.52,0.518v3.158C179.958,85.316,179.854,85.392,179.517,85.392z"/>
			<path fill="#FFFFFF" d="M192.113,96.599h-3.61c-0.285,0-0.52-0.234-0.52-0.518v-0.545c-0.986,0.725-2.285,1.295-3.713,1.295
				c-2.052,0-4.441-1.139-4.441-4.633v-0.311c0-3.105,2.363-4.219,6.7-4.219h1.117v-0.75c0-1.268-0.416-1.5-1.714-1.5
				c-1.455,0-3.792,0.129-4.52,0.18c-0.441,0.027-0.571-0.207-0.571-0.518v-2.51c0-0.389,0.208-0.518,0.52-0.621
				c0.857-0.258,3.091-0.621,4.753-0.621c3.766,0,6.519,1.346,6.519,5.59v9.162C192.633,96.365,192.398,96.599,192.113,96.599z
				 M187.802,90.361h-1.272c-1.299,0-1.817,0.414-1.817,1.502v0.258c0,0.881,0.597,1.139,1.324,1.139
				c0.623,0,1.324-0.18,1.766-0.387V90.361z"/>
			<path fill="#FFFFFF" d="M213.564,81.537c0.363,0,0.545,0.207,0.441,0.57l-3.272,11.748c-0.753,2.717-2.545,2.977-4.285,2.977
				s-3.506-0.26-4.259-2.977l-3.247-11.748c-0.104-0.363,0.053-0.57,0.416-0.57h4.259c0.39,0,0.52,0.232,0.571,0.543l1.948,9.447
				c0.052,0.311,0.13,0.465,0.312,0.465s0.286-0.154,0.338-0.465l1.947-9.447c0.052-0.311,0.156-0.543,0.571-0.543H213.564z"/>
			<path fill="#FFFFFF" d="M226.965,90.464h-8.076v0.053c0,1.371,0.571,2.225,2.467,2.225c1.376,0,3.922-0.129,4.935-0.207
				c0.415-0.025,0.571,0.053,0.571,0.441v2.328c0,0.414-0.104,0.596-0.52,0.725c-1.662,0.543-3.454,0.803-5.636,0.803
				c-3.506,0-6.752-1.838-6.752-6.781v-1.707c0-4.555,2.648-7.039,6.908-7.039c4.545,0,6.648,2.873,6.648,7.039v1.553
				C227.511,90.232,227.276,90.464,226.965,90.464z M222.731,87.644c0-1.553-0.623-2.484-1.921-2.484
				c-1.247,0-1.922,0.932-1.922,2.484v0.078h3.843V87.644z"/>
			<path fill="#FFFFFF" d="M239.847,96.599h-10.414c-0.39,0-0.701-0.311-0.701-0.699v-2.174c0-0.439,0.078-0.725,0.39-1.139
				l4.96-6.703c0.078-0.104,0.104-0.182,0.104-0.232c0-0.104-0.078-0.156-0.234-0.156h-4.622c-0.26,0-0.416-0.154-0.416-0.414
				v-3.027c0-0.285,0.233-0.518,0.52-0.518h10.206c0.39,0,0.676,0.311,0.676,0.699v2.355c0,0.568-0.13,0.775-0.441,1.189
				l-4.727,6.393c-0.053,0.078-0.104,0.154-0.104,0.232c0,0.104,0.078,0.156,0.234,0.156h4.622c0.26,0,0.468,0.154,0.468,0.414
				v3.105C240.366,96.365,240.133,96.599,239.847,96.599z"/>
		</g>
	</g>
	<polygon fill="#C31726" points="85.62,70.714 85.62,93.804 56.286,82.259 	"/>
</g>
<g>
</g>
<g>
</g>
<g>
</g>
<g>
</g>
<g>
</g>
<g>
</g>
</svg>
