<?xml version="1.0" encoding="utf-8"?>
<!-- Generator: Adobe Illustrator 16.0.0, SVG Export Plug-In . SVG Version: 6.00 Build 0)  -->
<!DOCTYPE svg PUBLIC "-//W3C//DTD SVG 1.1//EN" "http://www.w3.org/Graphics/SVG/1.1/DTD/svg11.dtd">
<svg version="1.1" id="Layer_1" xmlns="http://www.w3.org/2000/svg" xmlns:xlink="http://www.w3.org/1999/xlink" x="0px" y="0px"
	 width="119.55px" height="201.414px" viewBox="0 0 119.55 201.414" enable-background="new 0 0 119.55 201.414"
	 xml:space="preserve">
<g>
	<path fill="#FFFFFF" d="M115.358,61.89c0.226-2.201,0.415-5.474,0.161-9.419c-0.69-10.727-4.563-26.166-19.118-38.8
		c-0.073-0.062-0.146-0.122-0.223-0.179l-1.192-0.917c-1.056-0.8-2.341-1.741-3.847-2.678c-3.103-1.933-5.68-3.456-10.641-5.448
		c-1.541-0.607-6.956-2.648-12.055-3.468l-0.26-0.046C66.374,0.641,63.005,0.089,59.764,0l-0.402,0.004
		C59.283,0.002,59.052-0.001,58.97,0l-0.691,0.014c-0.221-0.002-0.443,0.006-0.64,0.012l-0.412,0.017
		C57,0.046,56.752,0.057,56.333,0.08L55.43,0.131L51.91,0.43c-0.854,0.092-1.977,0.282-3.142,0.521
		c-1.733,0.344-3.674,0.811-4.949,1.188L42.8,2.435c-1.138,0.326-2.519,0.725-4.184,1.291c-0.876,0.312-1.755,0.634-2.706,0.99
		l-0.686,0.259c-0.953,0.363-1.914,0.748-2.877,1.145c-0.868,0.357-3.926,1.859-4.502,2.16c-0.225,0.116-0.525,0.257-0.891,0.43
		c-3.36,1.319-4.649,3.796-4.763,5.908c-2.115,4.909-8.51,5.588-10.06,5.688c-0.009,0-0.013,0-0.013,0
		c-2.168,0.043-3.752,1.699-3.775,3.768c0,0.062,0,0.186,0.005,0.299c0.002,0.059,0.002,0.121,0.007,0.181v0.003
		c0.2,3.121,2.675,5.487,5.332,7.151c-1.272,0.605-2.899,1.129-4.854,1.406c-6.686,0.964-8.696,6.196-8.83,8.871
		C0,42.14-0.003,42.29,0.007,42.443c0,0.019,0.003,0.037,0.003,0.062c0.069,0.871,0.432,1.677,0.993,2.301
		c0.312,0.412,0.628,0.798,0.945,1.179c1.482,1.797,2.558,3.098,2.905,8.518c0.202,3.178,0.096,7.266-0.328,12.509
		c-0.138,1.745-0.156,3.52-0.045,5.265c1.025,15.988,12.195,27.278,16.381,30.976c0.008,0.396,0.021,0.799,0.048,1.199
		c0.456,7.168,4.043,13.871,5.674,16.588c-0.046,0.674-0.043,1.371,0.002,2.078c0.503,7.902,6.398,16.113,7.136,17.113
		c0.713,0.91,4.482,4.771,10.643,8.686c-2.387,1.559-2.585,3.803-2.476,5.49l0.019,0.314c0.008,0.381,0.021,0.732,0.042,1.08
		c0.003,0.025,0.005,0.055,0.012,0.084l0.13,1.77c0.021,0.326,0.04,0.684,0.047,1.082c0.01,0.311,0.006,0.617,0.006,0.91
		c-0.002,0.563-0.001,1.094,0.029,1.578c0.001,0.012,0.001,0.02,0.001,0.033c0.046,0.697,0.193,2.697,1.725,4.217
		c1.668,1.662,3.79,2.314,6.877,2.117c0.411-0.025,0.854-0.068,1.343-0.131c1.204-0.148,2.086-0.266,2.732-0.354
		c0.602-0.08,0.954-0.133,1.073-0.145c0.09,0.004,0.236-0.004,0.331-0.008c0.023-0.004,1.138-0.113,2.589-0.289
		c-2.387,4.574-6.619,11.445-13.188,18.16c-0.999,0.912-1.526,2.182-1.444,3.48c0.001,0.006,0.001,0.01,0.001,0.018
		c0.237,3.662,4.563,4.818,6.644,5.373c1.491,0.4,4.434,1.047,6.021,0.947c0.464-0.031,1.102-0.176,1.523-0.369
		c1.68-0.764,5.106-5.002,7.749-8.904c0.126,1.316,0.235,2.627,0.314,3.852c0.17,2.66,0.144,4.082,0.089,4.801
		c-0.026,0.375-0.026,0.721-0.007,1.035v0.01c0.307,4.74,4.685,5.314,7.883,5.727c1.048,0.139,2.299,0.301,3.777,0.561
		c0.302,0.053,0.635,0.07,0.937,0.051c1.395-0.088,3.769-0.891,3.982-5.262c0.057-1.168,0.023-2.746-0.101-4.682
		c-0.45-6.936-2.108-18.76-4.595-26.807c1.702-0.102,3.327-0.141,3.855-0.15c0.396-0.01,1.116,0.059,1.844,0.117
		c0.778,0.061,1.561,0.123,2.175,0.143c0.344,0.01,0.775,0.016,1.241-0.016c4.042-0.258,6.479-3.117,6.213-7.289
		c-0.003-0.051-0.007-0.1-0.01-0.15l0,0l-0.13-1.947c0,0-0.003-0.014-0.003-0.02l-0.102-1.678c-0.001-0.168-0.013-0.346-0.02-0.574
		c-0.001-0.023-0.01-0.232-0.011-0.26l-0.028-0.514c0-0.066-0.004-0.283-0.005-0.346l-0.008-0.146l-0.17-0.012
		c0.034-0.129,0.068-0.262,0.093-0.395l0.077-0.006c0.002-0.082,0-0.197-0.005-0.301c-0.001-0.15,0-0.332-0.005-0.379
		c0.002-0.023-0.005-0.113-0.007-0.18c-0.002-0.025-0.002-0.055-0.005-0.078v-0.002c-0.154-2.43-1.377-4.295-3.383-5.24
		c0.789-0.689,1.585-1.424,2.367-2.205c4.868-4.883,7.898-9.18,9.829-13.934c0.17-0.416,4.14-10.352,3.4-21.934
		c-0.026-0.438-0.063-0.875-0.102-1.311c1.996-0.678,4.603-2.449,6.052-6.989c0.264-0.827,0.862-2.316,1.556-4.04
		c2.727-6.782,6.851-17.033,6.372-24.521C119.222,65.784,117.346,63.28,115.358,61.89z"/>
	<path fill="#C31727" d="M111.184,64.14c0,0,5.747-27.589-17.287-47.584c-0.013-0.01-0.759-0.59-1.21-0.936
		c-0.959-0.722-2.177-1.618-3.568-2.482C86.188,11.311,83.843,9.908,79.093,8c-1.205-0.474-6.476-2.482-11.267-3.252
		c-1.709-0.279-5.037-0.844-8.124-0.929c-0.155-0.003-0.325,0.002-0.515,0.002c-0.022-0.002-0.06-0.002-0.086-0.005
		c-0.157,0.005-0.327,0.008-0.508,0.008c-0.102,0-0.206,0.002-0.313,0.009c-0.173-0.003-0.354,0.004-0.54,0.01
		c-0.133,0.003-0.276,0.013-0.429,0.02c-0.182,0.002-0.372,0.009-0.567,0.021c-0.227,0.014-0.463,0.022-0.692,0.038
		c-0.245,0.013-0.509,0.029-0.769,0.051c-0.294,0.018-0.599,0.04-0.905,0.063c-0.222,0.018-0.433,0.034-0.653,0.056
		c-0.213,0.017-0.447,0.037-0.657,0.062c-0.247,0.024-0.492,0.048-0.741,0.073c-0.76,0.084-1.759,0.254-2.81,0.468
		c-1.689,0.337-3.497,0.776-4.609,1.104c-1.244,0.37-2.928,0.817-5.018,1.528c-0.858,0.303-1.717,0.621-2.576,0.94
		c-0.241,0.097-0.484,0.183-0.723,0.276c-0.925,0.352-1.852,0.719-2.792,1.109c-0.675,0.275-3.563,1.687-4.18,2.012
		c-0.303,0.156-0.721,0.351-1.17,0.563c-2.914,1.088-2.417,3.027-2.417,3.027c-2.948,8.728-13.871,8.869-13.871,8.869
		c-0.046,3.602,8.169,6.532,8.169,6.532c-1.282,3.038-5.728,5.493-10.951,6.237c-5.37,0.776-5.563,5.302-5.563,5.302
		c2.828,3.884,6.165,4.718,4.516,25.123c-1.645,20.402,16.4,34.198,16.4,34.198c-0.711,9.084,5.802,18.629,5.802,18.629
		c-1.364,7.469,6.191,17.73,6.191,17.73c0.529,0.674,5.401,5.742,13.716,10.172c1.29,0.693,2.202,1.125,2.683,1.404
		c0.034,0.025,0.063,0.035,0.091,0.055c0.047,0.029,0.087,0.066,0.128,0.092c0.043,0.033,0.075,0.059,0.103,0.086
		c0.009,0.006,0.029,0.027,0.046,0.037c0.227,0.279,0.567,0.852-0.213,0.984c-0.788,0.119-3.075,0.047-5.538,0.834
		c-2.455,0.777-2.063,1.664-2.016,3.113c0.023,1.311,0.188,2.24,0.233,3.994c0.04,1.756-0.171,3.322,0.635,4.121
		c0.786,0.785,1.917,1.297,5.054,0.906c2.97-0.367,3.965-0.547,4.311-0.527c0.338,0.002,6.928-0.789,7.875-1.176
		c0.874-0.361,1.238,0.283,0.714,1.547c-1.129,2.736-5.972,13.566-16.314,24.129c-1.744,1.592,7.861,3.482,8.588,3.152
		c0.734-0.332,5.669-6.121,8.516-11.352c0.155-0.209,1.522-2.553,2.542-5.75c0.171-0.52,0.522-0.865,0.69-0.088
		c0.114,0.557,2.188,15.25,1.795,20.693c-0.201,2.764,2.14,2.176,8.503,3.289c1.566,0.275-0.957-25.045-5.326-35.25l-0.002-0.014
		c-0.028-0.066-0.047-0.154-0.055-0.24c-0.021-0.361,0.207-0.676,0.542-0.75c0,0,0.159-0.051,0.246-0.07
		c2.095-0.441,7.016-0.566,7.86-0.576c0.822-0.035,3.05,0.219,4.239,0.254c1.183,0.033,3.858,0.15,3.567-3.369
		c-0.064-0.941-0.131-1.889-0.182-2.77c-0.004-0.113-0.013-0.238-0.021-0.352c-0.013-0.229-0.026-0.443-0.039-0.66
		c0.001-0.125-0.006-0.242-0.014-0.355c0-0.133-0.009-0.25-0.011-0.363c-0.005-0.105-0.013-0.215-0.021-0.314
		c-0.006-0.199-0.012-0.379-0.014-0.545c0.002-0.055,0-0.102-0.003-0.156c-0.01-0.125-0.01-0.244-0.011-0.352
		c0.001-0.053-0.002-0.105-0.006-0.154c0-0.104,0.004-0.186,0.007-0.264c-0.001-0.02-0.004-0.053-0.004-0.066
		c0.003-0.111-0.003-0.227-0.003-0.357c-0.03-0.855-0.267-2.1-1.947-2.42c-1.926-0.348-5.201-0.115-8.187,0.697
		c-0.41,0.115-0.671,0.068-0.759-0.063c-0.077-0.137,0.011-0.35,0.328-0.598c0.617-0.498,5.957-3.467,10.647-8.152
		c5.155-5.172,7.529-9.068,8.996-12.672c0,0,4.739-11.672,2.703-23.994l0.882-1.313c0,0,3.816,1.145,5.663-4.647
		C109.782,91.919,122.298,66.894,111.184,64.14 M19.754,84.384c-0.514-0.409-2.501-3.521-3.342-6.903
		c-0.088-0.346-0.168-1.244,0.434-1.455c0.49-0.169,1.145-0.491,1.481-0.624c0.345-0.13,1.178-0.301,1.219,0.894
		c0.021,1.196,0.032,2.605,1.144,6.218c0.206,0.646,0.243,0.85,0.301,1.1C21.113,84.355,20.225,84.773,19.754,84.384 M24.982,73.505
		c-0.159,0.014-1.669,0.082-2.485,0.189c-0.514,0.055-1.039,0.207-1.061-0.279c-0.031-0.562-0.152-1.296-0.181-1.498
		c-0.025-0.202,0.086-0.396,0.327-0.43c0.614-0.097,2.948-0.324,3.16-0.32c0.232,0.005,0.446,0.097,0.513,0.573
		c0.059,0.46,0.132,0.957,0.147,1.164C25.417,73.11,25.446,73.462,24.982,73.505 M23.092,47.676
		c-0.575,0.534-1.743,1.653-2.244,3.35c-0.513,1.709-2.5,7.693-2.218,16.971c0.038,1.074,0.38,2.529-0.659,2.985
		c-0.639,0.271-1.19,0.511-1.71,0.687c-0.516,0.191-0.975,0.217-1.273-0.496c-0.729-1.725-1.156-4.746-1.279-6.68
		c-0.11-1.949-0.103-7.734,0.241-10.879c0.343-3.129-0.149-4.929-1.163-6.511c-1.033-1.581-1.685-2.672-1.924-3.197
		c-0.299-0.665-0.038-1.079,0.661-1.51c0.343-0.201,0.996-0.025,1.504-0.097c1.02-0.131,4.482-1.119,7.117-2.921
		c2.641-1.791,6.893-5.324,9.7-6.598c2.812-1.277,4.044-1.871,7.236-2.028c0.557-0.027,1.383,0.335,0.381,0.992
		c-0.996,0.662-4.11,1.525-8.023,6.628c-2.407,3.118-2.885,4.986-3.681,6.403C24.959,46.201,24.276,46.57,23.092,47.676
		 M26.32,66.038c-0.084-0.717-0.202-1.924-0.091-2.669c0.051-0.299,0.186-1.034,0.566-1.414c0.558-0.546,1.261-1.014,1.722-1.341
		c0.84-0.593,0.784-2.28,0.907-3.253c0.365-2.779,0.731-11.648,7.067-19.721c3.217-4.114,6.696-4.206,10.308-4.563
		c3.46-0.343,7.412,0.475,9.413,1.271c1.593,0.631,2.396,1.077,2.969,0.607c0.587-0.48,2.116-1.998,2.759-2.524
		c0.642-0.536,0.336-1.288-0.327-1.751c-0.646-0.438-6.969-5.795-15.946-6.633c-8.773-0.828-16.117,1.788-18.053,2.311
		c-0.392,0.102-0.599,0.154-0.818,0.143c-0.215-0.013-0.976-0.329-0.641-0.864c0.335-0.568,1.187-1.433,2.05-2.111
		c0.897-0.701,5.319-4.327,9.556-5.863c0.784-0.277,0.979-0.401,1.479-0.549c0.639-0.205,1.105-1.571-0.252-1.682
		c-1.428-0.099-1.997,0.021-2.75,0.094c-0.752,0.063-1.136-0.297-0.624-0.901c0.519-0.604,1.479-1.246,3.191-2.036
		c3.739-1.711,10.469-3.321,13.617-3.794c4.117-0.605,4.62-0.624,7.331-0.601c2.523,0.017,4.536,0.343,5.485,0.447
		c8.04,0.862,17.146,4.172,24.003,9.405c6.507,5.503,15.756,14.563,16.284,35.407c0.06,2.492-0.206,3.889-0.33,4.498
		c-0.142,0.62-0.912,1.714-1.454,0.374c-1.736-4.417-4.501-10.224-7.7-15.788c-0.538-0.908-1.158-0.581-1.015,0.332
		c0.057,0.383,0.804,6.071,0.803,6.856c-0.008,0.78-0.523,2.673,2.137,6.401c1.092,1.531,2.061,2.835,2.442,5.011
		c0.396,2.176,0.511,3.102,0.506,3.319c-0.013,0.222,0.204,0.878-0.826,0.81c-1.021-0.063-4.903-0.616-6.581-0.7
		c-1.676-0.074-13.292,0.27-17.638,0.885c-4.361,0.609-6.755,1.533-9.104,3.698c-0.566,0.521-1.359,0.981-1.518,1.022
		c-0.167,0.034-0.727-0.013-1.82-0.165c-1.082-0.146-2.99-0.008-4.016,0.373c-1.022,0.378-1.771,0.74-2.933,0.167
		c-1.666-0.822-4.409-4.197-12.076-4.345c-7.161-0.146-8.906-0.158-16.819,0.836C26.863,67.135,26.4,66.786,26.32,66.038
		 M97.03,67.783c-0.014,0.26-0.076,0.905-0.081,1.146c-0.002,0.252-0.323,0.487-0.636,0.514c-0.302,0.021-2.377,0.066-2.706,0.066
		c-0.313,0-0.615-0.194-0.63-0.507c-0.007-0.298-0.025-1.02-0.032-1.2c-0.017-0.181-0.005-0.421,0.425-0.439
		c0.237-0.016,2.4-0.063,3.192-0.1C96.859,67.243,97.047,67.52,97.03,67.783 M87.154,70.581c-0.6-0.49-1.674-1.273-2.339-1.573
		c-0.453-0.199-0.237-0.767,0.424-0.814c2.354-0.181,3.835-0.078,4.947,0.725c0.803,0.58,1.298,1.629,0.971,2.508
		c-0.37,1.007-0.761,0.75-1.269,0.711C89.392,72.1,87.757,71.075,87.154,70.581 M88.191,75.201c-0.426,0.243-1.742-0.099-2.225-0.32
		c-0.963-0.451-1.644-0.774-2.963-1.747c-0.868-0.637-2.429-1.026-3.835-0.707c-0.925,0.209-1.653,0.392-2.482,0.641
		c-0.81,0.254-0.93-0.488-0.699-0.784c0.228-0.297,1.595-1.694,3.316-2.207c0.375-0.11,1.083-0.133,1.448-0.12
		c1.06,0.051,2.381,0.667,3.342,1.479c0.972,0.824,2.513,2.144,3.541,2.672C88.133,74.365,89.204,74.597,88.191,75.201
		 M54.574,95.295c0.281,0.446,0.421,1.236,0.364,1.563c-0.046,0.405-1.438,1.021-2.73-0.646c-1.299-1.662-0.879-3.835-0.23-4.717
		c1.024-1.413,2.803-0.546,2.582-0.034C53.819,93.237,54.293,94.844,54.574,95.295 M45.572,74.171
		c-1.036-0.109-2.152-0.312-4.107,0.263c-2.193,0.646-3.653,1.583-4.692,2.123c-1.068,0.569-2.167,0.763-2.541,0.764
		c-0.354,0.004-1.661-0.253-0.687-1.145c0.265-0.239,0.851-0.396,1.771-0.975c0.657-0.415,1.144-0.716,1.895-1.263
		c1.352-1,4.047-2.377,5.187-2.441c0.821-0.039,2.282,0.218,3.1,0.985C46.348,73.294,46.63,74.277,45.572,74.171 M27.441,74.784
		c0.161-0.678,1.024-2.443,2.651-2.85c0.209-0.052,1.013-0.259,1.686-0.379c0.799-0.132,1.639-0.257,2.064-0.3
		c1.16-0.123,1.343,0.774,0.588,1.281c-0.506,0.351-1.286,0.78-1.995,1.275c-1.067,0.753-2.101,1.608-2.894,2.18
		C28.567,76.697,27.116,76.178,27.441,74.784 M30.718,90.941c0.382,0.233,1.479,0.988,2.7,1.336
		c0.739,0.198,1.219-0.126,1.428-0.656c0.215-0.53,0.811-1.573-0.232-2.074c-1.044-0.507-4.024-1.677-6.021-6.087
		c-0.292-0.628,0.062-1.118,0.299-1.28c0.227-0.166,1.062-0.61,1.465-0.824c0.407-0.207,0.923-0.152,1.428,0.268
		c0.505,0.411,1.59,1.315,2.505,1.289c0.841-0.011,0.959-0.355,1.115-0.564c0.663-0.828,2.504-3.88,6.741-3.641
		c1.747,0.094,3.379,0.372,3.958,0.376c0.594,0.003,2.667-0.039,3.934-0.79c1.269-0.729,1.732-0.107,0.983,0.757
		c-0.751,0.848-1.299,1.293-0.582,2.175c0.534,0.653,0.779,0.908,0.96,1.086l-0.015,0.317c0.002,0.013-0.01,0.183-0.044,0.452
		c-0.157,1.286-0.977,2.646-1.716,3.424c-0.985,1.044-2.788,1.715-3.459,1.973c-0.865,0.341-2.284,0.543-2.475,0.563
		c-0.078,0.013-0.339,0.029-0.495,0.038l-0.303,0.033c-0.084,0.019-0.19,0.039-0.338,0.055l-0.133,0.013l-0.237,0.009
		c-0.097,0.006-0.202,0.021-0.321,0.055c-0.477,0.151-0.742,0.558-0.682,1.087c0.032,0.254,0.171,0.503,0.313,0.753
		c0.149,0.349,0.826,1.066,1.963,0.995c0.069-0.002,0.144-0.013,0.224-0.029c1.32-0.211,2.171-0.405,2.985-0.607
		c0.426-0.104,0.996-0.284,1.479-0.45c-0.222,0.272-0.436,0.564-0.607,0.888c-1.004,1.797-0.94,2.422-1.076,3.091
		c-0.138,0.668-0.681,0.903-1.273,1.129c-0.606,0.231-2.845,1.367-4.599,2.987c-1.74,1.621-3.883,1.749-5.646,0.006
		c-1.77-1.733-4.016-4.307-4.93-7.327C29.713,90.804,30.329,90.703,30.718,90.941 M51.417,131.683
		c-3.286,0.307-11.804-2.836-16.487-17.154c-1.211-3.686,0.643-7.16,2.095-7.771c0.851-0.367,1.306-0.502,1.601-0.563
		c0.303-0.055,1.804-0.137,1.856,1.533c0.028,1.359,1.893,12.576,5.14,16.471c0.813,0.969,1.49,0.959,1.777,0.047
		c0.253-0.848,0.706-1.955,0.85-2.379c0.109-0.295,1.013-1.184,1.411,0.051c0.853,2.596,1.878,6.006,2.608,7.389
		C52.977,130.658,52.659,131.564,51.417,131.683 M52.336,108.923c-4.15,1.129-5.187-0.367-5.518-0.814
		c-0.332-0.438,0.146-0.828,0.575-0.998c1.002-0.385,2.364-1.268,3.055-1.863c0.705-0.586,2.114-2.701,3.093-3.418
		c0.464-0.338,2.868-0.973,4.58-0.012c2.036,1.148,5.301,1.482,7.334,1.354c2.021-0.127,2.881-1.547,3.378-2.382
		c0.503-0.843,1.592-1.095,2.172-1.286c1.577-0.519,3.77-2.5,3.994-2.702c0.239-0.2,0.888-0.474,1.85,0.193
		c1.759,1.214,2.608,2.7,4.193,4.775c1.57,2.047,3.571,2.494,4.163,2.572s0.914,0.799,0.928,0.994
		c0.011,0.186-0.523,0.805-0.908,1.055c-0.389,0.254-0.627,0.729-3.912,0.586C64.853,106.242,57.329,107.542,52.336,108.923
		 M74.505,112.437c-1.033,0.443-4.005,1.326-5.457,1.51c-1.475,0.186-6.136,0.789-6.914,0.807c-0.972,0-2.306-0.379-3.425-1.266
		c-0.223-0.174-0.502-0.826,0.357-0.902c1.608-0.129,4.265-1.141,13.639-0.967c1.008,0.016,1.474,0.031,1.712,0.047
		C74.664,111.666,75.515,112.007,74.505,112.437 M108.922,76.136c-0.015,6.462-3.106,12.937-3.842,14.586
		c-1.645,3.654-2.115,6.185-2.41,7.394c-0.29,1.196-1.195,0.914-1.414,0.709c-0.207-0.221-0.426-1.177-0.567-1.321
		c-0.119-0.148-0.498-0.111-0.799,0.908c-0.307,1.019-1.194,2.384-1.715,3.139c-0.343,0.492-0.338,1.221-0.311,1.787
		c0.069,1.1,0.355,5.334-0.149,10.078c-0.898,8.453-4.104,13.592-6.412,16.238c-5.426,6.227-10.269,8.652-10.864,9.008
		c-0.746,0.453-1.946,0.287-2.341,0.129c-0.405-0.145-0.729-0.592-1.451-1.199c-0.737-0.594-0.917,0.395-0.922,0.643
		c-0.017,0.232,0.291,1.143,0.45,2.01c0.278,1.641-0.742,3.518-1.782,4.998c-0.642,0.924-1.314,1.893-1.871,2.912
		c-0.677,1.271-1.148,2.623-1.078,4.088c-0.038,0.23-0.038,0.393-0.243,0.457c-1.414,0.416-2.833-1.225-4.008-2.133
		c-0.813-0.639-1.599-1.273-2.357-1.918c0,0,0,0,0-0.006c-0.848-0.717-1.654-1.451-2.408-2.238c-0.05-0.049-0.101-0.1-0.151-0.154
		c-0.303-0.311-0.59-0.639-0.872-0.959c-0.091-0.107-0.166-0.203-0.251-0.303c-0.33-0.393-0.645-0.799-0.948-1.227
		c-2.936-4.141-2.455-6.834-1.169-11.85c0.885-3.557-0.051-7.012-0.268-7.504c-0.221-0.5,0.093-0.967,0.826-0.555
		c0.736,0.41,1.396,1.568,2.096,2.568c0.717,1,0.932,0.342,1.042-0.301c0.269-1.547-0.035-2.83-0.166-3.529
		c-0.08-0.402-0.395-1.355-1.193-1.574c-1.07-0.299-2.133-0.469-2.67-0.924c-0.266-0.221-0.545-0.639-0.222-0.895
		c0.598-0.504,1.439-1.156,2.227-1.361c1.053-0.291,2.082-0.766,3.414-0.654c8.817,0.656,11.345-1.223,14.826-2.395
		c0.683-0.227,1.091-0.33,1.649-0.115c0.56,0.219,2.063,0.912,2.403,1.619c0.346,0.715,0.221,3.596,0.825,5.725
		c0.61,2.131,2.024,0.064,2.353-0.811c0.334-0.873,0.602-3,0.642-3.535c0.055-0.527,0.36-2.787,1.13-3.5
		c1.52-1.416,1.972-3.176,2.188-3.867c0.222-0.697,0.509-2.803,0.242-5.84c-0.272-3.027-0.854-3.32-1.636-3.923
		c-0.781-0.609-1.652-0.422-3.639-1.995c-1.765-1.404-3.298-3.763-4.609-5.223c-1.312-1.459-3.424-2.977-5.759-3.385
		c-2.324-0.397-1.098,1.788-0.938,2.365c0.124,0.408,0.411,1.634-0.315,2.29c-0.705,0.651-4.849,3.89-8.512,3.546
		c-5.845-0.543-8.149-4.554-8.54-6.089c-0.423-1.638,1.161-5.35,1.31-8.067c0.055-1.194-0.031-3.495-0.101-5.092
		c-0.071-1.598,0.915-3.684,1.339-4.164c0.423-0.491,1.514-0.85,2.838-1.048c1.314-0.203,2.799,0.548,3.116,1.654
		c1.101,3.84,2.559,4.743,3.057,5.027c0.498,0.282,1.346-0.401,1.68-0.656c0.339-0.25,1.173-1.195,0.855-1.657
		c-0.472-0.716-0.729-1.145-0.855-1.571c-0.204-0.734,0.725-0.676,0.944-0.567c2.71,1.377,4.027,1.71,6.73,1.819
		c2.694,0.098,7.01-1.393,7.535-1.365c0.423,0.021,1.24,0.334,1.52,0.788c0.243,0.396,0.69,1.302,1.088,1.439
		c0.396,0.125,1.349,0.121,1.849,0.179c0.689,0.065,1.893-0.087,1.772,1.161c-0.313,3.337-3.1,5.238-3.355,5.429
		c-0.046,0.032-0.057,0.084-0.089,0.122c0.019-0.026,0.022-0.047,0.044-0.071c-0.462,0.297-1.038,0.563-1.845,0.755
		c-0.597,0.147-0.966,0.307-1.142,0.48c-0.367,0.379,0.379,1.031,1.033,1.493c0.467,0.333,1.936-0.077,3.063-0.52l0,0
		c0.046-0.014,0.086-0.006,0.118-0.029c2.341-1.195,3.364-2.716,4.473-4.636c1.108-1.917,2.071-8.421,2.193-9.497
		c0.128-1.067,0.522-1.712,1.089-2.108c0.549-0.405,3.282-1.898,3.664-1.954c0.376-0.063,0.806-0.073,1.169,0.932
		c0.358,1.01,0.87,7.111,0.995,8.052c0.128,1.005,0.645,0.916,0.918,0.747c0.594-0.375,1.023-0.838,1.591-1.671
		c0.557-0.822,0.269-2.023-0.193-2.616c-0.451-0.582-1.181-1.521-0.785-2.376c0.9-1.944,2.478-1.732,2.912-1.631
		C107.376,70.93,108.942,71.767,108.922,76.136"/>
</g>
<g>
</g>
<g>
</g>
<g>
</g>
<g>
</g>
<g>
</g>
<g>
</g>
</svg>
