<svg xmlns:xlink="http://www.w3.org/1999/xlink" xmlns="http://www.w3.org/2000/svg" viewBox="0 0 381 354" width="381"  height="354" ><g fill="#fffffe" fill-rule="evenodd"><path d="m299.5 230.37c3.84 2.04 4.82-1.84 6.14-4.72 1.03-2.26 2.21-9.24-1.25-5.6-3.7 3.9-9.71 7.75-4.9 10.32m-7.36 23.05c-6.64-.43-6.42-1.06-8.65-2.54-.72-.47-3.6.97-1.54 2.81.72.62 2.26 2.45 1.67 4.67-.8 2.89-5.01 8.39-.88 7.84 4.7-.6 5.8-7.25 6.32-8.23.53-1 1.33-1.4 2.36-1.53 1.98-.24 4.1-2.81.72-3.02m8.23-19.04c-2.28-1.94-4.56-4.01-6.9-3.94-2.33.08-3.23.44-3.7 2.36s.92 1.35 3.09 1.67c2.18.3 4.55 1.85 5.67 2.73 1.22.99 3.58 1.72 4.2.67s-.23-1.66-2.36-3.49m-212.66-.53c.38-1.19-.94-.55-3.45-.3-2.67.29-5.89.5-7.28 2.3-1.39 1.77-1.6 2.24-.62 3.97.97 1.74 1.45.3 3-1.1a9.87 9.87 0 0 1 4.72-2.39c1.4-.2 3.14-.94 3.63-2.48m8.35 19.35c1.58-2.66-.14-3.56-.81-3.02-2.16 1.73-2 1.81-7.84 4.21-3.43 1.42-1.89 2.58 0 2.77.88.08 2.64-1.06 2.98-.01.3 1.06 2.6 8.47 6.6 7.66 4.4-.88-2.14-5.56-2.43-8.65-.21-2.4.83-1.88 1.5-2.96m-14.71-22.87c1.72-1.68-1.58-2.13-3.9-11.81-1.5-6.3-3.1 2.26-2.67 5.5.55 4.18 3.85 8.93 6.57 6.3m91.24-64.2c1.25 3.73-2.05 5.77-4.58 5.51-1.49-.15-2.67-1.92-3.75-3.4-1.67-2.27-2.92-7.99-5.42-5.15-.41 2.18-.5 4.72-2 5.79-3.5-.3-6.99-.34-8.44 1.5-.32.32-1.24-.05-2.01-.99a4.63 4.63 0 0 1 .54-5.94c1.14-.5 2.26.83 3.8.5 1-.23 1.42-1.11 1.48-2.27-.8-1.49-2.88-2.52-5.55-.6-2.95 1.55-5.45 5.47-5.66 7.89-.04.73 1.22 2.33 3 2.39.6.01 1.53.54 1.2 1.62-2.83.82-6.4-.9-8.08-1.78-2.02-1.2-1.41-3.57-.78-5.86 1.32-3.45 3.09-5.71 4.72-7.75 4.19-5.26 14.64-6.43 21.39-3.05 6.3 3.15 3.56 9.04 6.6 11.92.8.64 2.8-1.3 3.54-.33m-5.46 15.87c.01-1.06.7-1.89 1.92-1.89 1.23.04 1.96.84 1.93 1.85 0 1.05-.73 1.91-2 1.91-1.2 0-1.86-.9-1.85-1.87m-9.02 9.65c.03-1.07.53-2 1.82-2 1.05.02 1.86.94 1.85 1.95 0 1.12-.83 2.19-1.9 2.05-1.27 0-1.77-1-1.77-2m34.79 26.7c9.36-.3 16.75 2.35 24.35 1.38 3.21-.26 3.8-3.79 5.7-4.18 2.54-.57 6.06-.97 7.83 1.3.99 1.54-4.98 4.33-7.6 5.57-4.65 2.23-9.11 8.25-10.78 11.17-5.42 8.93-13.94 9.98-24.74 9.7-7.47-.2-12.41-4.07-15.6-6.9-2.8-2.5-4.96-3.9-3.73-7.55 4.52 2.44 10 5.96 16.46 6.4 6.4.45 14.53.43 18.98-1.74 4.16-2.03 6.52-6.23 9.43-8.92-8.43 2.4-16.76.05-25.87.9-.92.08-4.5.43-5.42.47-5.86.4-10.84-.83-16.76-.85-2.9.05-6.57-2.01-8.68-4.18-2.24-2.83-1.7-4.54 1.27-4.16 6.52.8 8.94 4.47 15.89 3.92 7.2-.58 12.52-2.14 19.27-2.33m-16.61-17.39c1.75-.27 3.08-4.18 5.65-4.47 3.13-.32 4.36 3.45 10.26 3.46 4.2 0 5.16-4.42 9.3-3.18.99.29 1.65 1.54 2.32 2.54.28.43.99.75.9 1.18-.2.88-3.64 1.02-5.58 2.9-3.55 3.22-7.48 5.36-11.44 3.56-3.97-1.8-4.27-4.18-5.64-4.71-2.34-.82-1.56 2.14-5.1 1.25-1.78-.45-2.07-2.82-.67-2.53m37.17-17.7c-.21 1-1.18 1.39-2.32 1.16-1.1-.2-1.44-1.13-1.29-1.9.18-1.11.77-1.74 1.98-1.52 1.04.23 1.69 1.08 1.63 2.26m11.86 2.14c-.19 1.05-1.08 1.76-2.14 1.57-.9-.19-1.33-1.14-1.13-2.2.18-.9.93-1.67 1.78-1.51a1.83 1.83 0 0 1 1.49 2.14m-15.8-19.48c1.39-.15.5 1.93 1.43 2.26 2.4-.09 3.57-5.12 5.43-7.92 1.5-2.26 5.78-6.15 8.53-7.05 7.6-2.48 16.04 1.54 18.82 8.59.8 2.35 1 3.77.48 5.5-.73 2.14-1.63 6.1-11.11 4.18-.02-1.98 2.23-1.77 3.16-2.84 1.17-2.03-.1-5.96-2.87-6.07 0 1.3.05 4.34-1.62 6-1.68 1.65-4.9-.5-8.16-.45-2.03.04-2.52 1.6-4.58.76.2-3.12 1.6-5.65 2.53-5.85s2.78.52 4.74.37c.77-.4 1.78-2.32.76-3.2-1.76-1.39-3.82-.77-5.22.04-1.52.86-4.36 3.77-5.73 5.65-1.64 2.27-2.29 6.23-6.57 5.67-1.29-.16-2.1-.86-2.45-1.8-.47-1.85.62-3.44 2.43-3.84m4.84-27.2c2.26-1.53 3.07-2.49 5.45-3.63 7.13-2.88 15.1-1.42 20.32 1.39 2.11 1.14 4.9 3.7 4.22 6.87-.61 1.7-7.99-2.17-11.9-2.81-2.47-.4-4.34-.45-7.2-.43-1.26 0-3.1.19-4.37.46-1.86.39-3.08 1.01-4.54 1.58-1.9.74-5.97 1.87-6.23.73-.18-1.4 2.7-3.12 4.25-4.16m31.37 55.01a2.1 2.1 0 0 1 -2.38 1.64c-1.24-.23-2.03-1.27-1.8-2.38.25-1.21 1.27-1.73 2.48-1.49 1.13.16 1.95 1.08 1.7 2.23m-5.64-7.81c-1.5-.28-2.04-1.48-1.83-2.65.23-1.1 1.07-1.63 2.56-1.35 1.14.2 1.61 1 1.4 2.1-.23 1.18-.95 2.11-2.13 1.9m-7.08 6.95c-.2 1.02-1.2 1.82-2.2 1.62-1.46-.26-2.16-1.37-1.96-2.4.23-1.25 1.27-1.8 2.65-1.59a1.99 1.99 0 0 1 1.51 2.37m-81.74-6.95c-1.55-.03-2.45-.64-2.43-2.15 0-.82 1.25-1.83 2.44-1.83.76.02 1.98 1 1.96 1.89-.43 1.47-1.16 2.09-1.97 2.09m-8.05 10.84c-1.02.08-2.04-.83-2.03-1.72 0-1.03 1-2.12 2.07-2.09 1.1-.06 2.26 1.04 2.26 2.1-.01.9-1.2 1.71-2.3 1.71m-9.3-5.72c-1.17 0-1.8-.82-1.78-2.08 0-.98.64-1.71 1.83-1.71.96.02 2.26.74 2.24 1.74.04 1.27-1.3 2.09-2.3 2.05m25.29-56.38c2.12.87 3.72 2.06 5.68 3.28 1.58.99 4.7 2.52 4.5 3.9-.41 1.15-4.3.18-6.26-.34-1.63-.42-2.57-1.06-4.64-1.3a29.7 29.7 0 0 0 -4.38-.2c-2.86.16-4.3.14-7.18.88-3.84.98-11.1 5.25-11.7 3.55-.55-1.53.14-3.64 1.63-5.38-5.02 1.75-8.94 3.25-11.17 4.9-8.05 5.98-9.01 18.6-9.01 18.6s-.57-3.82-1.17-5.2c-1.12-2.55-2.3-3.86-4.9-3.25-3.51.8-4.85 7.36-5.08 13.32-.27 6.88 3.19 14.78 6.3 18.01 1.94 2.03 4.49 2.65 5.8 1.52v.02c.99 4.51 2.45 12 2.99 14.36 2.45 10.78 4.48 15.77 8.26 22.28 3.79 6.8 8.6 12.21 13.16 16.99 2.67 2.8 8.2 7.38 11.7 10.2 4.7 3.77 6.8 5.46 12.1 8.8 4.7 2.96 13.32 8.96 25.16 8.82 11.13-.13 17.19-4.49 20.81-6.58 7.8-4.5 11.83-8.05 17.25-13.12 6.22-5.81 9.39-8.72 13.16-13.14 4.9-5.72 9.42-11.83 13.49-26.25 2.23-7.88 3.54-17.25 4.46-22.4.9.6 2.85 1.22 5.81-1.52 3.3-3.04 6.43-11.2 6.3-18-.12-5.97-1.57-12.52-5.07-13.33-2.62-.6-3.7.74-4.91 3.26-1-16.48-24.63-39.16-28.55-57.36-1.24 7.94-29.51 46.05-55.6 42.71 14.69-14.02 22.14-27.98 24.87-43.65-15.21 18.86-34.67 28.45-50.52 34.5 2.35.02 5 .51 6.7 1.12"/><path d="m354.28 258.41c4.39 2.5 10.86-3.03 11.64-1.54 1.36 2.64-12.07 17.69-37.26 15.23a49.72 49.72 0 0 1 -3.77-.53c-28.5 44.4-78.3 73.8-134.97 73.8-56.53 0-106.23-29.26-134.76-73.47-4.77.88-9.38.9-13.6.23-24.36-3.8-28.53-16.82-25.88-15.36 1.28.7 5.81 3.23 10.76 1.76 0 0-7.4-1.3-13.49-9.34-8.25-10.92-5-27.14-1.03-22.69 3.56 4.48 8.24 9.19 17.18 8.9-8.1-9.43-8.9-22.68-6.1-20.32 2.5 2.6 5.83 7.9 12.34 12.53a160.49 160.49 0 0 1 -5.7-42.5c0-60.41 33.42-113 82.77-140.33a113.95 113.95 0 0 1 18.64-19.25c25.77-21.13 83.85-23.52 89.3-3.79 22.9-7.18 36.7 5.57 46.46 22.7 49.7 27.22 83.4 80 83.4 140.66 0 14.86-2.04 29.25-5.83 42.9 8.08-5.47 12.27-12.09 13.2-12.87 2.9-2.45 2 10.8-6.1 20.22 12.53.64 16.43-9.62 18.67-9.62 2.72 0 7.11 25.2-15.87 32.68m25.55-29.55c-1.58-9.94-7.94-12.3-12.97-10.4.54-3.49-1.21-12.46-10.27-11.36a168.24 168.24 0 0 0 -84.12-168.5c-10.8-18.01-25.93-30.38-48.19-25.97-6.31-7.9-19.24-12.28-36.9-12.28-23.14 0-57.54 6.7-80.33 38.38a168.35 168.35 0 0 0 -83.93 168.23c-4.77-.45-10.1 3.45-9.44 11.48-6.12-2.01-10.17 1.86-11.87 5.25-3.61 7.2-1.95 22.62 5.54 31.19-1.54 8.38 6.93 16.26 17.06 20.62 9.1 3.91 19.8 5.34 26.85 4.83a167.6 167.6 0 0 0 138.6 72.92 167.54 167.54 0 0 0 138.83-73.23c24.71 2.82 48.83-13.75 44.67-25.58a33.76 33.76 0 0 0 6.47-25.58"/><path d="m189.25 321.03c5 1.28 9.68-1.46 10.45-5.03a9.53 9.53 0 0 0 -1.1-6.51c-.84-1.56-1.76-2.4-3.54-3.6-1.85-1.25-4.8-1-6.3-.38-4.93 2.01-7.9 13.38.49 15.52"/><path d="m315.42 200.42c4.48 2.16 8.67 4.45 11.15 6.92 4.78 4.78-2.57 11-6.98 15.87-6.01 6.65-8.86 9.15-11.66 12.19-1.03 1.11-2.16 1.8-.34 3.4 2.25 1.97-1.64 8.92-2.5 10.24-4.6 7.28-8.82 4.8-9.03 6.01-.29 1.69 3.34.2.83 11.6-.65 2.95-1.41 6.74-2.75 13.1-1.15 5.46-3.43 8.34-9.1 7.49-1.84-.28-12.3-2.77-17.99-6.93-7.2-5.27-6.93-7.3-6.06-10.03.3-1.01 5-8.98 10.8-14.34 4.82-4.45 11.1-6.25 8.12-8.17-2.94-1.9-1.69-7.98 1.18-13.07 4.24-7.54 10.74-6.22 11.13-6.84.33-.53-.85-.9-1.04-4.3-.08-3.2 6.08-27.54 12.43-27.11 2.65.17 7.28 1.77 11.81 3.97m-218.46 88.24c-4.56-.15-7.75-7.53-9.95-14.93-1.58-5.27-3.75-9.53-3.77-11.01-.04-3.03 1.08-3.74.76-4.37-.5-1-4.53 1.5-8.1-5.1-1.1-1.72-2.17-4.41-3.28-7.45-1.38-4.92-1.69-7.1-.52-8.38 4.02-2.81-5.64-4.8-12.1-12.73-2.26-2.86-5.18-8.18-5.8-10.08-.76-2.4-.67-5.78 5.4-10.4 5.83-4.83 14.49-7.1 16.17-7.24 2.16-.15 7.66.25 10.1 9.25 2.06 7.62 4.53 20.37 4.53 22.08-.02 2.63-3.9 3.22.55 3.68 5.68.58 10.3 12.86 8.96 15.15-.85 1.45-2.04 2 .1 4.1.76.76 13.24 13 15.18 15.2 2 2.3 5.24 5.38 3.98 10.28-1.17 4.53-12.87 12.26-22.2 11.95m180.1-222.15 1.87 4.67c3.27 8.28 22.8 40.47 22.56 77.44-7.65-32.93-35.43-36.63-45.54-72.15-.9 32.08 42.7 50.13 42.7 86 0 27.9-20.43 47.14-20.43 47.14a26.93 26.93 0 0 1 9.87 5.23c-.81 4.95-.24 9.34-.24 9.34-9.15 2.06-16.57 16.66-13.26 22.88 0 0-5.5 2.7-10.08 8.67-7.2-1.38-13.84-5.4-19.3-15.94-.46.63-.94 1.3-1.45 2.07-3.3 4.69-3.43 4.87-3.56 8.42-.12 14.89-3.43 35.33-6 3.03-16.37 13.9-30.45 22.66-43.78 22.82-13.1.15-26.79-8.53-44.86-23.42-.14 7.18-.2 14.32-.34 24.06a76.63 76.63 0 0 0 3.17 4.7c2.38 3.3 5.8-7.86 9.93-5.52 4.43 2.5 4.2 10.32 8.94 14.03 2.8 2.2 8.04-10.31 10.8-3.46 2.97 7.4 8.3 9.1 14.09 12.05 2.58-2.28 6.36-2.6 9.52-6.32 2.96-3.5 4.74-7.07 6.93-7.75 3.38-1.05 5.37 7.3 9.03 5.97 5.96-2.19 4.91-13.17 10.44-14.65 2.8-.76 3.25 4.06 6.57 4.56 3.3.5 6.46-11.07 8.15-15.88.86-2.38 2.08-3.06 3.92-2.35 2.61.98 2.77 4.49 3.01 10.54.38 8.49 4.28 16.63 9.02 22.3 4.73 5.67-7.3 2.53-12.03-9.75-2.94-7.65-2.12-7.72-4.3-3.77 0 0-.85 1.45-2 3.1.5 1.82 1.3 3.67 2.27 5.93 3.28 7.54 10.02 13.75 7.33 17.74a5.06 5.06 0 0 1 -4.52 1.76 6.3 6.3 0 0 1 -4.79-2.17c-1.64-1.73-7.77-8.46-10.5-21.36-.63-.72-1-1.3-1-1.3s-1.8 6.23-5.04 10.28c2.72 12.39 8.1 18.45 6.7 22.3-.5 1.43-2.6 2.4-2.6 2.4-.96.49-1.75.63-2.86.59a7.14 7.14 0 0 1 -4.26-2.38c-2.46-3.11-6.64-11.08-9.2-22.39-1.6-1.42-2.54-2.56-3.31-1.22-1.12 1.94-2.52 4.83-8.18 6.9 3.03 2.32 5.65 4.71 6.8 8.91v.01c2.17 9.98-5.24 16.28-13.96 16.93-6.3.43-13.92-2.22-15.93-8.13-2.22-7.53 2.44-14.4 6.96-17.63-4.18-1.1-7.51-3.95-9.95-7.52 0 0-.84 1.15-2.3 2.23-.95 6.43-4.38 16.46-9.15 22.3a5 5 0 0 1 -4 1.63 5.79 5.79 0 0 1 -2.84-.95s-1.46-1.15-2.1-2.53c-1.88-4.1 3.51-8.36 6.54-22.84a28.03 28.03 0 0 1 -4.34-8.64c-.05-.15-1.32 1.57-3.22 2.88-2.3 6.48-6.69 15.81-11.45 20.12a5.66 5.66 0 0 1 -5.58 1.42c-8.64-2.55-.16-9.28 2.73-15.69 2.14-4.72 2.9-7.2 3.48-9.4-.67-1.34-1.3-2.83-2.29-4.3-.6-.9-2.64-3.87-3.06-1.32a27.75 27.75 0 0 1 -2.6 8.05c-2.9 5.81-11.27 12.27-14.93 9.82 3.27-1.32 8.75-7.81 10.43-13.62a47.7 47.7 0 0 0 1.65-18.9c-.55-5.06 4.45-2.27 7.76 1.2 0 0 .4-10.97.43-14.85a12.1 12.1 0 0 0 -2.78-7.22l-.27-.33c-6.4 7.82-15.2 11.3-25.3 12.83l-8.54-8.19c3.57-5.86-4.37-18.33-9.45-19.8 0 0 1.4-6.3-.06-12.55 2.28-2.45 5.04-4.37 8.38-5.08-26.84-29.53-26.18-63.22-20.53-79.03 5.48-15.32 18.09-26.84 37.41-36.97-15.45 3.46-25.3 9.73-32.45 17.9 2.9-16.85 7-31.12 12.41-43.47-34.49 27.04-56.72 69.05-56.72 116.18 0 17.23 3 33.76 8.45 49.14 5 1.26 10.94 1.98 18.08 1.82-3.3 4.11-.27 17.96 8.87 25.3-.24.2-.48.36-.73.56a51.34 51.34 0 0 1 -9.2 5.95c26.57 39.1 71.41 64.85 122.16 64.85 51.08 0 96.17-26.08 122.69-65.63-4.9-2.7-8.14-5.85-10.3-7.91a7.46 7.46 0 0 0 -.6-1.68c5.83.71 14.54-12.38 9.58-19.35l2.48-1.86a65.5 65.5 0 0 0 15.16-1.54 146.9 146.9 0 0 0 8.61-49.65c0-48.54-23.55-91.67-59.82-118.59"/><path d="m92.1 152.66c16.93-40.39 70.3-30.33 85.27-58.71-29.08 27.95-79.06 17.56-85.28 58.71m242.86 142.58h1.83c.93 0 1.61-.55 1.61-1.46 0-.86-.68-1.47-1.6-1.47h-1.84zm4.86 3.47v.19h-1.23l-1.98-2.68h-1.65v2.68h-1.19v-7.61h3.12c1.51 0 2.7.9 2.7 2.49 0 1.14-.7 2.07-1.8 2.28zm2.98-3.63c0-8.98-12.98-8.98-12.98 0 0 8.96 12.98 8.96 12.98 0zm-14.38 0c0-10.59 15.75-10.59 15.75 0s-15.75 10.63-15.75 0z"/></g></svg>