<svg xmlns="http://www.w3.org/2000/svg" id="Layer_1" data-name="Layer 1" viewBox="0 0 158 146"><defs><style>.cls-1{fill:none}.cls-2{fill:#fff}.cls-3{fill:#cd2028}</style></defs><path d="M140.7 119.76a.64.64 0 00-.69-.63h-.78v1.26h.77a.63.63 0 00.7-.63z" class="cls-1"/><path d="M137 120.32a2.79 2.79 0 105.57 0 2.79 2.79 0 10-5.57 0zm4.29 1.63h-.53l-.85-1.15h-.7v1.2h-.51v-3.26h1.33a1.06 1.06 0 011.16 1.07 1 1 0 01-.77 1l.87 1.13z" class="cls-1"/><path d="M116.28 25.55c.27.67.53 1.34.79 2 1.41 3.54 9.77 17.34 9.67 33.19-3.28-14.12-15.18-15.7-19.51-30.92-.39 13.74 18.3 21.48 18.3 36.85 0 12-8.76 20.2-8.76 20.2a11.43 11.43 0 014.23 2.25 15.19 15.19 0 00-.1 4c-3.92.88-7.1 7.14-5.68 9.81a13.62 13.62 0 00-4.32 3.71c-3.09-.59-5.94-2.31-8.27-6.83-.2.27-.41.56-.63.89-1.41 2-1.47 2.08-1.53 3.6 0 6.38-1.46 15.14-2.57 1.3-7 6-13 9.71-18.76 9.78s-11.48-3.65-19.22-10c-.06 3.08-.09 6.14-.15 10.31.33.55.76 1.2 1.36 2 1 1.42 2.48-3.37 4.26-2.37s1.8 4.43 3.83 6c1.2.94 3.44-4.42 4.62-1.49 1.28 3.18 3.57 3.9 6 5.17 1.11-1 2.73-1.11 4.08-2.71s2-3 3-3.32c1.45-.45 2.31 3.13 3.87 2.56 2.56-.94 2.11-5.65 4.48-6.28 1.2-.33 1.39 1.74 2.81 2s2.77-4.74 3.5-6.8c.36-1 .89-1.31 1.68-1 1.11.42 1.18 1.92 1.29 4.52a16.65 16.65 0 003.86 9.56c2 2.43-3.13 1.08-5.15-4.19-1.26-3.27-.91-3.3-1.85-1.61 0 0-.36.62-.86 1.33a20.83 20.83 0 001 2.54c1.4 3.23 4.29 5.9 3.14 7.6a2.15 2.15 0 01-1.93.76 2.73 2.73 0 01-2.06-.93 18.68 18.68 0 01-4.5-9.15 5.32 5.32 0 01-.43-.56 14.8 14.8 0 01-2.16 4.4c1.17 5.31 3.47 7.91 2.88 9.56-.22.61-1.12 1-1.12 1a2.16 2.16 0 01-1.23.26 3.06 3.06 0 01-1.82-1 26.33 26.33 0 01-4-9.59c-.68-.61-1.08-1.1-1.41-.53a5.7 5.7 0 01-3.51 3 7 7 0 012.91 3.82c.94 4.28-2.24 7-6 7.26-2.7.18-6-1-6.82-3.49-1-3.22 1-6.16 3-7.55a7.66 7.66 0 01-4.26-3.22 5.34 5.34 0 01-1 1 22.43 22.43 0 01-3.92 9.56 2.15 2.15 0 01-1.72.69 2.37 2.37 0 01-1.21-.4 3.55 3.55 0 01-.91-1.09c-.8-1.75 1.51-3.58 2.81-9.78a11.87 11.87 0 01-1.86-3.71 14.37 14.37 0 01-1.38 1.24c-1 2.77-2.87 6.77-4.91 8.62a2.45 2.45 0 01-2.39.61c-3.7-1.09-.07-4 1.17-6.72a24.36 24.36 0 001.49-4 13.38 13.38 0 00-1-1.85c-.26-.38-1.13-1.65-1.31-.56a12 12 0 01-1.11 3.45c-1.25 2.49-4.84 5.26-6.41 4.21 1.4-.57 3.75-3.35 4.47-5.84a20.24 20.24 0 00.71-8.1c-.23-2.17 1.91-1 3.33.51 0 0 .17-4.7.18-6.36a5.17 5.17 0 00-1.19-3.1l-.07-.32c-2.74 3.35-6.51 4.85-10.84 5.5l-3.66-3.51c1.53-2.51-1.87-7.85-4.05-8.48a13.64 13.64 0 000-5.38A6.94 6.94 0 0141 87.25c-11.5-12.66-11.22-27.09-8.8-33.87 2.34-6.56 7.75-11.5 16-15.84-6.55 1.46-10.77 4.17-13.84 7.67a80.27 80.27 0 015.32-18.63A63.18 63.18 0 0019 97.43a29 29 0 007.75.78c-1.41 1.76-.11 7.7 3.81 10.84l-.32.24a21.41 21.41 0 01-3.94 2.55 63.21 63.21 0 00104.94-.33 20.49 20.49 0 01-4.42-3.39 2.8 2.8 0 00-.26-.72c2.5.3 6.24-5.31 4.11-8.29l1.06-.8a28.38 28.38 0 006.5-.66 63.2 63.2 0 00-21.94-72.1zm-77.2 95.2c-1.95-.06-3.32-3.22-4.26-6.39-.68-2.26-1.61-4.09-1.62-4.73 0-1.29.46-1.6.33-1.87-.22-.43-2 .65-3.47-2.18a18.28 18.28 0 01-1.41-3.2c-.59-2.11-.72-3-.22-3.59 1.72-1.2-2.42-2.06-5.18-5.45A20.08 20.08 0 0120.76 89c-.33-1-.29-2.47 2.31-4.45A16.43 16.43 0 0130 81.46c.93-.07 3.28.1 4.33 4a84.24 84.24 0 011.94 9.47c0 1.12-1.67 1.38.24 1.57 2.43.25 4.41 5.51 3.84 6.49-.37.63-.88.86 0 1.76.33.33 5.68 5.57 6.51 6.52s2.24 2.3 1.7 4.4c-.46 1.9-5.47 5.22-9.48 5.08zm93.63-37.82a18.85 18.85 0 014.78 3c2 2-1.1 4.71-3 6.8-2.58 2.85-3.8 3.92-5 5.23-.44.47-.93.77-.15 1.45 1 .85-.7 3.83-1.07 4.39-2 3.12-3.78 2.06-3.87 2.58-.12.72 1.43.08.36 5-.28 1.26-.61 2.89-1.18 5.61-.49 2.34-1.47 3.58-3.9 3.21-.79-.12-5.27-1.18-7.71-3-3.09-2.25-3-3.12-2.6-4.29a23.87 23.87 0 014.63-6.15c2.06-1.91 4.76-2.68 3.48-3.5s-.72-3.42.5-5.6c1.82-3.23 4.61-2.67 4.78-2.93s-.37-.39-.45-1.85 2.61-11.8 5.33-11.62a16.79 16.79 0 015.07 1.67z" class="cls-2"/><path d="M126.25 97.49c-1-.83-2-1.72-3-1.69s-1.39.19-1.59 1 .39.58 1.32.72a5.73 5.73 0 012.44 1.17c.52.42 1.53.74 1.8.28s-.05-.7-.97-1.48zm-3.52 8.16c-2.85-.18-2.76-.45-3.71-1.09-.31-.2-1.54.42-.66 1.21a2.05 2.05 0 01.71 2c-.33 1.23-2.14 3.59-.37 3.36 2-.26 2.48-3.11 2.71-3.53a1.21 1.21 0 011-.66c.86-.1 1.76-1.2.32-1.29zm3.16-9.88c1.64.88 2.06-.79 2.63-2 .44-1 .94-4-.54-2.4s-4.16 3.3-2.09 4.4zm-87.2 9.78c.68-1.13-.06-1.52-.35-1.29-.92.74-.85.78-3.36 1.81-1.46.6-.8 1.1 0 1.18.37 0 1.13-.45 1.27 0s1.12 3.63 2.83 3.28c1.89-.38-.91-2.38-1-3.71-.08-1.02.32-.82.61-1.27zm-3.58-8.29c.17-.51-.4-.23-1.47-.12s-2.53.21-3.12 1-.69 1-.27 1.7.62.13 1.29-.47a4.15 4.15 0 012-1 1.84 1.84 0 001.57-1.11zm-2.72-1.51c.74-.71-.68-.91-1.67-5.06-.64-2.7-1.33 1-1.15 2.36.24 1.79 1.65 3.83 2.82 2.7zM37 62.47c7.26-17.31 30.13-13 36.55-25.17C61.08 49.28 39.66 44.83 37 62.47zm41.63 72.16c2.15.54 4.15-.63 4.48-2.16a4.19 4.19 0 00-2-4.34 3.29 3.29 0 00-2.71-.16c-2.08.87-3.4 5.74.23 6.66zM65.75 54.75a16 16 0 012.44 1.4c.67.43 2 1.09 1.92 1.67s-1.84.08-2.68-.14a11.7 11.7 0 00-2-.56 13.13 13.13 0 00-1.86-.12 13.57 13.57 0 00-3.08.37c-1.65.42-4.76 2.25-5 1.52a2.53 2.53 0 01.71-2.3 19.86 19.86 0 00-4.79 2.1c-3.45 2.56-3.86 8-3.86 8a13.66 13.66 0 00-.55-2.21c-.47-1.1-1-1.66-2.1-1.4-1.5.34-2.08 3.16-2.17 5.71a12.09 12.09 0 002.69 7.72c.84.87 1.93 1.13 2.49.65.42 1.93 1 5.14 1.27 6.15a29.38 29.38 0 003.55 9.55 36 36 0 005.63 7.28 66.41 66.41 0 005 4.37 45.55 45.55 0 005.18 3.77c2 1.27 5.71 3.84 10.79 3.78a16 16 0 008.92-2.82 35.59 35.59 0 007.39-5.62 67.51 67.51 0 005.69-5.62c2.1-2.45 4-5.07 5.78-11.25a95.73 95.73 0 001.91-9.6c.39.26 1.22.52 2.49-.65s2.76-4.8 2.7-7.72c0-2.55-.67-5.36-2.17-5.71-1.12-.26-1.59.32-2.11 1.4-.42-7.06-10.55-16.78-12.23-24.58-.53 3.4-12.65 19.73-23.83 18.3 6.29-6 9.49-12 10.66-18.71-6.53 8.09-14.86 12.2-21.65 14.79a9.72 9.72 0 012.87.48zM54.92 78.91c-.5 0-.78-.35-.76-.89a.7.7 0 01.78-.73c.41 0 1 .32 1 .74a.94.94 0 01-1.02.88zm4 2.45a.83.83 0 01-.87-.73.94.94 0 01.89-.9 1 1 0 011 .9c-.05.37-.56.73-1.04.73zm3.46-4.65c-.67 0-1.06-.27-1-.91 0-.36.54-.79 1-.79.32 0 .85.43.84.81-.22.63-.52.9-.86.89zm35 3a.86.86 0 01-1 .7.92.92 0 01-.84-1 .89.89 0 011.14-.68.86.86 0 01.71.96zm3-3a.92.92 0 01-.78-1.14c.09-.47.46-.7 1.09-.58a.69.69 0 01.6.9c-.05.52-.36.92-.87.83zm2.42 3.34a.91.91 0 01-1 .71.88.88 0 01-.77-1 .82.82 0 011.06-.64.8.8 0 01.75.94zM89.39 56.49a15.61 15.61 0 012.34-1.56 10.64 10.64 0 018.71.6c.9.49 2.09 1.58 1.8 2.94-.26.73-3.42-.93-5.09-1.2a16.82 16.82 0 00-3.09-.19 11 11 0 00-1.88.2 11.84 11.84 0 00-1.94.68c-.82.32-2.56.8-2.67.31s1.16-1.33 1.82-1.78zm-2.07 11.66c.59-.07.21.82.61 1 1 0 1.53-2.19 2.33-3.39a9.59 9.59 0 013.65-3 6.59 6.59 0 018.09 3.62 3.47 3.47 0 01.2 2.35c-.31.93-.69 2.62-4.76 1.8 0-.85 1-.76 1.36-1.22.5-.87 0-2.55-1.23-2.6a3.7 3.7 0 01-.7 2.57c-.71.71-2.09-.21-3.49-.19-.87 0-1.08.69-2 .33.08-1.34.68-2.43 1.08-2.51s1.19.22 2 .15c.33-.16.77-1 .33-1.37a2 2 0 00-2.24 0 11.42 11.42 0 00-2.46 2.42c-.7 1-1 2.67-2.81 2.43a1.17 1.17 0 01-1-.77 1.3 1.3 0 011.04-1.62zm6.77 8.35a.78.78 0 01-.92.67.75.75 0 01-.48-1 .72.72 0 01.76-.64.78.78 0 01.64.97zM89 75.58c-.09.43-.51.59-1 .49a.66.66 0 01-.55-.81c.08-.48.33-.75.85-.65a.88.88 0 01.7.97zm-15.92 7.58c.75-.11 1.32-1.79 2.42-1.91 1.34-.14 1.87 1.48 4.39 1.48 1.81 0 2.22-1.89 4-1.36.43.12.71.66 1 1.08.13.19.43.33.39.51-.08.38-1.56.44-2.39 1.25-1.52 1.37-3.21 2.29-4.9 1.52s-1.83-1.79-2.42-2c-1-.35-.67.92-2.19.54-.78-.22-.9-1.27-.3-1.11zm7.11 7.45c4-.12 7.18 1 10.44.6 1.38-.11 1.63-1.63 2.45-1.79 1.08-.25 2.59-.42 3.35.55.42.66-2.13 1.86-3.25 2.39-2 1-3.91 3.53-4.63 4.79-2.32 3.83-6 4.27-10.6 4.16a10.19 10.19 0 01-6.68-3c-1.2-1.06-2.13-1.66-1.6-3.23 1.93 1 4.28 2.56 7 2.74s6.23.19 8.14-.74 2.79-2.67 4-3.83c-3.6 1-7.18 0-11.08.39-.4 0-1.93.19-2.33.2-2.5.17-4.64-.36-7.17-.36a5.87 5.87 0 01-3.73-1.79c-1-1.22-.72-2 .55-1.79 2.79.35 3.83 1.92 6.81 1.68s5.44-.88 8.33-.97zM65.28 79.17c0-.46.23-.85.78-.85a.82.82 0 01.8.83c0 .48-.36.94-.81.88a.77.77 0 01-.77-.86zM69.15 75a.83.83 0 011.65 0 .8.8 0 01-.85.82.77.77 0 01-.8-.82zm2.34-6.81a1.78 1.78 0 01-2 2.37c-.64-.07-1.15-.83-1.61-1.46-.72-1-1.25-3.42-2.32-2.21-.18.94-.22 2-.86 2.48-1.5-.12-3-.14-3.62.65-.13.13-.53 0-.86-.43a2 2 0 01.23-2.54c.49-.22 1 .35 1.63.21.43-.1.61-.48.64-1-.34-.64-1.24-1.08-2.38-.26A5.1 5.1 0 0058 69.45a1.37 1.37 0 001.29 1 .52.52 0 01.51.69 5.24 5.24 0 01-3.46-.76c-.87-.51-.61-1.53-.34-2.52a12.05 12.05 0 012-3.32c1.79-2.25 6.27-2.75 9.16-1.3 2.7 1.35 1.53 3.87 2.84 5.11.31.3 1.18-.53 1.49-.12z" class="cls-2"/><path d="M54.94 77.29a.7.7 0 00-.78.73c0 .54.26.89.76.89a.94.94 0 001-.88c-.01-.42-.57-.74-.98-.74zm3.98 2.44a.94.94 0 00-.89.9.83.83 0 00.87.73c.48 0 1-.34 1-.73a1 1 0 00-.98-.9zM62.36 75c-.51 0-1 .43-1 .79 0 .64.38.9 1 .91.34 0 .66-.26.84-.89.01-.37-.52-.81-.84-.81zm4.5 4.15a.82.82 0 00-.8-.83c-.55 0-.76.39-.78.85a.77.77 0 00.77.86c.45.06.81-.4.81-.88zM70.8 75a.83.83 0 10-.85.82.8.8 0 00.85-.82zm17.51-.39c-.52-.1-.77.17-.85.65a.66.66 0 00.55.81c.49.1.91-.06 1-.49a.88.88 0 00-.7-.97zm4.38 1.61a.75.75 0 00.48 1 .81.81 0 00.28-1.59.72.72 0 00-.76.59zm8.04-1.22c-.63-.12-1 .11-1.09.58a.92.92 0 00.78 1.14c.51.09.82-.31.91-.82a.69.69 0 00-.6-.9zm-3.99 3.68a.89.89 0 00-1.14.68.92.92 0 00.84 1 .87.87 0 00.3-1.71zm4.31 1.07a.88.88 0 00.77 1 .91.91 0 001-.71.8.8 0 00-.73-1 .82.82 0 00-1.04.71zM65.13 89.93c-1.27-.16-1.51.57-.55 1.79a5.87 5.87 0 003.73 1.79c2.53 0 4.67.53 7.17.36.4 0 1.93-.16 2.33-.2 3.9-.36 7.48.65 11.08-.39-1.24 1.16-2.25 3-4 3.83s-5.4.93-8.14.74-5.12-1.69-7-2.74c-.53 1.57.4 2.17 1.6 3.23a10.19 10.19 0 006.68 3c4.63.11 8.28-.33 10.6-4.16.72-1.26 2.63-3.83 4.63-4.79 1.12-.53 3.67-1.73 3.25-2.39-.76-1-2.27-.8-3.35-.55-.82.16-1.07 1.68-2.45 1.79-3.26.41-6.42-.72-10.44-.6-2.89.09-5.16.76-8.25 1s-4.1-1.36-6.89-1.71zM90.24 58a11.84 11.84 0 011.94-.68 11 11 0 011.88-.2 16.82 16.82 0 013.09.19c1.67.27 4.83 1.93 5.09 1.2.29-1.36-.9-2.45-1.8-2.94a10.64 10.64 0 00-8.71-.6 15.61 15.61 0 00-2.34 1.56c-.66.45-1.9 1.18-1.82 1.78s1.85-.03 2.67-.31zM73.36 84.25c1.52.38 1.19-.89 2.19-.54.59.23.72 1.25 2.42 2s3.38-.15 4.9-1.52c.83-.81 2.31-.87 2.39-1.25 0-.18-.26-.32-.39-.51-.28-.42-.56-1-1-1.08-1.77-.53-2.18 1.36-4 1.36-2.52 0-3-1.62-4.39-1.48-1.1.12-1.67 1.8-2.42 1.91-.58-.14-.46.91.3 1.11zm-6.22-20.98c-2.89-1.45-7.37-1-9.16 1.3a12.05 12.05 0 00-2 3.32c-.27 1-.53 2 .34 2.52a5.24 5.24 0 003.46.76.52.52 0 00-.51-.69 1.37 1.37 0 01-1.29-1 5.1 5.1 0 012.43-3.38c1.14-.82 2-.38 2.38.26 0 .49-.21.87-.64 1-.66.14-1.14-.43-1.63-.21a2 2 0 00-.23 2.54c.33.41.73.56.86.43.63-.79 2.12-.77 3.62-.65.64-.45.68-1.54.86-2.48 1.07-1.21 1.6 1.24 2.32 2.21.46.63 1 1.39 1.61 1.46a1.78 1.78 0 002-2.37c-.31-.41-1.18.42-1.51.15-1.38-1.3-.21-3.82-2.91-5.17zm20.19 7.29c1.83.24 2.11-1.45 2.81-2.43a11.42 11.42 0 012.46-2.42 2 2 0 012.24 0c.44.38 0 1.21-.33 1.37-.84.07-1.63-.24-2-.15s-1 1.17-1.08 2.51c.88.36 1.09-.32 2-.33 1.4 0 2.78.9 3.49.19a3.7 3.7 0 00.7-2.57c1.19.05 1.73 1.73 1.23 2.6-.4.46-1.36.37-1.36 1.22 4.07.82 4.45-.87 4.76-1.8a3.47 3.47 0 00-.2-2.35 6.59 6.59 0 00-8.07-3.68 9.59 9.59 0 00-3.65 3c-.8 1.2-1.3 3.36-2.33 3.39-.4-.14 0-1-.61-1a1.3 1.3 0 00-1 1.64 1.17 1.17 0 00.94.81zm34.99 22.29c.08 1.46.59 1.62.45 1.85s-3-.3-4.78 2.93c-1.22 2.18-1.76 4.79-.5 5.6s-1.42 1.59-3.48 3.5a23.87 23.87 0 00-4.63 6.15c-.37 1.17-.49 2 2.6 4.29 2.44 1.79 6.92 2.85 7.71 3 2.43.37 3.41-.87 3.9-3.21.57-2.72.9-4.35 1.18-5.61 1.07-4.89-.48-4.25-.36-5 .09-.52 1.9.54 3.87-2.58.37-.56 2-3.54 1.07-4.39-.78-.68-.29-1 .15-1.45 1.2-1.31 2.42-2.38 5-5.23 1.89-2.09 5-4.75 3-6.8a18.85 18.85 0 00-4.78-3 16.79 16.79 0 00-5.06-1.7c-2.73-.15-5.37 10.28-5.34 11.65zm.1 14.09a1.21 1.21 0 00-1 .66c-.23.42-.7 3.27-2.71 3.53-1.77.23 0-2.13.37-3.36a2.05 2.05 0 00-.71-2c-.88-.79.35-1.41.66-1.21 1 .64.86.91 3.71 1.09 1.43.09.53 1.19-.32 1.29zm4.85-8c-.27.46-1.28.14-1.8-.28a5.73 5.73 0 00-2.47-1.13c-.93-.14-1.52.1-1.32-.72s.59-1 1.59-1 2 .86 3 1.69 1.26 1.04 1 1.5zm.71-7.63c1.48-1.56 1 1.43.54 2.4-.57 1.23-1 2.9-2.63 2-2.07-1.04.51-2.71 2.11-4.36zM46.9 111.23c-.83-1-6.18-6.19-6.51-6.52-.92-.9-.41-1.13 0-1.76.57-1-1.41-6.24-3.84-6.49-1.91-.19-.25-.45-.24-1.57a84.24 84.24 0 00-1.94-9.47c-1-3.86-3.4-4-4.33-4a16.43 16.43 0 00-6.93 3.1c-2.6 2-2.64 3.43-2.31 4.45a20.08 20.08 0 002.49 4.33c2.76 3.39 6.9 4.25 5.18 5.45-.5.55-.37 1.48.22 3.59a18.28 18.28 0 001.41 3.2c1.52 2.83 3.25 1.75 3.47 2.18.13.27-.34.58-.33 1.87 0 .64.94 2.47 1.62 4.73.94 3.17 2.31 6.33 4.26 6.39 4 .14 9-3.18 9.52-5.12.5-2.06-.89-3.38-1.74-4.36zM30.72 90.69c1 4.15 2.41 4.35 1.67 5.06-1.17 1.13-2.58-.91-2.82-2.7-.18-1.39.51-5.05 1.15-2.36zm.82 8.66c-.67.6-.87 1.22-1.29.47s-.33-.94.27-1.7 2-.86 3.12-1 1.64-.39 1.47.12a1.84 1.84 0 01-1.55 1.07 4.15 4.15 0 00-2.02 1.04zm7.55 11.18c-1.71.35-2.7-2.83-2.83-3.28s-.9 0-1.27 0c-.81-.08-1.47-.58 0-1.18 2.51-1 2.44-1.07 3.36-1.81.29-.23 1 .16.35 1.29-.29.47-.73.25-.64 1.27.12 1.33 2.94 3.33 1.03 3.71z" class="cls-3"/><path d="M149.36 107.79c9.85-3.21 8-14 6.81-14-1 0-2.64 4.4-8 4.13 3.47-4 3.85-9.72 2.6-8.67a26.12 26.12 0 01-5.65 5.52 68.79 68.79 0 00-33.25-78.67C107.69 8.74 101.78 3.28 92 6.36 89.63-2.1 64.74-1.07 53.69 8a49 49 0 00-8 8.25 68.76 68.76 0 00-33 78.36c-2.8-2-4.22-4.26-5.3-5.37s-.86 4.65 2.61 8.69c-3.83.12-5.84-1.9-7.36-3.82-1.71-1.9-3.1 5 .44 9.73a10.25 10.25 0 005.78 4 6.13 6.13 0 01-4.61-.76c-1.14-.62.65 5 11.09 6.59a17.39 17.39 0 005.83-.1 68.71 68.71 0 00115.6-.14c.52.09 1 .17 1.61.23 10.8 1 16.55-5.4 16-6.53-.38-.64-3.14 1.73-5.02.66zm-11.14-10.14a28.38 28.38 0 01-6.5.66l-1.06.8c2.13 3-1.61 8.59-4.11 8.29a2.8 2.8 0 01.26.72 20.49 20.49 0 004.42 3.39 63.21 63.21 0 01-104.94.33 21.41 21.41 0 003.94-2.55l.32-.24c-3.92-3.14-5.22-9.08-3.81-10.84a29 29 0 01-7.74-.78 63.18 63.18 0 0120.68-70.85 80.27 80.27 0 00-5.32 18.63c3.07-3.5 7.29-6.19 13.91-7.67-8.28 4.34-13.69 9.28-16 15.84-2.42 6.78-2.7 21.21 8.8 33.87a6.94 6.94 0 00-3.6 2.18 13.64 13.64 0 010 5.38c2.18.63 5.58 6 4.05 8.48l3.66 3.51c4.33-.65 8.1-2.15 10.84-5.5l.12.14a5.17 5.17 0 011.19 3.1c0 1.66-.18 6.36-.18 6.36-1.42-1.49-3.56-2.68-3.33-.51a20.24 20.24 0 01-.71 8.1c-.72 2.49-3.07 5.27-4.47 5.84 1.57 1 5.16-1.72 6.41-4.21a12 12 0 001.11-3.45c.18-1.09 1.05.18 1.31.56a13.38 13.38 0 011 1.85 24.36 24.36 0 01-1.49 4c-1.24 2.74-4.87 5.63-1.17 6.72a2.45 2.45 0 002.39-.61c2-1.85 3.92-5.85 4.91-8.62a14.37 14.37 0 001.38-1.24 11.87 11.87 0 001.86 3.71c-1.3 6.2-3.61 8-2.81 9.78a3.55 3.55 0 00.91 1.09 2.37 2.37 0 001.21.4 2.15 2.15 0 001.72-.69 22.43 22.43 0 003.92-9.56 5.34 5.34 0 001-1 7.66 7.66 0 004.26 3.22c-1.94 1.39-3.94 4.33-3 7.55.86 2.54 4.12 3.67 6.82 3.49 3.74-.28 6.92-3 6-7.26a7 7 0 00-2.91-3.82 5.7 5.7 0 003.51-3c.33-.57.73-.08 1.41.53a26.33 26.33 0 004 9.59 3.06 3.06 0 001.82 1 2.16 2.16 0 001.23-.26s.9-.41 1.12-1c.59-1.65-1.71-4.25-2.88-9.56a14.8 14.8 0 002.16-4.4 5.32 5.32 0 00.43.56 18.68 18.68 0 004.5 9.15 2.73 2.73 0 002.06.93 2.15 2.15 0 001.93-.76c1.15-1.7-1.74-4.37-3.14-7.6a20.83 20.83 0 01-1-2.54c.5-.71.86-1.33.86-1.33.94-1.69.59-1.66 1.85 1.61 2 5.27 7.18 6.62 5.15 4.19a16.65 16.65 0 01-3.86-9.56c-.11-2.6-.18-4.1-1.29-4.52-.79-.3-1.32 0-1.68 1-.73 2.06-2.08 7-3.5 6.8s-1.61-2.28-2.81-2c-2.37.63-1.92 5.34-4.48 6.28-1.56.57-2.42-3-3.87-2.56-.94.29-1.7 1.82-3 3.32S81 124 79.88 125c-2.47-1.27-4.76-2-6-5.17-1.18-2.93-3.42 2.43-4.62 1.49-2-1.59-1.94-4.94-3.83-6s-3.24 3.79-4.26 2.37c-.6-.82-1-1.47-1.36-2 .06-4.17.09-7.23.15-10.31 7.74 6.39 13.61 10.11 19.22 10s11.75-3.82 18.76-9.78c1.11 13.84 2.53 5.08 2.57-1.3.06-1.52.12-1.6 1.53-3.6.22-.33.43-.62.63-.89 2.33 4.52 5.18 6.24 8.27 6.83a13.62 13.62 0 014.32-3.71c-1.42-2.67 1.76-8.93 5.68-9.81a15.19 15.19 0 01.1-4 11.43 11.43 0 00-4.23-2.25s8.76-8.24 8.76-20.2c0-15.37-18.69-23.11-18.3-36.85 4.33 15.22 16.23 16.8 19.51 30.92.1-15.85-8.26-29.65-9.67-33.19-.26-.66-.52-1.33-.79-2a63.2 63.2 0 0121.94 72.1zM84.53 39.48c-1.17 6.72-4.37 12.7-10.66 18.71 11.18 1.43 23.3-14.9 23.83-18.3 1.68 7.8 11.81 17.52 12.23 24.58.52-1.08 1-1.66 2.11-1.4 1.5.35 2.12 3.16 2.17 5.71.06 2.92-1.29 6.42-2.7 7.72s-2.1.91-2.49.65a95.73 95.73 0 01-1.91 9.6c-1.75 6.18-3.68 8.8-5.78 11.25a67.51 67.51 0 01-5.64 5.63 35.59 35.59 0 01-7.39 5.62 16 16 0 01-8.92 2.82c-5.08.06-8.77-2.51-10.79-3.78a45.55 45.55 0 01-5.18-3.77 66.41 66.41 0 01-5-4.37 36 36 0 01-5.63-7.28 29.38 29.38 0 01-3.55-9.55c-.23-1-.85-4.22-1.27-6.15-.56.48-1.65.22-2.49-.65a12.09 12.09 0 01-2.69-7.72c.09-2.55.67-5.37 2.17-5.71 1.12-.26 1.63.3 2.1 1.4a13.66 13.66 0 01.51 2.22s.41-5.41 3.86-8a19.86 19.86 0 014.79-2.1 2.53 2.53 0 00-.71 2.3c.26.73 3.37-1.1 5-1.52a13.57 13.57 0 013.07-.39 13.13 13.13 0 011.87.08 11.7 11.7 0 012 .56c.84.22 2.51.64 2.68.14s-1.25-1.24-1.92-1.67a16 16 0 00-2.44-1.4 9.72 9.72 0 00-2.87-.48c6.78-2.55 15.11-6.66 21.64-14.75zM37 62.47c2.66-17.64 24.08-13.19 36.55-25.17C67.13 49.47 44.26 45.16 37 62.47zM78.42 128a3.29 3.29 0 012.71.16 4.19 4.19 0 012 4.34c-.33 1.53-2.33 2.7-4.48 2.16-3.65-.95-2.33-5.82-.23-6.66z" class="cls-3"/><path d="M141.21 119.76a1.06 1.06 0 00-1.16-1.07h-1.33V122h.51v-1.2h.7l.85 1.15h.53v-.08l-.87-1.13a1 1 0 00.77-.98zm-2 .63v-1.26h.79a.64.64 0 01.69.63.63.63 0 01-.69.63z" class="cls-3"/><path d="M136.42 120.32c0 4.55 6.75 4.53 6.75 0s-6.75-4.54-6.75 0zm.6 0a2.79 2.79 0 115.57 0 2.79 2.79 0 11-5.59 0z" class="cls-3"/></svg>