<svg xmlns="http://www.w3.org/2000/svg" viewBox="0 0 258.93 74.12"><defs><style>.cls-1{fill:#c81126;}.cls-2,.cls-8{fill:#33251f;}.cls-3,.cls-7{fill:#b31b3b;}.cls-3,.cls-5,.cls-6,.cls-8{fill-rule:evenodd;}.cls-4{fill:#369fdb;}.cls-5{fill:#800030;}.cls-6{fill:#ead0cd;}</style></defs><g id="Capa_2" data-name="Capa 2"><g id="Layer_1" data-name="Layer 1"><path class="cls-1" d="M59.92,26.66a4.46,4.46,0,0,0-2.2-.81,11.51,11.51,0,0,0-2.14.1h-.06A12.62,12.62,0,0,0,51.8,27.2a14.9,14.9,0,0,0-2.95,2.12A21.43,21.43,0,0,0,46.33,32a29.24,29.24,0,0,0-2.23,3.55,39.28,39.28,0,0,0-2.82,7.28,14.9,14.9,0,0,1-2.19-.35,3.38,3.38,0,0,0-.59-.1h-.21c2.42-10.07,4.12-15.75,5.34-19.69.67-1.93,1.35-3.86,2-5.78a8.53,8.53,0,0,0,.78-3.26c-.13-2-1.52-4.06-4-3.5-2.64.58-4.19,3.9-6.27,11.26C34.41,27.57,33.41,31.53,32,38.22c-.6,3.06-1.22,6.11-1.84,9.16-.1.47-.18.92-.26,1.37-.21.94-.34,1.23-.66,1.32-.17,0-.38-.09-.49-.49a32,32,0,0,1-.52-4.88c-.17-5.22-.61-10.61-.42-17.47.13-3.93.1-4.54-.15-5.56-.5-1.92-2.87-3.07-5.49-2.41s-3.39,3.6-4.91,7.61c-1,2.71-2.56,7.54-4.09,12.22S10,49.88,10,49.88c-.1.4-.2.82-.31,1.23s-.2.81-.32,1.22c-.38,1-.52,1.22-.75,1.3s-.41-.15-.47-.46A62.68,62.68,0,0,1,8,46.62c.12-4.18.52-8.73.92-12.77.22-3,1-8.09,1.18-11,.1-.88.17-1.8.19-2.43.07-1.86-.07-2.77-.87-3.71-1.28-1.11-2.85-1-4.65-.62-2.88.67-5,2.45-4.78,3.42,0,.17.18.3.33.51a5.12,5.12,0,0,1,.84,1.64,13.93,13.93,0,0,1,.31,3.49c-.08,1.52-.13,3-.21,4.53C.92,34.25.37,42.49.23,48.11a110.92,110.92,0,0,0,.41,13,28.71,28.71,0,0,0,1,5.46c.46,1.9,1.43,4,3.12,4.43a6.86,6.86,0,0,0,3.82-.18,6.07,6.07,0,0,0,4.27-4.09c.66-2.52,1.28-5,1.94-7.54.55-2.68,1.86-7.45,3-11.58.63-2.45,1.45-5.21,1.89-6.63.28-.71.4-.93.58-1s.28,0,.3.16a1.78,1.78,0,0,1,.06.45,4.47,4.47,0,0,1,0,.52c0,.51,0,1,.05,1.55a105.45,105.45,0,0,0,2,17.29c.6,2.34.76,5.2,4.35,5.73a7.22,7.22,0,0,0,3-.21c2.62-.81,3.32-2.31,3.91-4.92.38-1.65,1.58-6.2,2.25-9.11.19-.89.39-1.73.58-2.57a31.05,31.05,0,0,0,3.6.59c0,.27,0,.41.06.59a2.08,2.08,0,0,1,.06.46c0,.23.06.45.1.66s.13.58.2.85A10.54,10.54,0,0,0,42.52,56a8,8,0,0,0,2.63,2.31,8.64,8.64,0,0,0,4.51.63,3.74,3.74,0,0,0,.68-.06h.11a1.27,1.27,0,0,1,.37-.07v0l.78-.21A11.43,11.43,0,0,0,58.89,52a3,3,0,0,0-.09-2.67,1.83,1.83,0,0,0-1.45-.83c-.2,0-.39,0-.57.06A6.48,6.48,0,0,0,54,50a5.45,5.45,0,0,1-2.16,1.17,3.22,3.22,0,0,1-2.1-.12,1.73,1.73,0,0,1-1-1.11,5.45,5.45,0,0,1-.27-1.33,17.13,17.13,0,0,0,4.62-2,22.18,22.18,0,0,0,4.33-3.78A21.52,21.52,0,0,0,60.5,38,17,17,0,0,0,62,32.24a7.12,7.12,0,0,0-.47-3.56A4.47,4.47,0,0,0,59.92,26.66ZM54.47,37.39a14,14,0,0,1-2.59,3.12,13,13,0,0,1-2.7,1.88,4.31,4.31,0,0,1-1,.44,13.28,13.28,0,0,1,.76-2.73A22.31,22.31,0,0,1,51,36.34a14.73,14.73,0,0,1,2.59-3.09A3.33,3.33,0,0,1,55,32.44c.83-.14.87.92.87,1.13A8.15,8.15,0,0,1,54.47,37.39ZM161.59,45.6a8,8,0,0,1-2.37,4.83,13.81,13.81,0,0,1-4.17,2.77,17.37,17.37,0,0,1-4.7,1.27,20,20,0,0,1-3.7.12l-.27,0c-2.49-.33-4.19-1.1-5.17-2.45A5.52,5.52,0,0,1,140,48a3.55,3.55,0,0,1,1.78-2.83,4,4,0,0,1,2.2-.62.13.13,0,0,1,.08,0,5.07,5.07,0,0,1,2.29,1,5.11,5.11,0,0,0,2.37.81,5.52,5.52,0,0,0,3-.2c.47-.22.73-.49.78-.7s0-.31-.33-.65a7.34,7.34,0,0,0-1.77-1.19c-.78-.4-1.65-.81-2.63-1.26a18.14,18.14,0,0,1-2.8-1.59,8.06,8.06,0,0,1-2.19-2.25,5,5,0,0,1-.67-3.44,11,11,0,0,1,1.95-4.57,18.18,18.18,0,0,1,3.84-3.95,18.67,18.67,0,0,1,4.94-2.69,11.67,11.67,0,0,1,5.46-.6,5.63,5.63,0,0,1,3.92,2.31,7.32,7.32,0,0,1,.87,5.25,6.6,6.6,0,0,1-1.14,2.9A3.21,3.21,0,0,1,158.65,35a2.19,2.19,0,0,1-1.92-1.38,7,7,0,0,1-.42-1.41,2.63,2.63,0,0,0-.3-1,1.08,1.08,0,0,0-.67-.17,3.48,3.48,0,0,0-.91.16,12.06,12.06,0,0,0-1.59.7,7.5,7.5,0,0,0-1.44,1.15,2.15,2.15,0,0,0-.59,1.12.89.89,0,0,0,.33.88A10.63,10.63,0,0,0,153,36.5a25.7,25.7,0,0,0,2.67,1.43,17.32,17.32,0,0,1,3,1.78,9.5,9.5,0,0,1,2.21,2.37A5.14,5.14,0,0,1,161.59,45.6ZM142.88,24a2.72,2.72,0,0,1,0-1.6c.09-.31.37-1,.53-1.67a5.64,5.64,0,0,0,.07-2.61,4.89,4.89,0,0,1,0-2.34,2.28,2.28,0,0,1,1.76-1.52,4.19,4.19,0,0,1,2.58.28,3.84,3.84,0,0,1,1.74,2.13,8.27,8.27,0,0,1,0,3.72,9,9,0,0,1-1.21,3.09A5.4,5.4,0,0,1,146.84,25a3,3,0,0,1-2.85.23A2.12,2.12,0,0,1,142.88,24Zm-1.78.73a6.59,6.59,0,0,1,.08,2.18,16.13,16.13,0,0,1-.47,2.73s-1.27,5-1.78,7.42c-.41,1.91-.66,3.39-.94,5.11a1.11,1.11,0,0,1,0,.13c-.27,1.66-.7,5.41-1,8-.49,5.11-.61,6.31-2,10.23a15.07,15.07,0,0,1-6.24,7.52,19.61,19.61,0,0,1-9.25,2.41h0l-.53-.06a10.05,10.05,0,0,1-1.19-.1c-3.54-.66-5.59-2.9-5.22-5.82a2.47,2.47,0,0,1,2.94-2.23,23,23,0,0,0,4,.35c3.7,0,6.2-1.26,7.74-3.78a14.26,14.26,0,0,0,2-6.78c0-.33.07-.65.12-1,.15-1.25.28-2.4.37-3.6a15.33,15.33,0,0,1-1.72,2A17.78,17.78,0,0,1,124.85,52a8.17,8.17,0,0,1-3.25,1.13h0a4.52,4.52,0,0,1-3.88-1.94,11.72,11.72,0,0,1-1.8-4.07,21.44,21.44,0,0,1-.6-5,41.94,41.94,0,0,1,.19-4.76c.42-4.51,1.35-8.1,2.77-10.65,1.55-2.86,3.51-4.31,5.84-4.25a4.29,4.29,0,0,1,.64.06,2.67,2.67,0,0,1,1.09.42,2.47,2.47,0,0,1,.9,1,3.21,3.21,0,0,1,.25,1.84,7.67,7.67,0,0,1-.87,2.56,24.29,24.29,0,0,0-1.29,2.93c-.36.93-.69,2.06-1,3.31a25.64,25.64,0,0,0-.71,4c0,.22-.06.7-.11,1.48a12.32,12.32,0,0,0,0,2,4.61,4.61,0,0,0,.35,1.57,1,1,0,0,0,.51.46c.14,0,.3.05.49.05a1.84,1.84,0,0,0,1-.32,7.15,7.15,0,0,0,1.61-1.67A20.06,20.06,0,0,0,129.23,38c.37-.89.87-2.35,1.37-3.92.6-1.75,1.62-5.18,2.19-6.62A16.4,16.4,0,0,1,134,25a6.75,6.75,0,0,1,1.69-1.72,4.62,4.62,0,0,1,2.77-.76,3.77,3.77,0,0,1,.77.16,2.3,2.3,0,0,1,1.14.67A3.07,3.07,0,0,1,141.1,24.76ZM115.55,2.94c-2.85-.44-4.9,1.71-5.8,3.83-.3.74-.4,1.13-.72,2.1a21.64,21.64,0,0,0-.65,2.64c-.16.71-.43,1.8-.54,2.28-.2.87-.2,1-.46,2.35s-.42,2.22-.6,3.41c-.12.88-.26,1.62-.4,2.53a24.85,24.85,0,0,0-6.21,2.41A26.41,26.41,0,0,0,94,29.21,28,28,0,0,0,89.14,36a24.2,24.2,0,0,0-2.53,8.57,9.65,9.65,0,0,0-.08,1.23A4.18,4.18,0,0,1,85.8,45a6.07,6.07,0,0,1-.88-2.12,11.23,11.23,0,0,1-.3-2.63c0-.9.08-1.44.11-2A17.58,17.58,0,0,1,85,36.34c.06-.4.11-.73.13-1.07s.07-.43.12-.65a18.45,18.45,0,0,0,.32-5.84c-.14-1.13-1.06-3.31-3.36-3.37a4.64,4.64,0,0,0-.52,0,10.36,10.36,0,0,0-4.44,1.75,20.83,20.83,0,0,0-4.08,3.77,19.81,19.81,0,0,0-1.29,1.74c.23-.68.52-1.35.81-2,.17-.4.32-.8.49-1.19a.46.46,0,0,1,.07-.16,12.49,12.49,0,0,0,.84-2.7,2.61,2.61,0,0,0-.33-1.7,2.22,2.22,0,0,0-.92-.8,2.39,2.39,0,0,0-1-.24,3.72,3.72,0,0,0-.62,0,4.93,4.93,0,0,0-2.33.78A8.12,8.12,0,0,0,67.3,26a11.88,11.88,0,0,0-1.16,1.62,15.06,15.06,0,0,0-1.38,3.23c-.41,1.32-.81,2.78-1.18,4.35s-.68,3.07-1,4.65-.52,2.92-.64,4.06c-.15,1.39-.25,2.74-.33,4a21.82,21.82,0,0,0,.09,3.59,7,7,0,0,0,.79,2.71A2.4,2.4,0,0,0,65,55.31H65A14.87,14.87,0,0,0,66.59,55a5,5,0,0,0,2.31-2.11,21.76,21.76,0,0,0,1.48-4.93c.13-.53.26-1,.36-1.43C72.9,38,76.05,36.23,77.62,35.91c-.1,1-.21,1.92-.32,2.88-.07,1.24-.19,2.34-.2,3.65a22.07,22.07,0,0,0,.59,5.15,10.61,10.61,0,0,0,1.75,4,3.8,3.8,0,0,0,3.38,1.64h0a6.16,6.16,0,0,0,1.78-.46,5.52,5.52,0,0,0,1.75-1.26,4.38,4.38,0,0,0,1-1.32,5.77,5.77,0,0,0,1.1,1.41,4.14,4.14,0,0,0,3,.86h.09c.11,0,.43-.06,1.43-.18a12.28,12.28,0,0,0,3.25-1.05,24,24,0,0,0,7.54-5.74,13.61,13.61,0,0,0,.57,5.88A10,10,0,0,0,105.71,54a3.92,3.92,0,0,0,3.34,1.49h.18A6.11,6.11,0,0,0,111,55a4.88,4.88,0,0,0,1.41-1.14,4.09,4.09,0,0,0,.9-3.28,2.92,2.92,0,0,0-.45-1,4.66,4.66,0,0,1-.25-.4,7.62,7.62,0,0,1-.94-2.15,19.25,19.25,0,0,1-.4-5.42c0-1.23.13-2.57.22-3.83s.25-2.51.4-3.85c.08-.87.18-1.75.28-2.62,0-.33.06-.58.1-.81h.16a3.59,3.59,0,0,0,2-.69,4,4,0,0,0,1.43-3,3.66,3.66,0,0,0-.9-3,7.48,7.48,0,0,0-1.51-1.12,12.35,12.35,0,0,0,.22-1.31c.09-.53.18-1,.28-1.34s.09-.52.15-.8.08-.43.1-.64c0-.05.92-4.21,2.7-10.4a14,14,0,0,0,.5-2.43A2.35,2.35,0,0,0,115.55,2.94ZM103.69,35.1a25.63,25.63,0,0,1-3,4.85,15.61,15.61,0,0,1-3.35,3.28c-1,.69-1.83,1.23-2.5,1.12-.44-.11-.38-.89-.32-1.38a11.63,11.63,0,0,1,1.36-4.27,19.43,19.43,0,0,1,2.76-4,17,17,0,0,1,3.56-3,10.34,10.34,0,0,1,2.93-1.27A17.86,17.86,0,0,1,103.69,35.1Z"/><path class="cls-1" d="M163,52.21a1.81,1.81,0,1,1,0,3.61,1.81,1.81,0,1,1,0-3.61Zm0,.37A1.42,1.42,0,0,0,161.56,54,1.44,1.44,0,0,0,163,55.47a1.45,1.45,0,0,0,0-2.89Zm-.27,2.36h-.41V53.15a4.86,4.86,0,0,1,.68-.06,1,1,0,0,1,.63.15.42.42,0,0,1,.18.37.5.5,0,0,1-.36.45h0c.17.07.25.2.31.46a2.15,2.15,0,0,0,.12.42h-.43a1,1,0,0,1-.15-.42.33.33,0,0,0-.37-.3h-.2Zm0-1h.19c.23,0,.41-.07.41-.25s-.11-.27-.36-.27h-.24Z"/><path class="cls-2" d="M218.77,74.12A35.24,35.24,0,0,1,193.5,14.33a35.24,35.24,0,0,1,50.56,49.1A35,35,0,0,1,218.77,74.12Zm0-67.69a32.16,32.16,0,0,0-23.29,9.84,32.45,32.45,0,1,0,55.72,22.12,32.47,32.47,0,0,0-32.43-32Z"/><path class="cls-3" d="M257.23,54.64a3.21,3.21,0,0,1-2.31.39c-.22-.13.54-.26,1.24-.59,3.65-1.86,3-7.66,1.92-6.46a4.34,4.34,0,0,1-3.79,2c1.77-2.06,2-5,1.33-4.44-1.26,1.31-3.5,5.84-13.26,4.28a9.08,9.08,0,0,1,.88-1,4.64,4.64,0,0,1-1.52-1.52c-1.48-2.36-2.78-2.77-3.52-3A15,15,0,0,0,241,40.38a24.67,24.67,0,0,0,2-12.83,27.09,27.09,0,0,0-2.75-9.63C238.09,14,236,6.7,228.85,4.26a6.48,6.48,0,0,0-3.5.57c-.12-.25-1.34-1.25-1.47-1.48-.75-.7-3-1.29-4-1.61-2-.05-3.86-.56-6.12.06C204.16,4.39,199.87,9.18,197,18a34.67,34.67,0,0,0-.63,3.85c.12-.26-3.1,9.49-1,14.83.39.45.43,1.29.83,1.76,1,2.34,2.61,3.8,3.59,6-3.14.14-4.25,4.95-4.35,5.36-9.87,1.63-12.13-3-13.4-4.29-.63-.52-.44,2.39,1.33,4.48a4.43,4.43,0,0,1-3.79-2c-1.06-1.23-1.73,4.6,1.93,6.45.67.34,1.45.47,1.23.59a3.21,3.21,0,0,1-2.31-.39c-.29-.18-.41.28-.1.6,9.44,6.29,13.8-.6,15.22-.82,5.2,1.51,14.41-2.16,10.33-5.34a16,16,0,0,1-2.84-8.15c-.24-1.95,0-2.54-2.14-2.37.76-2.33,1.54-4.4.74-8a2.47,2.47,0,0,0-.38.28c4.2-4.09,12.45-4.57,17-9,.59-1,2.91-1.34,3.46-2.38-.51,3.67-2.15,6.88-5.56,10.14a8.33,8.33,0,0,0,4.3-1.36c3.25-2.3,4.76-5.11,7-7.56,0-.11.61-.66.6-.83A4.63,4.63,0,0,1,229.4,21c2.65,4.1.49,3.08,3.43,6.82.18.19.48,1,.65,1.25a20.28,20.28,0,0,0,1.78,3c1,.73.81,2,1.45,4-.21,2.6-.71,4.61-2.47,5.76-.08,2.26-2,7.5-2,7.5.16.5-2,4,3.13,5a15.53,15.53,0,0,0,5.08-.29A8.52,8.52,0,0,1,241.56,51a7.45,7.45,0,0,0-.08.95,7.35,7.35,0,0,0,.47,2.56l.16,0c1.43.2,5.77,7.09,15.2.83C257.62,54.93,257.54,54.45,257.23,54.64Z"/><path class="cls-4" d="M230.37,62.06a5.58,5.58,0,0,1-.64-2.33.72.72,0,0,0-.38-.34l0,.94-1.64-.67a1.38,1.38,0,0,0-.2,1,9.69,9.69,0,0,0,2.41,5.2,1.32,1.32,0,0,0,1,.47,1.12,1.12,0,0,0,1-.39C232.57,65.07,231.1,63.71,230.37,62.06Z"/><path class="cls-4" d="M213.37,63.09l-.91-1c-.64,3.8-2,4.83-1.6,5.78a2,2,0,0,0,.48.57,1.59,1.59,0,0,0,.61.21,1.14,1.14,0,0,0,.88-.37,11.59,11.59,0,0,0,2-4.8,3.39,3.39,0,0,0,0-.9Z"/><path class="cls-4" d="M210.29,61.27l-1.47-.33-.17-.91a1.79,1.79,0,0,0-.3.44,11,11,0,0,1-.85,2.37c-.63,1.42-2.49,2.89-.6,3.46a1.29,1.29,0,0,0,1.24-.31,12.54,12.54,0,0,0,2.63-4.8,6.09,6.09,0,0,0,.19-.79Z"/><path class="cls-4" d="M225.15,63.15l-1.73-.92a14.68,14.68,0,0,0,2.21,5.93,1.6,1.6,0,0,0,.94.55,1.15,1.15,0,0,0,.63-.15s.46-.21.57-.52c.35-1-1.3-2.61-1.71-6.3Z"/><path class="cls-4" d="M218.26,69c1.8.47,3.41-.92,3.44-1.4a5.84,5.84,0,0,0-1.26-2.21,2,2,0,0,0-2-.4,2.94,2.94,0,0,0-1.6,2.31C216.87,68.19,218.26,69,218.26,69Z"/><path class="cls-5" d="M257.37,55.17a2.26,2.26,0,0,1-.44.5,10.17,10.17,0,0,1-13,.1,2.49,2.49,0,0,0-1.82-1,7.86,7.86,0,0,1-.6-2.92,7.3,7.3,0,0,1,.08-.95,8,8,0,0,0-1,2.48c-.13,0-.27.22-.41.26-4.71,1.82-7.54.58-9.42-3.1.17-.23,1.17-1.5,1.3-1.75a19.9,19.9,0,0,0,1.84-6.66c.54-4.48.52-5.49.67-6.6a8.3,8.3,0,0,0-.21-4.21,16.09,16.09,0,0,0-1.47-3.1,42.84,42.84,0,0,1-3.46-5.56,11,11,0,0,1-1-2.53,17.93,17.93,0,0,1-5.23,6.74c-3,2.23-5.31,2.93-7,2.64,2.6-1.48,5.28-3.08,7.25-6.31a24.55,24.55,0,0,0,3.28-9,1.62,1.62,0,0,1,.74.28A4.09,4.09,0,0,1,229,16.93a36.59,36.59,0,0,0,1.45,4.12c1.3,2.9,2.51,4.29,5.12,6.7s5,5.67,4.07,10.56c-.54,2.84-1.82,4.62-3.22,7a4.39,4.39,0,0,0-.51,2.61c.41,2.61,3,1.19,6.26,2a10,10,0,0,0-.6,1,8.37,8.37,0,0,1,3.6,2.1,10.25,10.25,0,0,0,9.38,3.31A5.73,5.73,0,0,0,257.37,55.17ZM236,19.9c2.11,2.78,7.26,7.61,6.74,15.24a14.09,14.09,0,0,0,.57-4.46c-.32-11.23-6.63-11.66-11.42-20.91C231.84,9.77,231.12,13.57,236,19.9ZM229.12,2.62a5.66,5.66,0,0,0-3.63.35,2.65,2.65,0,0,0-.6-1.11c-1.4-1.41-4-1.56-5.21-1.77a20.19,20.19,0,0,0-6.49.43C203.88,2.88,199.71,9,197,17.92a46.34,46.34,0,0,0-1.37,6.84c-1.15,2.65-3.35,9.5,1.15,16.16.82,1.2,3.46,4.53,4.15,6.35,1,4.39-4.58,1.77-8.44,5.71a10.27,10.27,0,0,1-9.42,3.29,5.8,5.8,0,0,1-2.77-1.11,2.34,2.34,0,0,0,.45.48,10.16,10.16,0,0,0,13,.12c.72-.62.74-1,3.2-1,4.3,0,8.16-.29,10.41-3.57-1.75-2.29-2.55-3.1-3.2-4.5a7,7,0,0,0-.77-2.82c-.37-4.43-.82-5-.76-7.23-.18-2.84,0-6.12,2.91-7.34s3.73-.83,8.79-3.45C223.7,21,224,15.06,223,14.32a27.33,27.33,0,0,1-4.93,6.2c-4.11,3.58-9.35,4.91-14.91,7s-6.23,4.22-6.23,4.22a14.66,14.66,0,0,1,3.34-12.61c-.47-.15-2.85,2.7-3.93,4.35a44.65,44.65,0,0,1,3.83-10.94A22.08,22.08,0,0,1,202,9.8,17.27,17.27,0,0,1,206.33,6a15.7,15.7,0,0,1,4.81-2.32c4.16-1.09,10.36-1,12.83,1.08a3.88,3.88,0,0,1,1,1.48,11.2,11.2,0,0,1,2-.94,5.72,5.72,0,0,1,3.5.34c4.9,2.16,6,7.69,9.75,12.31C236.56,10.47,235.83,4.12,229.12,2.62Zm-23.26,21C211,22.06,213.16,18,218,14.66a7.28,7.28,0,0,0-2.47.92,77.28,77.28,0,0,0-7.25,4.66,31.46,31.46,0,0,1-6.17,3.51S203.36,24.46,205.86,23.6Z"/><path class="cls-6" d="M235.76,32.05c-.56-.12-.8.19-1.07.72a12.88,12.88,0,0,0-.33-1.4,16.09,16.09,0,0,0-1.47-3.1,42.84,42.84,0,0,1-3.46-5.56,11,11,0,0,1-1-2.53,17.93,17.93,0,0,1-5.23,6.74c-3,2.23-5.31,2.93-7,2.64a16.9,16.9,0,0,0,5.48-9.6,19.94,19.94,0,0,1-7.28,5.86c-5.06,2.62-5.83,2.22-8.79,3.45-2.1.86-2.77,2.77-2.92,4.83,0-.33-.05-.62-.08-.86-.08-1.18-.39-1.15-.39-1.15s-1.86,0-2,2.77a5.32,5.32,0,0,0,.51,2.78c.3.64.62,1.47,1,1.68.71.33,1,.1,1.14,0,0,.07,0,.15,0,.25s0,.15.06.24,0,.23,0,.36c.58,3.73,1.15,6,2.09,7.4a5.14,5.14,0,0,0,.24.58l.59,1a2.18,2.18,0,0,1,1,1.45,1.38,1.38,0,0,0,.15.17,4.57,4.57,0,0,1,.35.48l0,0a1.44,1.44,0,0,0,.28.27,11.05,11.05,0,0,0,1.13,1.07l-.21,7.22.22,1.2,1.47.33.68-.91,2.4,2.73,2-.72a3.75,3.75,0,0,1,.92.57,25.7,25.7,0,0,0,3,1.52l1.2-.48L222,62.87l.6-1,2.51,1.32,2.38-3.58,1.84.76-.12-8.19c.23-.24.44-.5.69-.74a33.11,33.11,0,0,0,2.14-2.61.39.39,0,0,1,.08-.16.15.15,0,0,0,0-.06s.05-.1.09-.16l0-.09s.06-.1.07-.14,0-.1.06-.14l.06-.15a.33.33,0,0,1,.09-.16.18.18,0,0,1,0-.13.58.58,0,0,1,.09-.23.33.33,0,0,1,0-.14l.09-.23a.19.19,0,0,0,0-.14,1.69,1.69,0,0,1,.11-.27.84.84,0,0,1,0-.14c0-.11.06-.2.08-.31a.19.19,0,0,0,0-.14c0-.11.06-.21.08-.31s.06-.09.06-.17.07-.2.09-.33,0-.11,0-.15,0-.23.07-.35a.7.7,0,0,0,.06-.19c0-.1,0-.23.07-.34a.8.8,0,0,1,0-.21,2.71,2.71,0,0,1,.05-.37,1.48,1.48,0,0,0,0-.19,3,3,0,0,0,0-.42.45.45,0,0,0,.05-.18c0-.19,0-.39.06-.61.15-1.18.25-2.13.31-2.89.21.13.69.3,1.28-.34a5.74,5.74,0,0,0,1.39-4C236.86,33.69,236.53,32.24,235.76,32.05Z"/><path class="cls-4" d="M196.89,48.37a5.52,5.52,0,0,0-.22-1.57c-.18-1-.38-1.62-.75-3.29-.48-2-1.76-2.07-2.22-2a8.57,8.57,0,0,0-3.55,1.6c-1.34,1-1.37,1.74-1.21,2.27a10.69,10.69,0,0,0,1.28,2.22c1.43,1.75,3.54,2.19,2.66,2.8-.24.28-.2.77.12,1.85a11.34,11.34,0,0,0,.71,1.64c.25.3.45,1,1.35,1,.23,0,.5,0,.44.15a2.7,2.7,0,0,0-.17.89,11,11,0,0,0,.76,2.11c.25.66.87,3.63,2.26,3.58a6,6,0,0,0,1.78-.31c1.29-.39,2.89-1.46,3.09-2.3.29-1.2-.48-1.69-.87-2.26-.75-.78-2.44-2.43-2.93-2.93-.1-.13-.24-.25-.4-.43-.46-.45-.25-.58,0-.9.25-.5-.49-2-.68-2.29-.32-.46-.83-1-1.3-1C196.05,49,196.89,48.93,196.89,48.37Z"/><path class="cls-2" d="M196.24,54.09a4.38,4.38,0,0,0,1.72-.92c.15-.12.53.09.18.68-.14.23-.37.12-.34.64s1.52,1.71.55,1.9S197,55,196.89,54.71s-.46,0-.65,0C195.82,54.67,195.49,54.42,196.24,54.09Z"/><path class="cls-2" d="M193.47,47.43c.12.91.84,2,1.44,1.38.38-.36-.33-.47-.86-2.6C193.73,44.84,193.37,46.72,193.47,47.43Z"/><path class="cls-4" d="M242.6,54.13c.48,0,1.18-.74,1.49-1.19.2-.29,1-1.77.55-2.25-.27-.27-.33-.34.07-.76.18-.15.32-.29.44-.37.5-.52,2.64-2.84,3.15-3.39.27-.38,1.16-1.06.78-2.07-.3-.67-2.4-1.77-3.52-2.2a7.36,7.36,0,0,0-1.79-.53c-1.09-.11-2,3.08-2.22,3.75a10,10,0,0,0-.52,2.22,2.09,2.09,0,0,0,.23.87c.07.14-.21.13-.46.16a2.33,2.33,0,0,0-1.66,1,4.58,4.58,0,0,0-.78,1.51c-.27,1.06-.18,1.49.11,1.76,1,.6-1.13.85-2.64,2.87a8.22,8.22,0,0,0-1.42,2.13c-.17.52-.3,1.12,1.31,2.22a10.28,10.28,0,0,0,4,1.52c.51,0,1.6.3,2-1.64.32-1.65.46-2.15.61-2.89a6.55,6.55,0,0,0,.16-1.86C242.42,54.49,241.61,54.18,242.6,54.13Z"/><path class="cls-2" d="M241.24,53.89c-1.45-.07-1.41-.22-1.88-.54-.17-.11-.82.21-.37.62a1,1,0,0,1,.38,1c-.18.63-1.11,1.84-.21,1.73,1.05-.13,1.29-1.6,1.4-1.81a.69.69,0,0,1,.54-.33C241.52,54.5,242,54,241.24,53.89Z"/><path class="cls-2" d="M244.21,47.8c-.28.64-.5,1.49-1.35,1-1-.57.25-1.41,1.07-2.27S244.44,47.31,244.21,47.8Z"/><path class="cls-7" d="M206.09,39.72a.35.35,0,0,1,.39-.37c.21,0,.5.15.49.37a.5.5,0,0,1-.49.47.39.39,0,0,1-.39-.47"/><path class="cls-7" d="M208.07,41.05a.49.49,0,0,1,.45-.46.53.53,0,0,1,.51.48c0,.19-.26.37-.51.37a.44.44,0,0,1-.45-.39"/><path class="cls-7" d="M209.76,38.58c0-.18.26-.41.53-.41a.51.51,0,0,1,.42.42c-.09.34-.25.46-.42.46-.35,0-.53-.14-.53-.47"/><path class="cls-7" d="M211.8,40.3a.38.38,0,0,1,.39-.43.45.45,0,0,1,0,.89c-.3,0-.39-.21-.39-.46"/><path class="cls-7" d="M213.77,38.18a.38.38,0,0,1,.41-.4.4.4,0,0,1,.44.4.43.43,0,1,1-.85,0"/><path class="cls-7" d="M223.16,38.31c0-.24.18-.38.43-.32a.45.45,0,0,1,.38.48c-.06.23-.28.3-.52.25a.33.33,0,0,1-.29-.41"/><path class="cls-7" d="M225.84,38.81a.39.39,0,0,1,.39-.34.42.42,0,0,1-.14.82.38.38,0,0,1-.25-.48"/><path class="cls-7" d="M229.4,38.47a.43.43,0,0,1,.57-.29.34.34,0,0,1,.29.47c0,.26-.2.46-.44.4a.47.47,0,0,1-.42-.58"/><path class="cls-7" d="M227.33,40.42a.45.45,0,0,1,.57-.35.44.44,0,0,1-.13.87.49.49,0,0,1-.44-.52"/><path class="cls-7" d="M230.13,40.62a.43.43,0,0,1,.53-.34.4.4,0,0,1,.38.49.46.46,0,0,1-.91-.15"/><path class="cls-8" d="M212.89,29.29a6.72,6.72,0,0,0-1-.28,6.37,6.37,0,0,0-1-.05,7.19,7.19,0,0,0-1.57.2c-.86.2-2.42,1.13-2.57.76a1.27,1.27,0,0,1,.45-1.24c1.11-.35,2-.58,3.47-1.13a3.92,3.92,0,0,1,1.34.25,6.6,6.6,0,0,1,1.26.72c.36.21,1,.55,1,.83S213.33,29.4,212.89,29.29ZM217,47.84c.21,0,1-.08,1.21-.09,2-.18,3.82.34,5.66-.19-.63.59-1.15,1.53-2.06,1.95a9,9,0,0,1-4.17.36,8.25,8.25,0,0,1-3.58-1.39c-.27.81.17,1.11.79,1.67a5.25,5.25,0,0,0,3.4,1.51c2.39.08,4.26-.14,5.46-2.12a7,7,0,0,1,2.37-2.44c.57-.29,1.89-.9,1.67-1.25-.39-.5-1.18-.4-1.72-.29s-.55.88-1.25.93c-1.68.23-3.3-.37-5.36-.3-1.48,0-2.65.38-4.24.52s-2.05-.7-3.48-.89c-.65-.07-.77.31-.3.92a3,3,0,0,0,1.92.93C214.64,47.67,215.72,47.94,217,47.84Zm6.22-18.24c.05.25,1,0,1.36-.16a6.13,6.13,0,0,1,1-.34,5.23,5.23,0,0,1,1-.11,8.68,8.68,0,0,1,1.57.09c.86.15,2.49,1,2.62.63a1.53,1.53,0,0,0-.92-1.51,5.35,5.35,0,0,0-4.47-.31,9.52,9.52,0,0,0-1.2.79C223.81,28.91,223.19,29.31,223.23,29.6Zm-1.91,11.84c-.91-.27-1.11.71-2,.7-1.3,0-1.57-.84-2.25-.77s-.87.93-1.25,1-.25.48.15.56c.75.21.6-.44,1.12-.27.28.11.35.64,1.22,1s1.74-.08,2.55-.78c.48-.48,1.39-.43,1.17-.75C221.79,42.05,221.63,41.54,221.32,41.44Zm-14.13-5.63a2.62,2.62,0,0,0,1.75.41.27.27,0,0,0-.26-.37.69.69,0,0,1-.66-.52,2.62,2.62,0,0,1,1.27-1.74c.57-.42,1-.19,1.2.13,0,.27-.11.46-.31.49-.36.08-.6-.2-.85-.09a1,1,0,0,0-.13,1.31c.18.19.38.3.45.21.32-.4,1.06-.4,1.86-.32.31-.24.34-.81.44-1.29.54-.62.83.64,1.19,1.14.24.34.5.7.84.75a.9.9,0,0,0,1-1.22c-.14-.21-.6.23-.78.08-.65-.64,0-1.92-1.43-2.62s-3.79-.49-4.71.66a6.21,6.21,0,0,0-1,1.7C206.87,35,206.72,35.56,207.19,35.81Zm19.28-4a4.89,4.89,0,0,0-1.87,1.55c-.4.62-.67,1.73-1.18,1.75-.22-.07,0-.52-.33-.5a.68.68,0,0,0-.53.85.6.6,0,0,0,.53.39c.93.13,1.09-.74,1.44-1.24a6.2,6.2,0,0,1,1.27-1.25,1,1,0,0,1,1.13,0c.23.2,0,.63-.17.71-.41,0-.82-.12-1-.08s-.51.61-.56,1.29c.45.19.56-.16,1-.17.73,0,1.42.45,1.8.09a2,2,0,0,0,.35-1.32,1,1,0,0,1,.63,1.37c-.19.22-.7.16-.7.6,2.1.42,2.3-.45,2.45-.92a1.66,1.66,0,0,0-.1-1.2A3.42,3.42,0,0,0,226.47,31.86ZM209,53.74c0,1.58-.05,3.15-.09,5.27.18.29.39.62.69,1.05.56.72,1.29-1.73,2.21-1.22s.91,2.28,1.94,3.09c.64.5,1.77-2.27,2.39-.76s1.84,2,3.1,2.65c.56-.5,1.39-.57,2.08-1.39s1.06-1.56,1.53-1.7c.74-.22,1.19,1.61,2,1.32,1.32-.48,1.08-2.91,2.3-3.24.62-.15.72.91,1.45,1s1.42-2.43,1.79-3.5c.18-.49.45-.67.85-.49.57.21.62,1,.67,2.31a8.51,8.51,0,0,0,2,4.89c1,1.25-1.61.57-2.65-2.13-.64-1.68-.45-1.7-.95-.83,0,0-.87,1.55-1.45,1.7-.74.19-1.43-.89-1.43-.89s-.89,3-2.34,3-1.86-1.47-2.18-.9a3.09,3.09,0,0,1-1.8,1.53,3.5,3.5,0,0,1,1.47,1.95h0c.5,2.19-1.13,3.58-3,3.71-1.39.11-3.06-.49-3.49-1.78a3.64,3.64,0,0,1,1.52-3.88,3.94,3.94,0,0,1-2.19-1.64,2.16,2.16,0,0,1-1.93.86c-.74-.13-1.71-1.58-2.07-2.79,0-.07-.8,1.08-1.75.91-1.26-.21-1.24-1.12-1.82-2-.15-.22-.6-.87-.66-.32a6.87,6.87,0,0,1-.61,1.79c-.63,1.27-2.48,2.69-3.3,2.14a5.34,5.34,0,0,0,2.31-3,10.54,10.54,0,0,0,.37-4.16c-.12-1.11,1-.49,1.7.27l.05-.73c0-.79,0-1.69.07-2.53a2.58,2.58,0,0,0-.64-1.59c-.45-.56-1.14-1.68-1.53-2.24,0,0-.48-.76-.77-1.31a15.46,15.46,0,0,1-.89-2.11,17.59,17.59,0,0,1-.79-3.74,27.65,27.65,0,0,1-.21-3.05c.21,1,.53,2.62.65,3.14a15.51,15.51,0,0,0,1.81,4.92,19.39,19.39,0,0,0,2.89,3.73c.61.61,1.82,1.62,2.59,2.22a18.77,18.77,0,0,0,2.66,2A9.86,9.86,0,0,0,219,57.19a8.21,8.21,0,0,0,4.58-1.44,18.19,18.19,0,0,0,3.8-2.89A29.74,29.74,0,0,0,230.26,50a13.06,13.06,0,0,0,3-5.77,42.78,42.78,0,0,0,1-4.89,11.41,11.41,0,0,1,0,2.43,22.79,22.79,0,0,1-.48,3.2,12.71,12.71,0,0,1-1.29,3.61,33.29,33.29,0,0,1-1.82,2.81c-.72,1-.76,1.07-.78,1.84,0,3.27-.74,7.76-1.32.66-3.6,3.07-6.7,5-9.63,5S213,57,209,53.74Zm9.59,15a1.87,1.87,0,0,0,2.31-1.12,2.18,2.18,0,0,0-.26-1.43,1.91,1.91,0,0,0-.78-.79,1.45,1.45,0,0,0-1.2-.14l-.17.07C217.42,65.77,216.78,68.28,218.62,68.77Z"/></g></g></svg>