<svg xmlns:xlink="http://www.w3.org/1999/xlink" xmlns="http://www.w3.org/2000/svg" height="48" viewBox="0 0 49 48" width="49"><path d="m6.07310378 1.66078431c6.44474182 4.47595384 10.32692882 7.42151515 11.64667752 8.83677229 2.0040627 2.1490942 2.4852885 4.5422397 1.4436916 7.1795084-.0956205.3533555-.180585 1.2507102-.1258915 1.5051027l4.7254186 4.8946166 3.6487875-3.6382177c-.9167575-1.9530921-1.056262-4.1453055-.4185176-6.5767059.6377443-2.4314004 1.9331431-4.64354295 3.8862353-6.63649409 1.5545019-1.55450189 3.2883433-2.690467 5.2015764-3.40792941s3.7566853-.95661296 5.5304118-.71745882c1.7737265.23915413 3.2584528.95660578 4.4542235 2.15237647 1.1957707 1.19577068 1.9132224 2.69046162 2.1523765 4.48411764.2391541 1.79365601.0000036 3.65703741-.7174588 5.59020001s-1.8534275 3.6769687-3.4079294 5.2314706c-1.9929512 1.9530921-4.2050938 3.2285617-6.6364942 3.826447-2.4314003.5978854-4.6236137.4384517-6.5767058-.4783058l-3.5872942 3.6470823 17.1592236 17.1592235-3.5275059 3.5275059-.3649287-.3643117-.1864517.1871572-10.1835483-10.5571572-6.4242948-6.4249118-17.15922357 17.1592235-3.52750588-3.5275059 17.35802425-17.3178058-5.616-5.823-.0342972.0110815c-2.5869891.7255872-4.84793044.0508957-6.78288758-2.0240918-.73319369-.7862539-1.50087322-1.7363201-2.3030616-2.850227s-1.45729573-2.095451-1.9653417-2.9446618-1.17277826-1.9932733-1.99421682-3.4322217c-.82143855-1.43894833-1.40149779-2.44147776-1.7401951-3.00761829l.60731038-.56632609 8.5783233 9.19912548c.53767538.5765863 1.03424812.6525049 1.48973322.2277582.4048756-.3775526.4135248-.8756002.0259479-1.4941576l-.073319-.078625-7.8950991-9.8362424.60731038-.56632608 9.33746132 8.49121788.073319.078625c.5900147.4297812 1.062148.4794917 1.4164142.1491332.455485-.4247467.4143905-.9254057-.1232849-1.5019919l-8.5783233-9.1991255z" fill="#fff" transform="translate(0 -1)"/></svg>